M48
; DRILL file {KiCad 6.0.2+dfsg-1} date Sat 14 Feb 2026 12:21:51 AM CET
; FORMAT={-:-/ absolute / metric / decimal}
; #@! TF.CreationDate,2026-02-14T00:21:51+01:00
; #@! TF.GenerationSoftware,Kicad,Pcbnew,6.0.2+dfsg-1
; #@! TF.FileFunction,Plated,1,2,PTH
FMAT,2
METRIC
; #@! TA.AperFunction,Plated,PTH,ViaDrill
T1C0.400
; #@! TA.AperFunction,Plated,PTH,ComponentDrill
T2C0.600
; #@! TA.AperFunction,Plated,PTH,ComponentDrill
T3C0.650
; #@! TA.AperFunction,Plated,PTH,ComponentDrill
T4C0.800
; #@! TA.AperFunction,Plated,PTH,ComponentDrill
T5C1.000
%
G90
G05
T1
X116.0Y-108.5
X116.5Y-88.25
X116.5Y-91.75
X116.5Y-98.0
X116.5Y-101.5
X118.25Y-81.587
X121.75Y-82.75
X121.75Y-88.75
X121.75Y-92.5
X122.0Y-98.75
X122.0Y-102.25
X127.0Y-85.75
X127.5Y-87.0
X128.0Y-88.25
X128.5Y-89.5
X129.0Y-93.0
X129.75Y-94.0
X130.5Y-95.0
X131.0Y-104.0
X131.75Y-81.5
X132.0Y-95.049
X134.0Y-98.75
X135.5Y-92.0
X139.75Y-81.5
X145.25Y-92.5
X145.5Y-85.25
X147.0Y-85.25
X147.0Y-101.75
X148.25Y-101.25
X148.5Y-99.75
X150.5Y-89.25
X150.5Y-93.75
X154.75Y-87.0
X156.0Y-81.5
X157.5Y-84.75
X159.0Y-84.75
X160.25Y-98.0
X161.0Y-81.5
X164.0Y-88.5
X165.0Y-87.5
X166.25Y-83.25
X166.25Y-84.75
X166.25Y-100.25
X168.25Y-83.5
X169.0Y-106.0
X170.25Y-100.0
X170.5Y-89.0
X170.75Y-97.0
X171.5Y-104.25
X175.75Y-103.25
T3
X167.38Y-96.75
X168.65Y-96.75
T4
X132.635Y-89.2
X132.635Y-96.82
X135.175Y-89.2
X135.175Y-96.82
X137.715Y-89.2
X137.715Y-96.82
X140.255Y-89.2
X140.255Y-96.82
X142.795Y-89.2
X142.795Y-96.82
X145.335Y-89.2
X145.335Y-96.82
X147.875Y-89.2
X147.875Y-96.82
T5
X129.07Y-77.5
X131.17Y-108.5
X131.61Y-77.5
X133.71Y-108.5
X134.15Y-77.5
X136.25Y-108.5
X136.69Y-77.5
X138.79Y-108.5
X139.23Y-77.5
X141.33Y-108.5
X141.77Y-77.5
X143.87Y-108.5
X144.31Y-77.5
X146.41Y-108.5
X146.85Y-77.5
X148.95Y-108.5
X149.39Y-77.5
X151.49Y-108.5
X151.93Y-77.5
X154.03Y-108.5
X154.47Y-77.5
X156.57Y-108.5
X157.01Y-77.5
X159.11Y-108.5
X159.55Y-77.5
X161.65Y-108.5
X162.09Y-77.5
X164.19Y-108.5
X164.63Y-77.5
X166.73Y-108.5
X167.17Y-77.5
X169.27Y-108.5
X169.71Y-77.5
X172.25Y-77.5
T2
X172.57Y-88.68G85X173.67Y-88.68
G05
X172.57Y-97.32G85X173.67Y-97.32
G05
X177.0Y-88.68G85X177.6Y-88.68
G05
X177.0Y-97.32G85X177.6Y-97.32
G05
T0
M30
