%TF.GenerationSoftware,KiCad,Pcbnew,6.0.2+dfsg-1*%
%TF.CreationDate,2026-02-14T00:21:06+01:00*%
%TF.ProjectId,1602_display_usb_controller,31363032-5f64-4697-9370-6c61795f7573,rev?*%
%TF.SameCoordinates,Original*%
%TF.FileFunction,Legend,Top*%
%TF.FilePolarity,Positive*%
%FSLAX46Y46*%
G04 Gerber Fmt 4.6, Leading zero omitted, Abs format (unit mm)*
G04 Created by KiCad (PCBNEW 6.0.2+dfsg-1) date 2026-02-14 00:21:06*
%MOMM*%
%LPD*%
G01*
G04 APERTURE LIST*
G04 Aperture macros list*
%AMRoundRect*
0 Rectangle with rounded corners*
0 $1 Rounding radius*
0 $2 $3 $4 $5 $6 $7 $8 $9 X,Y pos of 4 corners*
0 Add a 4 corners polygon primitive as box body*
4,1,4,$2,$3,$4,$5,$6,$7,$8,$9,$2,$3,0*
0 Add four circle primitives for the rounded corners*
1,1,$1+$1,$2,$3*
1,1,$1+$1,$4,$5*
1,1,$1+$1,$6,$7*
1,1,$1+$1,$8,$9*
0 Add four rect primitives between the rounded corners*
20,1,$1+$1,$2,$3,$4,$5,0*
20,1,$1+$1,$4,$5,$6,$7,0*
20,1,$1+$1,$6,$7,$8,$9,0*
20,1,$1+$1,$8,$9,$2,$3,0*%
G04 Aperture macros list end*
%ADD10C,0.150000*%
%ADD11C,0.200000*%
%ADD12C,0.120000*%
%ADD13RoundRect,0.250000X0.475000X-0.250000X0.475000X0.250000X-0.475000X0.250000X-0.475000X-0.250000X0*%
%ADD14RoundRect,0.250000X0.450000X-0.262500X0.450000X0.262500X-0.450000X0.262500X-0.450000X-0.262500X0*%
%ADD15RoundRect,0.250000X-0.450000X0.262500X-0.450000X-0.262500X0.450000X-0.262500X0.450000X0.262500X0*%
%ADD16C,2.500000*%
%ADD17RoundRect,0.250000X0.262500X0.450000X-0.262500X0.450000X-0.262500X-0.450000X0.262500X-0.450000X0*%
%ADD18R,1.600000X1.600000*%
%ADD19O,1.600000X1.600000*%
%ADD20C,0.650000*%
%ADD21R,1.450000X0.600000*%
%ADD22R,1.450000X0.300000*%
%ADD23O,1.600000X1.000000*%
%ADD24O,2.100000X1.000000*%
%ADD25RoundRect,0.250000X-0.475000X0.250000X-0.475000X-0.250000X0.475000X-0.250000X0.475000X0.250000X0*%
%ADD26RoundRect,0.150000X0.587500X0.150000X-0.587500X0.150000X-0.587500X-0.150000X0.587500X-0.150000X0*%
%ADD27RoundRect,0.150000X-0.150000X0.825000X-0.150000X-0.825000X0.150000X-0.825000X0.150000X0.825000X0*%
%ADD28R,1.000000X1.000000*%
%ADD29O,1.000000X1.000000*%
%ADD30RoundRect,0.250000X-0.262500X-0.450000X0.262500X-0.450000X0.262500X0.450000X-0.262500X0.450000X0*%
%ADD31RoundRect,0.250000X-0.250000X-0.475000X0.250000X-0.475000X0.250000X0.475000X-0.250000X0.475000X0*%
%ADD32RoundRect,0.150000X0.150000X-0.512500X0.150000X0.512500X-0.150000X0.512500X-0.150000X-0.512500X0*%
%ADD33RoundRect,0.150000X-0.150000X0.725000X-0.150000X-0.725000X0.150000X-0.725000X0.150000X0.725000X0*%
%ADD34RoundRect,0.250000X0.250000X0.475000X-0.250000X0.475000X-0.250000X-0.475000X0.250000X-0.475000X0*%
%ADD35R,1.050000X0.650000*%
%ADD36RoundRect,0.243750X-0.243750X-0.456250X0.243750X-0.456250X0.243750X0.456250X-0.243750X0.456250X0*%
%ADD37R,1.700000X1.700000*%
%ADD38O,1.700000X1.700000*%
G04 APERTURE END LIST*
D10*
X111104761Y-79442857D02*
X111371428Y-79442857D01*
X111485714Y-79861904D02*
X111104761Y-79861904D01*
X111104761Y-79061904D01*
X111485714Y-79061904D01*
X112209523Y-79861904D02*
X111828571Y-79861904D01*
X111828571Y-79061904D01*
X112933333Y-79861904D02*
X112666666Y-79480952D01*
X112476190Y-79861904D02*
X112476190Y-79061904D01*
X112780952Y-79061904D01*
X112857142Y-79100000D01*
X112895238Y-79138095D01*
X112933333Y-79214285D01*
X112933333Y-79328571D01*
X112895238Y-79404761D01*
X112857142Y-79442857D01*
X112780952Y-79480952D01*
X112476190Y-79480952D01*
D11*
X133523809Y-83202380D02*
X132952380Y-83202380D01*
X133238095Y-83202380D02*
X133238095Y-82202380D01*
X133142857Y-82345238D01*
X133047619Y-82440476D01*
X132952380Y-82488095D01*
X134380952Y-82202380D02*
X134190476Y-82202380D01*
X134095238Y-82250000D01*
X134047619Y-82297619D01*
X133952380Y-82440476D01*
X133904761Y-82630952D01*
X133904761Y-83011904D01*
X133952380Y-83107142D01*
X134000000Y-83154761D01*
X134095238Y-83202380D01*
X134285714Y-83202380D01*
X134380952Y-83154761D01*
X134428571Y-83107142D01*
X134476190Y-83011904D01*
X134476190Y-82773809D01*
X134428571Y-82678571D01*
X134380952Y-82630952D01*
X134285714Y-82583333D01*
X134095238Y-82583333D01*
X134000000Y-82630952D01*
X133952380Y-82678571D01*
X133904761Y-82773809D01*
X135095238Y-82202380D02*
X135190476Y-82202380D01*
X135285714Y-82250000D01*
X135333333Y-82297619D01*
X135380952Y-82392857D01*
X135428571Y-82583333D01*
X135428571Y-82821428D01*
X135380952Y-83011904D01*
X135333333Y-83107142D01*
X135285714Y-83154761D01*
X135190476Y-83202380D01*
X135095238Y-83202380D01*
X135000000Y-83154761D01*
X134952380Y-83107142D01*
X134904761Y-83011904D01*
X134857142Y-82821428D01*
X134857142Y-82583333D01*
X134904761Y-82392857D01*
X134952380Y-82297619D01*
X135000000Y-82250000D01*
X135095238Y-82202380D01*
X135809523Y-82297619D02*
X135857142Y-82250000D01*
X135952380Y-82202380D01*
X136190476Y-82202380D01*
X136285714Y-82250000D01*
X136333333Y-82297619D01*
X136380952Y-82392857D01*
X136380952Y-82488095D01*
X136333333Y-82630952D01*
X135761904Y-83202380D01*
X136380952Y-83202380D01*
X136571428Y-83297619D02*
X137333333Y-83297619D01*
X137571428Y-83202380D02*
X137571428Y-82202380D01*
X137809523Y-82202380D01*
X137952380Y-82250000D01*
X138047619Y-82345238D01*
X138095238Y-82440476D01*
X138142857Y-82630952D01*
X138142857Y-82773809D01*
X138095238Y-82964285D01*
X138047619Y-83059523D01*
X137952380Y-83154761D01*
X137809523Y-83202380D01*
X137571428Y-83202380D01*
X138571428Y-83202380D02*
X138571428Y-82202380D01*
X139000000Y-83154761D02*
X139142857Y-83202380D01*
X139380952Y-83202380D01*
X139476190Y-83154761D01*
X139523809Y-83107142D01*
X139571428Y-83011904D01*
X139571428Y-82916666D01*
X139523809Y-82821428D01*
X139476190Y-82773809D01*
X139380952Y-82726190D01*
X139190476Y-82678571D01*
X139095238Y-82630952D01*
X139047619Y-82583333D01*
X139000000Y-82488095D01*
X139000000Y-82392857D01*
X139047619Y-82297619D01*
X139095238Y-82250000D01*
X139190476Y-82202380D01*
X139428571Y-82202380D01*
X139571428Y-82250000D01*
X140000000Y-83202380D02*
X140000000Y-82202380D01*
X140380952Y-82202380D01*
X140476190Y-82250000D01*
X140523809Y-82297619D01*
X140571428Y-82392857D01*
X140571428Y-82535714D01*
X140523809Y-82630952D01*
X140476190Y-82678571D01*
X140380952Y-82726190D01*
X140000000Y-82726190D01*
X141476190Y-83202380D02*
X141000000Y-83202380D01*
X141000000Y-82202380D01*
X141761904Y-82916666D02*
X142238095Y-82916666D01*
X141666666Y-83202380D02*
X142000000Y-82202380D01*
X142333333Y-83202380D01*
X142857142Y-82726190D02*
X142857142Y-83202380D01*
X142523809Y-82202380D02*
X142857142Y-82726190D01*
X143190476Y-82202380D01*
X143285714Y-83297619D02*
X144047619Y-83297619D01*
X144285714Y-82202380D02*
X144285714Y-83011904D01*
X144333333Y-83107142D01*
X144380952Y-83154761D01*
X144476190Y-83202380D01*
X144666666Y-83202380D01*
X144761904Y-83154761D01*
X144809523Y-83107142D01*
X144857142Y-83011904D01*
X144857142Y-82202380D01*
X145285714Y-83154761D02*
X145428571Y-83202380D01*
X145666666Y-83202380D01*
X145761904Y-83154761D01*
X145809523Y-83107142D01*
X145857142Y-83011904D01*
X145857142Y-82916666D01*
X145809523Y-82821428D01*
X145761904Y-82773809D01*
X145666666Y-82726190D01*
X145476190Y-82678571D01*
X145380952Y-82630952D01*
X145333333Y-82583333D01*
X145285714Y-82488095D01*
X145285714Y-82392857D01*
X145333333Y-82297619D01*
X145380952Y-82250000D01*
X145476190Y-82202380D01*
X145714285Y-82202380D01*
X145857142Y-82250000D01*
X146619047Y-82678571D02*
X146761904Y-82726190D01*
X146809523Y-82773809D01*
X146857142Y-82869047D01*
X146857142Y-83011904D01*
X146809523Y-83107142D01*
X146761904Y-83154761D01*
X146666666Y-83202380D01*
X146285714Y-83202380D01*
X146285714Y-82202380D01*
X146619047Y-82202380D01*
X146714285Y-82250000D01*
X146761904Y-82297619D01*
X146809523Y-82392857D01*
X146809523Y-82488095D01*
X146761904Y-82583333D01*
X146714285Y-82630952D01*
X146619047Y-82678571D01*
X146285714Y-82678571D01*
X147047619Y-83297619D02*
X147809523Y-83297619D01*
X148619047Y-83107142D02*
X148571428Y-83154761D01*
X148428571Y-83202380D01*
X148333333Y-83202380D01*
X148190476Y-83154761D01*
X148095238Y-83059523D01*
X148047619Y-82964285D01*
X148000000Y-82773809D01*
X148000000Y-82630952D01*
X148047619Y-82440476D01*
X148095238Y-82345238D01*
X148190476Y-82250000D01*
X148333333Y-82202380D01*
X148428571Y-82202380D01*
X148571428Y-82250000D01*
X148619047Y-82297619D01*
X149238095Y-82202380D02*
X149428571Y-82202380D01*
X149523809Y-82250000D01*
X149619047Y-82345238D01*
X149666666Y-82535714D01*
X149666666Y-82869047D01*
X149619047Y-83059523D01*
X149523809Y-83154761D01*
X149428571Y-83202380D01*
X149238095Y-83202380D01*
X149142857Y-83154761D01*
X149047619Y-83059523D01*
X149000000Y-82869047D01*
X149000000Y-82535714D01*
X149047619Y-82345238D01*
X149142857Y-82250000D01*
X149238095Y-82202380D01*
X150095238Y-83202380D02*
X150095238Y-82202380D01*
X150666666Y-83202380D01*
X150666666Y-82202380D01*
X151000000Y-82202380D02*
X151571428Y-82202380D01*
X151285714Y-83202380D02*
X151285714Y-82202380D01*
X152476190Y-83202380D02*
X152142857Y-82726190D01*
X151904761Y-83202380D02*
X151904761Y-82202380D01*
X152285714Y-82202380D01*
X152380952Y-82250000D01*
X152428571Y-82297619D01*
X152476190Y-82392857D01*
X152476190Y-82535714D01*
X152428571Y-82630952D01*
X152380952Y-82678571D01*
X152285714Y-82726190D01*
X151904761Y-82726190D01*
X153095238Y-82202380D02*
X153285714Y-82202380D01*
X153380952Y-82250000D01*
X153476190Y-82345238D01*
X153523809Y-82535714D01*
X153523809Y-82869047D01*
X153476190Y-83059523D01*
X153380952Y-83154761D01*
X153285714Y-83202380D01*
X153095238Y-83202380D01*
X153000000Y-83154761D01*
X152904761Y-83059523D01*
X152857142Y-82869047D01*
X152857142Y-82535714D01*
X152904761Y-82345238D01*
X153000000Y-82250000D01*
X153095238Y-82202380D01*
X154428571Y-83202380D02*
X153952380Y-83202380D01*
X153952380Y-82202380D01*
X155238095Y-83202380D02*
X154761904Y-83202380D01*
X154761904Y-82202380D01*
X155571428Y-82678571D02*
X155904761Y-82678571D01*
X156047619Y-83202380D02*
X155571428Y-83202380D01*
X155571428Y-82202380D01*
X156047619Y-82202380D01*
X157047619Y-83202380D02*
X156714285Y-82726190D01*
X156476190Y-83202380D02*
X156476190Y-82202380D01*
X156857142Y-82202380D01*
X156952380Y-82250000D01*
X157000000Y-82297619D01*
X157047619Y-82392857D01*
X157047619Y-82535714D01*
X157000000Y-82630952D01*
X156952380Y-82678571D01*
X156857142Y-82726190D01*
X156476190Y-82726190D01*
D10*
%TO.C,C6*%
X150333333Y-98607142D02*
X150285714Y-98654761D01*
X150142857Y-98702380D01*
X150047619Y-98702380D01*
X149904761Y-98654761D01*
X149809523Y-98559523D01*
X149761904Y-98464285D01*
X149714285Y-98273809D01*
X149714285Y-98130952D01*
X149761904Y-97940476D01*
X149809523Y-97845238D01*
X149904761Y-97750000D01*
X150047619Y-97702380D01*
X150142857Y-97702380D01*
X150285714Y-97750000D01*
X150333333Y-97797619D01*
X151190476Y-97702380D02*
X151000000Y-97702380D01*
X150904761Y-97750000D01*
X150857142Y-97797619D01*
X150761904Y-97940476D01*
X150714285Y-98130952D01*
X150714285Y-98511904D01*
X150761904Y-98607142D01*
X150809523Y-98654761D01*
X150904761Y-98702380D01*
X151095238Y-98702380D01*
X151190476Y-98654761D01*
X151238095Y-98607142D01*
X151285714Y-98511904D01*
X151285714Y-98273809D01*
X151238095Y-98178571D01*
X151190476Y-98130952D01*
X151095238Y-98083333D01*
X150904761Y-98083333D01*
X150809523Y-98130952D01*
X150761904Y-98178571D01*
X150714285Y-98273809D01*
%TO.C,R14*%
X112952380Y-93892857D02*
X112476190Y-94226190D01*
X112952380Y-94464285D02*
X111952380Y-94464285D01*
X111952380Y-94083333D01*
X112000000Y-93988095D01*
X112047619Y-93940476D01*
X112142857Y-93892857D01*
X112285714Y-93892857D01*
X112380952Y-93940476D01*
X112428571Y-93988095D01*
X112476190Y-94083333D01*
X112476190Y-94464285D01*
X112952380Y-92940476D02*
X112952380Y-93511904D01*
X112952380Y-93226190D02*
X111952380Y-93226190D01*
X112095238Y-93321428D01*
X112190476Y-93416666D01*
X112238095Y-93511904D01*
X112285714Y-92083333D02*
X112952380Y-92083333D01*
X111904761Y-92321428D02*
X112619047Y-92559523D01*
X112619047Y-91940476D01*
%TO.C,R8*%
X122083333Y-84702380D02*
X121750000Y-84226190D01*
X121511904Y-84702380D02*
X121511904Y-83702380D01*
X121892857Y-83702380D01*
X121988095Y-83750000D01*
X122035714Y-83797619D01*
X122083333Y-83892857D01*
X122083333Y-84035714D01*
X122035714Y-84130952D01*
X121988095Y-84178571D01*
X121892857Y-84226190D01*
X121511904Y-84226190D01*
X122654761Y-84130952D02*
X122559523Y-84083333D01*
X122511904Y-84035714D01*
X122464285Y-83940476D01*
X122464285Y-83892857D01*
X122511904Y-83797619D01*
X122559523Y-83750000D01*
X122654761Y-83702380D01*
X122845238Y-83702380D01*
X122940476Y-83750000D01*
X122988095Y-83797619D01*
X123035714Y-83892857D01*
X123035714Y-83940476D01*
X122988095Y-84035714D01*
X122940476Y-84083333D01*
X122845238Y-84130952D01*
X122654761Y-84130952D01*
X122559523Y-84178571D01*
X122511904Y-84226190D01*
X122464285Y-84321428D01*
X122464285Y-84511904D01*
X122511904Y-84607142D01*
X122559523Y-84654761D01*
X122654761Y-84702380D01*
X122845238Y-84702380D01*
X122940476Y-84654761D01*
X122988095Y-84607142D01*
X123035714Y-84511904D01*
X123035714Y-84321428D01*
X122988095Y-84226190D01*
X122940476Y-84178571D01*
X122845238Y-84130952D01*
%TO.C,H4*%
X176988095Y-105452380D02*
X176988095Y-104452380D01*
X176988095Y-104928571D02*
X177559523Y-104928571D01*
X177559523Y-105452380D02*
X177559523Y-104452380D01*
X178464285Y-104785714D02*
X178464285Y-105452380D01*
X178226190Y-104404761D02*
X177988095Y-105119047D01*
X178607142Y-105119047D01*
%TO.C,R6*%
X118083333Y-107452380D02*
X117750000Y-106976190D01*
X117511904Y-107452380D02*
X117511904Y-106452380D01*
X117892857Y-106452380D01*
X117988095Y-106500000D01*
X118035714Y-106547619D01*
X118083333Y-106642857D01*
X118083333Y-106785714D01*
X118035714Y-106880952D01*
X117988095Y-106928571D01*
X117892857Y-106976190D01*
X117511904Y-106976190D01*
X118940476Y-106452380D02*
X118750000Y-106452380D01*
X118654761Y-106500000D01*
X118607142Y-106547619D01*
X118511904Y-106690476D01*
X118464285Y-106880952D01*
X118464285Y-107261904D01*
X118511904Y-107357142D01*
X118559523Y-107404761D01*
X118654761Y-107452380D01*
X118845238Y-107452380D01*
X118940476Y-107404761D01*
X118988095Y-107357142D01*
X119035714Y-107261904D01*
X119035714Y-107023809D01*
X118988095Y-106928571D01*
X118940476Y-106880952D01*
X118845238Y-106833333D01*
X118654761Y-106833333D01*
X118559523Y-106880952D01*
X118511904Y-106928571D01*
X118464285Y-107023809D01*
%TO.C,U3*%
X147988095Y-86702380D02*
X147988095Y-87511904D01*
X148035714Y-87607142D01*
X148083333Y-87654761D01*
X148178571Y-87702380D01*
X148369047Y-87702380D01*
X148464285Y-87654761D01*
X148511904Y-87607142D01*
X148559523Y-87511904D01*
X148559523Y-86702380D01*
X148940476Y-86702380D02*
X149559523Y-86702380D01*
X149226190Y-87083333D01*
X149369047Y-87083333D01*
X149464285Y-87130952D01*
X149511904Y-87178571D01*
X149559523Y-87273809D01*
X149559523Y-87511904D01*
X149511904Y-87607142D01*
X149464285Y-87654761D01*
X149369047Y-87702380D01*
X149083333Y-87702380D01*
X148988095Y-87654761D01*
X148940476Y-87607142D01*
%TO.C,J1*%
X169916666Y-89702380D02*
X169916666Y-90416666D01*
X169869047Y-90559523D01*
X169773809Y-90654761D01*
X169630952Y-90702380D01*
X169535714Y-90702380D01*
X170916666Y-90702380D02*
X170345238Y-90702380D01*
X170630952Y-90702380D02*
X170630952Y-89702380D01*
X170535714Y-89845238D01*
X170440476Y-89940476D01*
X170345238Y-89988095D01*
%TO.C,C1*%
X175583333Y-99357142D02*
X175535714Y-99404761D01*
X175392857Y-99452380D01*
X175297619Y-99452380D01*
X175154761Y-99404761D01*
X175059523Y-99309523D01*
X175011904Y-99214285D01*
X174964285Y-99023809D01*
X174964285Y-98880952D01*
X175011904Y-98690476D01*
X175059523Y-98595238D01*
X175154761Y-98500000D01*
X175297619Y-98452380D01*
X175392857Y-98452380D01*
X175535714Y-98500000D01*
X175583333Y-98547619D01*
X176535714Y-99452380D02*
X175964285Y-99452380D01*
X176250000Y-99452380D02*
X176250000Y-98452380D01*
X176154761Y-98595238D01*
X176059523Y-98690476D01*
X175964285Y-98738095D01*
%TO.C,C3*%
X164833333Y-101357142D02*
X164785714Y-101404761D01*
X164642857Y-101452380D01*
X164547619Y-101452380D01*
X164404761Y-101404761D01*
X164309523Y-101309523D01*
X164261904Y-101214285D01*
X164214285Y-101023809D01*
X164214285Y-100880952D01*
X164261904Y-100690476D01*
X164309523Y-100595238D01*
X164404761Y-100500000D01*
X164547619Y-100452380D01*
X164642857Y-100452380D01*
X164785714Y-100500000D01*
X164833333Y-100547619D01*
X165166666Y-100452380D02*
X165785714Y-100452380D01*
X165452380Y-100833333D01*
X165595238Y-100833333D01*
X165690476Y-100880952D01*
X165738095Y-100928571D01*
X165785714Y-101023809D01*
X165785714Y-101261904D01*
X165738095Y-101357142D01*
X165690476Y-101404761D01*
X165595238Y-101452380D01*
X165309523Y-101452380D01*
X165214285Y-101404761D01*
X165166666Y-101357142D01*
%TO.C,R5*%
X176833333Y-87202380D02*
X176500000Y-86726190D01*
X176261904Y-87202380D02*
X176261904Y-86202380D01*
X176642857Y-86202380D01*
X176738095Y-86250000D01*
X176785714Y-86297619D01*
X176833333Y-86392857D01*
X176833333Y-86535714D01*
X176785714Y-86630952D01*
X176738095Y-86678571D01*
X176642857Y-86726190D01*
X176261904Y-86726190D01*
X177738095Y-86202380D02*
X177261904Y-86202380D01*
X177214285Y-86678571D01*
X177261904Y-86630952D01*
X177357142Y-86583333D01*
X177595238Y-86583333D01*
X177690476Y-86630952D01*
X177738095Y-86678571D01*
X177785714Y-86773809D01*
X177785714Y-87011904D01*
X177738095Y-87107142D01*
X177690476Y-87154761D01*
X177595238Y-87202380D01*
X177357142Y-87202380D01*
X177261904Y-87154761D01*
X177214285Y-87107142D01*
%TO.C,Q1*%
X117154761Y-86535119D02*
X117059523Y-86487500D01*
X116964285Y-86392261D01*
X116821428Y-86249404D01*
X116726190Y-86201785D01*
X116630952Y-86201785D01*
X116678571Y-86439880D02*
X116583333Y-86392261D01*
X116488095Y-86297023D01*
X116440476Y-86106547D01*
X116440476Y-85773214D01*
X116488095Y-85582738D01*
X116583333Y-85487500D01*
X116678571Y-85439880D01*
X116869047Y-85439880D01*
X116964285Y-85487500D01*
X117059523Y-85582738D01*
X117107142Y-85773214D01*
X117107142Y-86106547D01*
X117059523Y-86297023D01*
X116964285Y-86392261D01*
X116869047Y-86439880D01*
X116678571Y-86439880D01*
X118059523Y-86439880D02*
X117488095Y-86439880D01*
X117773809Y-86439880D02*
X117773809Y-85439880D01*
X117678571Y-85582738D01*
X117583333Y-85677976D01*
X117488095Y-85725595D01*
%TO.C,R1*%
X168083333Y-103202380D02*
X167750000Y-102726190D01*
X167511904Y-103202380D02*
X167511904Y-102202380D01*
X167892857Y-102202380D01*
X167988095Y-102250000D01*
X168035714Y-102297619D01*
X168083333Y-102392857D01*
X168083333Y-102535714D01*
X168035714Y-102630952D01*
X167988095Y-102678571D01*
X167892857Y-102726190D01*
X167511904Y-102726190D01*
X169035714Y-103202380D02*
X168464285Y-103202380D01*
X168750000Y-103202380D02*
X168750000Y-102202380D01*
X168654761Y-102345238D01*
X168559523Y-102440476D01*
X168464285Y-102488095D01*
%TO.C,U4*%
X143238095Y-83952380D02*
X143238095Y-84761904D01*
X143285714Y-84857142D01*
X143333333Y-84904761D01*
X143428571Y-84952380D01*
X143619047Y-84952380D01*
X143714285Y-84904761D01*
X143761904Y-84857142D01*
X143809523Y-84761904D01*
X143809523Y-83952380D01*
X144714285Y-84285714D02*
X144714285Y-84952380D01*
X144476190Y-83904761D02*
X144238095Y-84619047D01*
X144857142Y-84619047D01*
%TO.C,J2*%
X166137380Y-99333333D02*
X166851666Y-99333333D01*
X166994523Y-99380952D01*
X167089761Y-99476190D01*
X167137380Y-99619047D01*
X167137380Y-99714285D01*
X166232619Y-98904761D02*
X166185000Y-98857142D01*
X166137380Y-98761904D01*
X166137380Y-98523809D01*
X166185000Y-98428571D01*
X166232619Y-98380952D01*
X166327857Y-98333333D01*
X166423095Y-98333333D01*
X166565952Y-98380952D01*
X167137380Y-98952380D01*
X167137380Y-98333333D01*
%TO.C,R17*%
X124107142Y-79802380D02*
X123773809Y-79326190D01*
X123535714Y-79802380D02*
X123535714Y-78802380D01*
X123916666Y-78802380D01*
X124011904Y-78850000D01*
X124059523Y-78897619D01*
X124107142Y-78992857D01*
X124107142Y-79135714D01*
X124059523Y-79230952D01*
X124011904Y-79278571D01*
X123916666Y-79326190D01*
X123535714Y-79326190D01*
X125059523Y-79802380D02*
X124488095Y-79802380D01*
X124773809Y-79802380D02*
X124773809Y-78802380D01*
X124678571Y-78945238D01*
X124583333Y-79040476D01*
X124488095Y-79088095D01*
X125392857Y-78802380D02*
X126059523Y-78802380D01*
X125630952Y-79802380D01*
%TO.C,Q3*%
X117154761Y-96197619D02*
X117059523Y-96150000D01*
X116964285Y-96054761D01*
X116821428Y-95911904D01*
X116726190Y-95864285D01*
X116630952Y-95864285D01*
X116678571Y-96102380D02*
X116583333Y-96054761D01*
X116488095Y-95959523D01*
X116440476Y-95769047D01*
X116440476Y-95435714D01*
X116488095Y-95245238D01*
X116583333Y-95150000D01*
X116678571Y-95102380D01*
X116869047Y-95102380D01*
X116964285Y-95150000D01*
X117059523Y-95245238D01*
X117107142Y-95435714D01*
X117107142Y-95769047D01*
X117059523Y-95959523D01*
X116964285Y-96054761D01*
X116869047Y-96102380D01*
X116678571Y-96102380D01*
X117440476Y-95102380D02*
X118059523Y-95102380D01*
X117726190Y-95483333D01*
X117869047Y-95483333D01*
X117964285Y-95530952D01*
X118011904Y-95578571D01*
X118059523Y-95673809D01*
X118059523Y-95911904D01*
X118011904Y-96007142D01*
X117964285Y-96054761D01*
X117869047Y-96102380D01*
X117583333Y-96102380D01*
X117488095Y-96054761D01*
X117440476Y-96007142D01*
%TO.C,Q5*%
X117154761Y-105947619D02*
X117059523Y-105900000D01*
X116964285Y-105804761D01*
X116821428Y-105661904D01*
X116726190Y-105614285D01*
X116630952Y-105614285D01*
X116678571Y-105852380D02*
X116583333Y-105804761D01*
X116488095Y-105709523D01*
X116440476Y-105519047D01*
X116440476Y-105185714D01*
X116488095Y-104995238D01*
X116583333Y-104900000D01*
X116678571Y-104852380D01*
X116869047Y-104852380D01*
X116964285Y-104900000D01*
X117059523Y-104995238D01*
X117107142Y-105185714D01*
X117107142Y-105519047D01*
X117059523Y-105709523D01*
X116964285Y-105804761D01*
X116869047Y-105852380D01*
X116678571Y-105852380D01*
X118011904Y-104852380D02*
X117535714Y-104852380D01*
X117488095Y-105328571D01*
X117535714Y-105280952D01*
X117630952Y-105233333D01*
X117869047Y-105233333D01*
X117964285Y-105280952D01*
X118011904Y-105328571D01*
X118059523Y-105423809D01*
X118059523Y-105661904D01*
X118011904Y-105757142D01*
X117964285Y-105804761D01*
X117869047Y-105852380D01*
X117630952Y-105852380D01*
X117535714Y-105804761D01*
X117488095Y-105757142D01*
%TO.C,C7*%
X173583333Y-80857142D02*
X173535714Y-80904761D01*
X173392857Y-80952380D01*
X173297619Y-80952380D01*
X173154761Y-80904761D01*
X173059523Y-80809523D01*
X173011904Y-80714285D01*
X172964285Y-80523809D01*
X172964285Y-80380952D01*
X173011904Y-80190476D01*
X173059523Y-80095238D01*
X173154761Y-80000000D01*
X173297619Y-79952380D01*
X173392857Y-79952380D01*
X173535714Y-80000000D01*
X173583333Y-80047619D01*
X173916666Y-79952380D02*
X174583333Y-79952380D01*
X174154761Y-80952380D01*
%TO.C,R2*%
X168083333Y-88702380D02*
X167750000Y-88226190D01*
X167511904Y-88702380D02*
X167511904Y-87702380D01*
X167892857Y-87702380D01*
X167988095Y-87750000D01*
X168035714Y-87797619D01*
X168083333Y-87892857D01*
X168083333Y-88035714D01*
X168035714Y-88130952D01*
X167988095Y-88178571D01*
X167892857Y-88226190D01*
X167511904Y-88226190D01*
X168464285Y-87797619D02*
X168511904Y-87750000D01*
X168607142Y-87702380D01*
X168845238Y-87702380D01*
X168940476Y-87750000D01*
X168988095Y-87797619D01*
X169035714Y-87892857D01*
X169035714Y-87988095D01*
X168988095Y-88130952D01*
X168416666Y-88702380D01*
X169035714Y-88702380D01*
%TO.C,U2*%
X169488095Y-98452380D02*
X169488095Y-99261904D01*
X169535714Y-99357142D01*
X169583333Y-99404761D01*
X169678571Y-99452380D01*
X169869047Y-99452380D01*
X169964285Y-99404761D01*
X170011904Y-99357142D01*
X170059523Y-99261904D01*
X170059523Y-98452380D01*
X170488095Y-98547619D02*
X170535714Y-98500000D01*
X170630952Y-98452380D01*
X170869047Y-98452380D01*
X170964285Y-98500000D01*
X171011904Y-98547619D01*
X171059523Y-98642857D01*
X171059523Y-98738095D01*
X171011904Y-98880952D01*
X170440476Y-99452380D01*
X171059523Y-99452380D01*
%TO.C,H1*%
X101988095Y-81452380D02*
X101988095Y-80452380D01*
X101988095Y-80928571D02*
X102559523Y-80928571D01*
X102559523Y-81452380D02*
X102559523Y-80452380D01*
X103559523Y-81452380D02*
X102988095Y-81452380D01*
X103273809Y-81452380D02*
X103273809Y-80452380D01*
X103178571Y-80595238D01*
X103083333Y-80690476D01*
X102988095Y-80738095D01*
%TO.C,R3*%
X173333333Y-106352380D02*
X173000000Y-105876190D01*
X172761904Y-106352380D02*
X172761904Y-105352380D01*
X173142857Y-105352380D01*
X173238095Y-105400000D01*
X173285714Y-105447619D01*
X173333333Y-105542857D01*
X173333333Y-105685714D01*
X173285714Y-105780952D01*
X173238095Y-105828571D01*
X173142857Y-105876190D01*
X172761904Y-105876190D01*
X173666666Y-105352380D02*
X174285714Y-105352380D01*
X173952380Y-105733333D01*
X174095238Y-105733333D01*
X174190476Y-105780952D01*
X174238095Y-105828571D01*
X174285714Y-105923809D01*
X174285714Y-106161904D01*
X174238095Y-106257142D01*
X174190476Y-106304761D01*
X174095238Y-106352380D01*
X173809523Y-106352380D01*
X173714285Y-106304761D01*
X173666666Y-106257142D01*
%TO.C,U1*%
X165238095Y-87952380D02*
X165238095Y-88761904D01*
X165285714Y-88857142D01*
X165333333Y-88904761D01*
X165428571Y-88952380D01*
X165619047Y-88952380D01*
X165714285Y-88904761D01*
X165761904Y-88857142D01*
X165809523Y-88761904D01*
X165809523Y-87952380D01*
X166809523Y-88952380D02*
X166238095Y-88952380D01*
X166523809Y-88952380D02*
X166523809Y-87952380D01*
X166428571Y-88095238D01*
X166333333Y-88190476D01*
X166238095Y-88238095D01*
%TO.C,Q4*%
X117154761Y-97547619D02*
X117059523Y-97500000D01*
X116964285Y-97404761D01*
X116821428Y-97261904D01*
X116726190Y-97214285D01*
X116630952Y-97214285D01*
X116678571Y-97452380D02*
X116583333Y-97404761D01*
X116488095Y-97309523D01*
X116440476Y-97119047D01*
X116440476Y-96785714D01*
X116488095Y-96595238D01*
X116583333Y-96500000D01*
X116678571Y-96452380D01*
X116869047Y-96452380D01*
X116964285Y-96500000D01*
X117059523Y-96595238D01*
X117107142Y-96785714D01*
X117107142Y-97119047D01*
X117059523Y-97309523D01*
X116964285Y-97404761D01*
X116869047Y-97452380D01*
X116678571Y-97452380D01*
X117964285Y-96785714D02*
X117964285Y-97452380D01*
X117726190Y-96404761D02*
X117488095Y-97119047D01*
X118107142Y-97119047D01*
%TO.C,R12*%
X122107142Y-104202380D02*
X121773809Y-103726190D01*
X121535714Y-104202380D02*
X121535714Y-103202380D01*
X121916666Y-103202380D01*
X122011904Y-103250000D01*
X122059523Y-103297619D01*
X122107142Y-103392857D01*
X122107142Y-103535714D01*
X122059523Y-103630952D01*
X122011904Y-103678571D01*
X121916666Y-103726190D01*
X121535714Y-103726190D01*
X123059523Y-104202380D02*
X122488095Y-104202380D01*
X122773809Y-104202380D02*
X122773809Y-103202380D01*
X122678571Y-103345238D01*
X122583333Y-103440476D01*
X122488095Y-103488095D01*
X123440476Y-103297619D02*
X123488095Y-103250000D01*
X123583333Y-103202380D01*
X123821428Y-103202380D01*
X123916666Y-103250000D01*
X123964285Y-103297619D01*
X124011904Y-103392857D01*
X124011904Y-103488095D01*
X123964285Y-103630952D01*
X123392857Y-104202380D01*
X124011904Y-104202380D01*
%TO.C,H2*%
X176988095Y-81452380D02*
X176988095Y-80452380D01*
X176988095Y-80928571D02*
X177559523Y-80928571D01*
X177559523Y-81452380D02*
X177559523Y-80452380D01*
X177988095Y-80547619D02*
X178035714Y-80500000D01*
X178130952Y-80452380D01*
X178369047Y-80452380D01*
X178464285Y-80500000D01*
X178511904Y-80547619D01*
X178559523Y-80642857D01*
X178559523Y-80738095D01*
X178511904Y-80880952D01*
X177940476Y-81452380D01*
X178559523Y-81452380D01*
%TO.C,R7*%
X163452380Y-81416666D02*
X162976190Y-81750000D01*
X163452380Y-81988095D02*
X162452380Y-81988095D01*
X162452380Y-81607142D01*
X162500000Y-81511904D01*
X162547619Y-81464285D01*
X162642857Y-81416666D01*
X162785714Y-81416666D01*
X162880952Y-81464285D01*
X162928571Y-81511904D01*
X162976190Y-81607142D01*
X162976190Y-81988095D01*
X162452380Y-81083333D02*
X162452380Y-80416666D01*
X163452380Y-80845238D01*
%TO.C,C9*%
X138583333Y-104107142D02*
X138535714Y-104154761D01*
X138392857Y-104202380D01*
X138297619Y-104202380D01*
X138154761Y-104154761D01*
X138059523Y-104059523D01*
X138011904Y-103964285D01*
X137964285Y-103773809D01*
X137964285Y-103630952D01*
X138011904Y-103440476D01*
X138059523Y-103345238D01*
X138154761Y-103250000D01*
X138297619Y-103202380D01*
X138392857Y-103202380D01*
X138535714Y-103250000D01*
X138583333Y-103297619D01*
X139059523Y-104202380D02*
X139250000Y-104202380D01*
X139345238Y-104154761D01*
X139392857Y-104107142D01*
X139488095Y-103964285D01*
X139535714Y-103773809D01*
X139535714Y-103392857D01*
X139488095Y-103297619D01*
X139440476Y-103250000D01*
X139345238Y-103202380D01*
X139154761Y-103202380D01*
X139059523Y-103250000D01*
X139011904Y-103297619D01*
X138964285Y-103392857D01*
X138964285Y-103630952D01*
X139011904Y-103726190D01*
X139059523Y-103773809D01*
X139154761Y-103821428D01*
X139345238Y-103821428D01*
X139440476Y-103773809D01*
X139488095Y-103726190D01*
X139535714Y-103630952D01*
%TO.C,R15*%
X112952380Y-100142857D02*
X112476190Y-100476190D01*
X112952380Y-100714285D02*
X111952380Y-100714285D01*
X111952380Y-100333333D01*
X112000000Y-100238095D01*
X112047619Y-100190476D01*
X112142857Y-100142857D01*
X112285714Y-100142857D01*
X112380952Y-100190476D01*
X112428571Y-100238095D01*
X112476190Y-100333333D01*
X112476190Y-100714285D01*
X112952380Y-99190476D02*
X112952380Y-99761904D01*
X112952380Y-99476190D02*
X111952380Y-99476190D01*
X112095238Y-99571428D01*
X112190476Y-99666666D01*
X112238095Y-99761904D01*
X111952380Y-98285714D02*
X111952380Y-98761904D01*
X112428571Y-98809523D01*
X112380952Y-98761904D01*
X112333333Y-98666666D01*
X112333333Y-98428571D01*
X112380952Y-98333333D01*
X112428571Y-98285714D01*
X112523809Y-98238095D01*
X112761904Y-98238095D01*
X112857142Y-98285714D01*
X112904761Y-98333333D01*
X112952380Y-98428571D01*
X112952380Y-98666666D01*
X112904761Y-98761904D01*
X112857142Y-98809523D01*
%TO.C,C2*%
X162083333Y-100037142D02*
X162035714Y-100084761D01*
X161892857Y-100132380D01*
X161797619Y-100132380D01*
X161654761Y-100084761D01*
X161559523Y-99989523D01*
X161511904Y-99894285D01*
X161464285Y-99703809D01*
X161464285Y-99560952D01*
X161511904Y-99370476D01*
X161559523Y-99275238D01*
X161654761Y-99180000D01*
X161797619Y-99132380D01*
X161892857Y-99132380D01*
X162035714Y-99180000D01*
X162083333Y-99227619D01*
X162464285Y-99227619D02*
X162511904Y-99180000D01*
X162607142Y-99132380D01*
X162845238Y-99132380D01*
X162940476Y-99180000D01*
X162988095Y-99227619D01*
X163035714Y-99322857D01*
X163035714Y-99418095D01*
X162988095Y-99560952D01*
X162416666Y-100132380D01*
X163035714Y-100132380D01*
%TO.C,SW1*%
X171666666Y-87254761D02*
X171809523Y-87302380D01*
X172047619Y-87302380D01*
X172142857Y-87254761D01*
X172190476Y-87207142D01*
X172238095Y-87111904D01*
X172238095Y-87016666D01*
X172190476Y-86921428D01*
X172142857Y-86873809D01*
X172047619Y-86826190D01*
X171857142Y-86778571D01*
X171761904Y-86730952D01*
X171714285Y-86683333D01*
X171666666Y-86588095D01*
X171666666Y-86492857D01*
X171714285Y-86397619D01*
X171761904Y-86350000D01*
X171857142Y-86302380D01*
X172095238Y-86302380D01*
X172238095Y-86350000D01*
X172571428Y-86302380D02*
X172809523Y-87302380D01*
X173000000Y-86588095D01*
X173190476Y-87302380D01*
X173428571Y-86302380D01*
X174333333Y-87302380D02*
X173761904Y-87302380D01*
X174047619Y-87302380D02*
X174047619Y-86302380D01*
X173952380Y-86445238D01*
X173857142Y-86540476D01*
X173761904Y-86588095D01*
%TO.C,R9*%
X122083333Y-90452380D02*
X121750000Y-89976190D01*
X121511904Y-90452380D02*
X121511904Y-89452380D01*
X121892857Y-89452380D01*
X121988095Y-89500000D01*
X122035714Y-89547619D01*
X122083333Y-89642857D01*
X122083333Y-89785714D01*
X122035714Y-89880952D01*
X121988095Y-89928571D01*
X121892857Y-89976190D01*
X121511904Y-89976190D01*
X122559523Y-90452380D02*
X122750000Y-90452380D01*
X122845238Y-90404761D01*
X122892857Y-90357142D01*
X122988095Y-90214285D01*
X123035714Y-90023809D01*
X123035714Y-89642857D01*
X122988095Y-89547619D01*
X122940476Y-89500000D01*
X122845238Y-89452380D01*
X122654761Y-89452380D01*
X122559523Y-89500000D01*
X122511904Y-89547619D01*
X122464285Y-89642857D01*
X122464285Y-89880952D01*
X122511904Y-89976190D01*
X122559523Y-90023809D01*
X122654761Y-90071428D01*
X122845238Y-90071428D01*
X122940476Y-90023809D01*
X122988095Y-89976190D01*
X123035714Y-89880952D01*
%TO.C,D1*%
X123011904Y-107302380D02*
X123011904Y-106302380D01*
X123250000Y-106302380D01*
X123392857Y-106350000D01*
X123488095Y-106445238D01*
X123535714Y-106540476D01*
X123583333Y-106730952D01*
X123583333Y-106873809D01*
X123535714Y-107064285D01*
X123488095Y-107159523D01*
X123392857Y-107254761D01*
X123250000Y-107302380D01*
X123011904Y-107302380D01*
X124535714Y-107302380D02*
X123964285Y-107302380D01*
X124250000Y-107302380D02*
X124250000Y-106302380D01*
X124154761Y-106445238D01*
X124059523Y-106540476D01*
X123964285Y-106588095D01*
%TO.C,C5*%
X164857142Y-81416666D02*
X164904761Y-81464285D01*
X164952380Y-81607142D01*
X164952380Y-81702380D01*
X164904761Y-81845238D01*
X164809523Y-81940476D01*
X164714285Y-81988095D01*
X164523809Y-82035714D01*
X164380952Y-82035714D01*
X164190476Y-81988095D01*
X164095238Y-81940476D01*
X164000000Y-81845238D01*
X163952380Y-81702380D01*
X163952380Y-81607142D01*
X164000000Y-81464285D01*
X164047619Y-81416666D01*
X163952380Y-80511904D02*
X163952380Y-80988095D01*
X164428571Y-81035714D01*
X164380952Y-80988095D01*
X164333333Y-80892857D01*
X164333333Y-80654761D01*
X164380952Y-80559523D01*
X164428571Y-80511904D01*
X164523809Y-80464285D01*
X164761904Y-80464285D01*
X164857142Y-80511904D01*
X164904761Y-80559523D01*
X164952380Y-80654761D01*
X164952380Y-80892857D01*
X164904761Y-80988095D01*
X164857142Y-81035714D01*
%TO.C,C8*%
X133583333Y-104107142D02*
X133535714Y-104154761D01*
X133392857Y-104202380D01*
X133297619Y-104202380D01*
X133154761Y-104154761D01*
X133059523Y-104059523D01*
X133011904Y-103964285D01*
X132964285Y-103773809D01*
X132964285Y-103630952D01*
X133011904Y-103440476D01*
X133059523Y-103345238D01*
X133154761Y-103250000D01*
X133297619Y-103202380D01*
X133392857Y-103202380D01*
X133535714Y-103250000D01*
X133583333Y-103297619D01*
X134154761Y-103630952D02*
X134059523Y-103583333D01*
X134011904Y-103535714D01*
X133964285Y-103440476D01*
X133964285Y-103392857D01*
X134011904Y-103297619D01*
X134059523Y-103250000D01*
X134154761Y-103202380D01*
X134345238Y-103202380D01*
X134440476Y-103250000D01*
X134488095Y-103297619D01*
X134535714Y-103392857D01*
X134535714Y-103440476D01*
X134488095Y-103535714D01*
X134440476Y-103583333D01*
X134345238Y-103630952D01*
X134154761Y-103630952D01*
X134059523Y-103678571D01*
X134011904Y-103726190D01*
X133964285Y-103821428D01*
X133964285Y-104011904D01*
X134011904Y-104107142D01*
X134059523Y-104154761D01*
X134154761Y-104202380D01*
X134345238Y-104202380D01*
X134440476Y-104154761D01*
X134488095Y-104107142D01*
X134535714Y-104011904D01*
X134535714Y-103821428D01*
X134488095Y-103726190D01*
X134440476Y-103678571D01*
X134345238Y-103630952D01*
%TO.C,Q2*%
X117154761Y-87797619D02*
X117059523Y-87750000D01*
X116964285Y-87654761D01*
X116821428Y-87511904D01*
X116726190Y-87464285D01*
X116630952Y-87464285D01*
X116678571Y-87702380D02*
X116583333Y-87654761D01*
X116488095Y-87559523D01*
X116440476Y-87369047D01*
X116440476Y-87035714D01*
X116488095Y-86845238D01*
X116583333Y-86750000D01*
X116678571Y-86702380D01*
X116869047Y-86702380D01*
X116964285Y-86750000D01*
X117059523Y-86845238D01*
X117107142Y-87035714D01*
X117107142Y-87369047D01*
X117059523Y-87559523D01*
X116964285Y-87654761D01*
X116869047Y-87702380D01*
X116678571Y-87702380D01*
X117488095Y-86797619D02*
X117535714Y-86750000D01*
X117630952Y-86702380D01*
X117869047Y-86702380D01*
X117964285Y-86750000D01*
X118011904Y-86797619D01*
X118059523Y-86892857D01*
X118059523Y-86988095D01*
X118011904Y-87130952D01*
X117440476Y-87702380D01*
X118059523Y-87702380D01*
%TO.C,R10*%
X122107142Y-94452380D02*
X121773809Y-93976190D01*
X121535714Y-94452380D02*
X121535714Y-93452380D01*
X121916666Y-93452380D01*
X122011904Y-93500000D01*
X122059523Y-93547619D01*
X122107142Y-93642857D01*
X122107142Y-93785714D01*
X122059523Y-93880952D01*
X122011904Y-93928571D01*
X121916666Y-93976190D01*
X121535714Y-93976190D01*
X123059523Y-94452380D02*
X122488095Y-94452380D01*
X122773809Y-94452380D02*
X122773809Y-93452380D01*
X122678571Y-93595238D01*
X122583333Y-93690476D01*
X122488095Y-93738095D01*
X123678571Y-93452380D02*
X123773809Y-93452380D01*
X123869047Y-93500000D01*
X123916666Y-93547619D01*
X123964285Y-93642857D01*
X124011904Y-93833333D01*
X124011904Y-94071428D01*
X123964285Y-94261904D01*
X123916666Y-94357142D01*
X123869047Y-94404761D01*
X123773809Y-94452380D01*
X123678571Y-94452380D01*
X123583333Y-94404761D01*
X123535714Y-94357142D01*
X123488095Y-94261904D01*
X123440476Y-94071428D01*
X123440476Y-93833333D01*
X123488095Y-93642857D01*
X123535714Y-93547619D01*
X123583333Y-93500000D01*
X123678571Y-93452380D01*
%TO.C,C4*%
X170083333Y-104857142D02*
X170035714Y-104904761D01*
X169892857Y-104952380D01*
X169797619Y-104952380D01*
X169654761Y-104904761D01*
X169559523Y-104809523D01*
X169511904Y-104714285D01*
X169464285Y-104523809D01*
X169464285Y-104380952D01*
X169511904Y-104190476D01*
X169559523Y-104095238D01*
X169654761Y-104000000D01*
X169797619Y-103952380D01*
X169892857Y-103952380D01*
X170035714Y-104000000D01*
X170083333Y-104047619D01*
X170940476Y-104285714D02*
X170940476Y-104952380D01*
X170702380Y-103904761D02*
X170464285Y-104619047D01*
X171083333Y-104619047D01*
%TO.C,R13*%
X112952380Y-90392857D02*
X112476190Y-90726190D01*
X112952380Y-90964285D02*
X111952380Y-90964285D01*
X111952380Y-90583333D01*
X112000000Y-90488095D01*
X112047619Y-90440476D01*
X112142857Y-90392857D01*
X112285714Y-90392857D01*
X112380952Y-90440476D01*
X112428571Y-90488095D01*
X112476190Y-90583333D01*
X112476190Y-90964285D01*
X112952380Y-89440476D02*
X112952380Y-90011904D01*
X112952380Y-89726190D02*
X111952380Y-89726190D01*
X112095238Y-89821428D01*
X112190476Y-89916666D01*
X112238095Y-90011904D01*
X111952380Y-89107142D02*
X111952380Y-88488095D01*
X112333333Y-88821428D01*
X112333333Y-88678571D01*
X112380952Y-88583333D01*
X112428571Y-88535714D01*
X112523809Y-88488095D01*
X112761904Y-88488095D01*
X112857142Y-88535714D01*
X112904761Y-88583333D01*
X112952380Y-88678571D01*
X112952380Y-88964285D01*
X112904761Y-89059523D01*
X112857142Y-89107142D01*
%TO.C,R16*%
X112952380Y-103642857D02*
X112476190Y-103976190D01*
X112952380Y-104214285D02*
X111952380Y-104214285D01*
X111952380Y-103833333D01*
X112000000Y-103738095D01*
X112047619Y-103690476D01*
X112142857Y-103642857D01*
X112285714Y-103642857D01*
X112380952Y-103690476D01*
X112428571Y-103738095D01*
X112476190Y-103833333D01*
X112476190Y-104214285D01*
X112952380Y-102690476D02*
X112952380Y-103261904D01*
X112952380Y-102976190D02*
X111952380Y-102976190D01*
X112095238Y-103071428D01*
X112190476Y-103166666D01*
X112238095Y-103261904D01*
X111952380Y-101833333D02*
X111952380Y-102023809D01*
X112000000Y-102119047D01*
X112047619Y-102166666D01*
X112190476Y-102261904D01*
X112380952Y-102309523D01*
X112761904Y-102309523D01*
X112857142Y-102261904D01*
X112904761Y-102214285D01*
X112952380Y-102119047D01*
X112952380Y-101928571D01*
X112904761Y-101833333D01*
X112857142Y-101785714D01*
X112761904Y-101738095D01*
X112523809Y-101738095D01*
X112428571Y-101785714D01*
X112380952Y-101833333D01*
X112333333Y-101928571D01*
X112333333Y-102119047D01*
X112380952Y-102214285D01*
X112428571Y-102261904D01*
X112523809Y-102309523D01*
%TO.C,R4*%
X168083333Y-91452380D02*
X167750000Y-90976190D01*
X167511904Y-91452380D02*
X167511904Y-90452380D01*
X167892857Y-90452380D01*
X167988095Y-90500000D01*
X168035714Y-90547619D01*
X168083333Y-90642857D01*
X168083333Y-90785714D01*
X168035714Y-90880952D01*
X167988095Y-90928571D01*
X167892857Y-90976190D01*
X167511904Y-90976190D01*
X168940476Y-90785714D02*
X168940476Y-91452380D01*
X168702380Y-90404761D02*
X168464285Y-91119047D01*
X169083333Y-91119047D01*
%TO.C,H3*%
X101988095Y-105452380D02*
X101988095Y-104452380D01*
X101988095Y-104928571D02*
X102559523Y-104928571D01*
X102559523Y-105452380D02*
X102559523Y-104452380D01*
X102940476Y-104452380D02*
X103559523Y-104452380D01*
X103226190Y-104833333D01*
X103369047Y-104833333D01*
X103464285Y-104880952D01*
X103511904Y-104928571D01*
X103559523Y-105023809D01*
X103559523Y-105261904D01*
X103511904Y-105357142D01*
X103464285Y-105404761D01*
X103369047Y-105452380D01*
X103083333Y-105452380D01*
X102988095Y-105404761D01*
X102940476Y-105357142D01*
%TO.C,R11*%
X122107142Y-100452380D02*
X121773809Y-99976190D01*
X121535714Y-100452380D02*
X121535714Y-99452380D01*
X121916666Y-99452380D01*
X122011904Y-99500000D01*
X122059523Y-99547619D01*
X122107142Y-99642857D01*
X122107142Y-99785714D01*
X122059523Y-99880952D01*
X122011904Y-99928571D01*
X121916666Y-99976190D01*
X121535714Y-99976190D01*
X123059523Y-100452380D02*
X122488095Y-100452380D01*
X122773809Y-100452380D02*
X122773809Y-99452380D01*
X122678571Y-99595238D01*
X122583333Y-99690476D01*
X122488095Y-99738095D01*
X124011904Y-100452380D02*
X123440476Y-100452380D01*
X123726190Y-100452380D02*
X123726190Y-99452380D01*
X123630952Y-99595238D01*
X123535714Y-99690476D01*
X123440476Y-99738095D01*
D12*
%TO.C,C6*%
X149765000Y-96011252D02*
X149765000Y-95488748D01*
X151235000Y-96011252D02*
X151235000Y-95488748D01*
%TO.C,R14*%
X113515000Y-93477064D02*
X113515000Y-93022936D01*
X114985000Y-93477064D02*
X114985000Y-93022936D01*
%TO.C,R8*%
X119515000Y-83360436D02*
X119515000Y-83814564D01*
X120985000Y-83360436D02*
X120985000Y-83814564D01*
%TO.C,R6*%
X118477064Y-109235000D02*
X118022936Y-109235000D01*
X118477064Y-107765000D02*
X118022936Y-107765000D01*
%TO.C,U3*%
X131305000Y-90360000D02*
X131305000Y-95660000D01*
X149205000Y-92010000D02*
X149205000Y-90360000D01*
X131305000Y-95660000D02*
X149205000Y-95660000D01*
X149205000Y-90360000D02*
X131305000Y-90360000D01*
X149205000Y-95660000D02*
X149205000Y-94010000D01*
X149205000Y-92010000D02*
G75*
G03*
X149205000Y-94010000I0J-1000000D01*
G01*
%TO.C,J1*%
X180150000Y-97700000D02*
X180150000Y-88300000D01*
X178250000Y-88300000D02*
X180150000Y-88300000D01*
X174350000Y-97700000D02*
X176350000Y-97700000D01*
X178250000Y-97700000D02*
X180150000Y-97700000D01*
X174350000Y-88300000D02*
X176350000Y-88300000D01*
%TO.C,C1*%
X175015000Y-100988748D02*
X175015000Y-101511252D01*
X176485000Y-100988748D02*
X176485000Y-101511252D01*
%TO.C,C3*%
X165735000Y-98238748D02*
X165735000Y-98761252D01*
X164265000Y-98238748D02*
X164265000Y-98761252D01*
%TO.C,R5*%
X177735000Y-84022936D02*
X177735000Y-84477064D01*
X176265000Y-84022936D02*
X176265000Y-84477064D01*
%TO.C,Q1*%
X117250000Y-82027500D02*
X116600000Y-82027500D01*
X117250000Y-82027500D02*
X117900000Y-82027500D01*
X117250000Y-85147500D02*
X118925000Y-85147500D01*
X117250000Y-85147500D02*
X116600000Y-85147500D01*
%TO.C,R1*%
X167515000Y-100022936D02*
X167515000Y-100477064D01*
X168985000Y-100022936D02*
X168985000Y-100477064D01*
%TO.C,U4*%
X135815000Y-89250000D02*
X135815000Y-91200000D01*
X144685000Y-89250000D02*
X144685000Y-85800000D01*
X135815000Y-89250000D02*
X135815000Y-87300000D01*
X144685000Y-89250000D02*
X144685000Y-91200000D01*
%TO.C,J2*%
X167890000Y-95640000D02*
X166685000Y-95640000D01*
X167890000Y-95640000D02*
X167890000Y-96186529D01*
X166685000Y-97057530D02*
X166685000Y-97860000D01*
X167890000Y-97860000D02*
X166685000Y-97860000D01*
X167890000Y-97313471D02*
X167890000Y-97860000D01*
X168650000Y-95640000D02*
X169410000Y-95640000D01*
X166685000Y-95640000D02*
X166685000Y-96442470D01*
X169410000Y-95640000D02*
X169410000Y-96750000D01*
%TO.C,R17*%
X124522936Y-81735000D02*
X124977064Y-81735000D01*
X124522936Y-80265000D02*
X124977064Y-80265000D01*
%TO.C,Q3*%
X117250000Y-94810000D02*
X116600000Y-94810000D01*
X117250000Y-91690000D02*
X117900000Y-91690000D01*
X117250000Y-91690000D02*
X116600000Y-91690000D01*
X117250000Y-94810000D02*
X118925000Y-94810000D01*
%TO.C,Q5*%
X117250000Y-104560000D02*
X118925000Y-104560000D01*
X117250000Y-101440000D02*
X116600000Y-101440000D01*
X117250000Y-101440000D02*
X117900000Y-101440000D01*
X117250000Y-104560000D02*
X116600000Y-104560000D01*
%TO.C,C7*%
X170738748Y-79765000D02*
X171261252Y-79765000D01*
X170738748Y-81235000D02*
X171261252Y-81235000D01*
%TO.C,R2*%
X168985000Y-85977064D02*
X168985000Y-85522936D01*
X167515000Y-85977064D02*
X167515000Y-85522936D01*
%TO.C,U2*%
X171440000Y-101250000D02*
X171440000Y-100450000D01*
X171440000Y-101250000D02*
X171440000Y-103050000D01*
X174560000Y-101250000D02*
X174560000Y-102050000D01*
X174560000Y-101250000D02*
X174560000Y-100450000D01*
%TO.C,R3*%
X173727064Y-103515000D02*
X173272936Y-103515000D01*
X173727064Y-104985000D02*
X173272936Y-104985000D01*
%TO.C,U1*%
X165810000Y-93000000D02*
X165810000Y-89550000D01*
X165810000Y-93000000D02*
X165810000Y-94950000D01*
X155690000Y-93000000D02*
X155690000Y-91050000D01*
X155690000Y-93000000D02*
X155690000Y-94950000D01*
%TO.C,Q4*%
X117250000Y-97940000D02*
X117900000Y-97940000D01*
X117250000Y-97940000D02*
X116600000Y-97940000D01*
X117250000Y-101060000D02*
X116600000Y-101060000D01*
X117250000Y-101060000D02*
X118925000Y-101060000D01*
%TO.C,R12*%
X120985000Y-102772936D02*
X120985000Y-103227064D01*
X119515000Y-102772936D02*
X119515000Y-103227064D01*
%TO.C,R7*%
X165515000Y-81477064D02*
X165515000Y-81022936D01*
X166985000Y-81477064D02*
X166985000Y-81022936D01*
%TO.C,C9*%
X139011252Y-106235000D02*
X138488748Y-106235000D01*
X139011252Y-104765000D02*
X138488748Y-104765000D01*
%TO.C,R15*%
X113515000Y-99272936D02*
X113515000Y-99727064D01*
X114985000Y-99272936D02*
X114985000Y-99727064D01*
%TO.C,C2*%
X162511252Y-98735000D02*
X161988748Y-98735000D01*
X162511252Y-97265000D02*
X161988748Y-97265000D01*
%TO.C,SW1*%
X170800000Y-82550000D02*
X170800000Y-82670000D01*
X175200000Y-82550000D02*
X170800000Y-82550000D01*
X175200000Y-84820000D02*
X175200000Y-83680000D01*
X175200000Y-82670000D02*
X175200000Y-82550000D01*
X170800000Y-83680000D02*
X170800000Y-84820000D01*
X170800000Y-85950000D02*
X175200000Y-85950000D01*
X175200000Y-85950000D02*
X175200000Y-85830000D01*
X170800000Y-85830000D02*
X170800000Y-85950000D01*
%TO.C,R9*%
X120985000Y-89522936D02*
X120985000Y-89977064D01*
X119515000Y-89522936D02*
X119515000Y-89977064D01*
%TO.C,D1*%
X124750000Y-107540000D02*
X122065000Y-107540000D01*
X122065000Y-109460000D02*
X124750000Y-109460000D01*
X122065000Y-107540000D02*
X122065000Y-109460000D01*
%TO.C,C5*%
X168985000Y-80988748D02*
X168985000Y-81511252D01*
X167515000Y-80988748D02*
X167515000Y-81511252D01*
%TO.C,C8*%
X133488748Y-106235000D02*
X134011252Y-106235000D01*
X133488748Y-104765000D02*
X134011252Y-104765000D01*
%TO.C,Q2*%
X117250000Y-88190000D02*
X117900000Y-88190000D01*
X117250000Y-91310000D02*
X116600000Y-91310000D01*
X117250000Y-91310000D02*
X118925000Y-91310000D01*
X117250000Y-88190000D02*
X116600000Y-88190000D01*
%TO.C,R10*%
X119515000Y-93022936D02*
X119515000Y-93477064D01*
X120985000Y-93022936D02*
X120985000Y-93477064D01*
%TO.C,C4*%
X170985000Y-102261252D02*
X170985000Y-101738748D01*
X169515000Y-102261252D02*
X169515000Y-101738748D01*
%TO.C,R13*%
X113515000Y-89522936D02*
X113515000Y-89977064D01*
X114985000Y-89522936D02*
X114985000Y-89977064D01*
%TO.C,R16*%
X114985000Y-103227064D02*
X114985000Y-102772936D01*
X113515000Y-103227064D02*
X113515000Y-102772936D01*
%TO.C,R4*%
X168985000Y-93272936D02*
X168985000Y-93727064D01*
X167515000Y-93272936D02*
X167515000Y-93727064D01*
%TO.C,R11*%
X119515000Y-99272936D02*
X119515000Y-99727064D01*
X120985000Y-99272936D02*
X120985000Y-99727064D01*
%TD*%
%LPC*%
D13*
%TO.C,C6*%
X150500000Y-96700000D03*
X150500000Y-94800000D03*
%TD*%
D14*
%TO.C,R14*%
X114250000Y-94162500D03*
X114250000Y-92337500D03*
%TD*%
D15*
%TO.C,R8*%
X120250000Y-82675000D03*
X120250000Y-84500000D03*
%TD*%
D16*
%TO.C,H4*%
X177750000Y-108500000D03*
%TD*%
D17*
%TO.C,R6*%
X119162500Y-108500000D03*
X117337500Y-108500000D03*
%TD*%
D18*
%TO.C,U3*%
X147875000Y-89200000D03*
D19*
X145335000Y-89200000D03*
X142795000Y-89200000D03*
X140255000Y-89200000D03*
X137715000Y-89200000D03*
X135175000Y-89200000D03*
X132635000Y-89200000D03*
X132635000Y-96820000D03*
X135175000Y-96820000D03*
X137715000Y-96820000D03*
X140255000Y-96820000D03*
X142795000Y-96820000D03*
X145335000Y-96820000D03*
X147875000Y-96820000D03*
%TD*%
D20*
%TO.C,J1*%
X173650000Y-90110000D03*
X173650000Y-95890000D03*
D21*
X172205000Y-96250000D03*
X172205000Y-95450000D03*
D22*
X172205000Y-94250000D03*
X172205000Y-93250000D03*
X172205000Y-92750000D03*
X172205000Y-91750000D03*
D21*
X172205000Y-90550000D03*
X172205000Y-89750000D03*
X172205000Y-89750000D03*
X172205000Y-90550000D03*
D22*
X172205000Y-91250000D03*
X172205000Y-92250000D03*
X172205000Y-93750000D03*
X172205000Y-94750000D03*
D21*
X172205000Y-95450000D03*
X172205000Y-96250000D03*
D23*
X177300000Y-97320000D03*
X177300000Y-88680000D03*
D24*
X173120000Y-97320000D03*
X173120000Y-88680000D03*
%TD*%
D25*
%TO.C,C1*%
X175750000Y-100300000D03*
X175750000Y-102200000D03*
%TD*%
%TO.C,C3*%
X165000000Y-97550000D03*
X165000000Y-99450000D03*
%TD*%
D15*
%TO.C,R5*%
X177000000Y-83337500D03*
X177000000Y-85162500D03*
%TD*%
D26*
%TO.C,Q1*%
X118187500Y-84537500D03*
X118187500Y-82637500D03*
X116312500Y-83587500D03*
%TD*%
D15*
%TO.C,R1*%
X168250000Y-99337500D03*
X168250000Y-101162500D03*
%TD*%
D27*
%TO.C,U4*%
X144060000Y-86775000D03*
X142790000Y-86775000D03*
X141520000Y-86775000D03*
X140250000Y-86775000D03*
X138980000Y-86775000D03*
X137710000Y-86775000D03*
X136440000Y-86775000D03*
X136440000Y-91725000D03*
X137710000Y-91725000D03*
X138980000Y-91725000D03*
X140250000Y-91725000D03*
X141520000Y-91725000D03*
X142790000Y-91725000D03*
X144060000Y-91725000D03*
%TD*%
D28*
%TO.C,J2*%
X168650000Y-96750000D03*
D29*
X167380000Y-96750000D03*
%TD*%
D30*
%TO.C,R17*%
X123837500Y-81000000D03*
X125662500Y-81000000D03*
%TD*%
D26*
%TO.C,Q3*%
X118187500Y-94200000D03*
X118187500Y-92300000D03*
X116312500Y-93250000D03*
%TD*%
%TO.C,Q5*%
X118187500Y-103950000D03*
X118187500Y-102050000D03*
X116312500Y-103000000D03*
%TD*%
D31*
%TO.C,C7*%
X170050000Y-80500000D03*
X171950000Y-80500000D03*
%TD*%
D14*
%TO.C,R2*%
X168250000Y-86662500D03*
X168250000Y-84837500D03*
%TD*%
D32*
%TO.C,U2*%
X172050000Y-102387500D03*
X173000000Y-102387500D03*
X173950000Y-102387500D03*
X173950000Y-100112500D03*
X172050000Y-100112500D03*
%TD*%
D16*
%TO.C,H1*%
X102750000Y-77500000D03*
%TD*%
D17*
%TO.C,R3*%
X174412500Y-104250000D03*
X172587500Y-104250000D03*
%TD*%
D33*
%TO.C,U1*%
X165195000Y-90425000D03*
X163925000Y-90425000D03*
X162655000Y-90425000D03*
X161385000Y-90425000D03*
X160115000Y-90425000D03*
X158845000Y-90425000D03*
X157575000Y-90425000D03*
X156305000Y-90425000D03*
X156305000Y-95575000D03*
X157575000Y-95575000D03*
X158845000Y-95575000D03*
X160115000Y-95575000D03*
X161385000Y-95575000D03*
X162655000Y-95575000D03*
X163925000Y-95575000D03*
X165195000Y-95575000D03*
%TD*%
D26*
%TO.C,Q4*%
X118187500Y-100450000D03*
X118187500Y-98550000D03*
X116312500Y-99500000D03*
%TD*%
D15*
%TO.C,R12*%
X120250000Y-102087500D03*
X120250000Y-103912500D03*
%TD*%
D16*
%TO.C,H2*%
X177750000Y-77500000D03*
%TD*%
D14*
%TO.C,R7*%
X166250000Y-82162500D03*
X166250000Y-80337500D03*
%TD*%
D34*
%TO.C,C9*%
X139700000Y-105500000D03*
X137800000Y-105500000D03*
%TD*%
D15*
%TO.C,R15*%
X114250000Y-98587500D03*
X114250000Y-100412500D03*
%TD*%
D34*
%TO.C,C2*%
X163200000Y-98000000D03*
X161300000Y-98000000D03*
%TD*%
D35*
%TO.C,SW1*%
X170925000Y-85325000D03*
X175075000Y-85325000D03*
X170925000Y-83175000D03*
X175075000Y-83175000D03*
%TD*%
D15*
%TO.C,R9*%
X120250000Y-88837500D03*
X120250000Y-90662500D03*
%TD*%
D36*
%TO.C,D1*%
X122812500Y-108500000D03*
X124687500Y-108500000D03*
%TD*%
D25*
%TO.C,C5*%
X168250000Y-80300000D03*
X168250000Y-82200000D03*
%TD*%
D31*
%TO.C,C8*%
X132800000Y-105500000D03*
X134700000Y-105500000D03*
%TD*%
D26*
%TO.C,Q2*%
X118187500Y-90700000D03*
X118187500Y-88800000D03*
X116312500Y-89750000D03*
%TD*%
D15*
%TO.C,R10*%
X120250000Y-92337500D03*
X120250000Y-94162500D03*
%TD*%
D13*
%TO.C,C4*%
X170250000Y-102950000D03*
X170250000Y-101050000D03*
%TD*%
D15*
%TO.C,R13*%
X114250000Y-88837500D03*
X114250000Y-90662500D03*
%TD*%
D14*
%TO.C,R16*%
X114250000Y-103912500D03*
X114250000Y-102087500D03*
%TD*%
D15*
%TO.C,R4*%
X168250000Y-92587500D03*
X168250000Y-94412500D03*
%TD*%
D16*
%TO.C,H3*%
X102750000Y-108500000D03*
%TD*%
D15*
%TO.C,R11*%
X120250000Y-98587500D03*
X120250000Y-100412500D03*
%TD*%
D37*
%TO.C,J4*%
X131170000Y-108500000D03*
D38*
X133710000Y-108500000D03*
X136250000Y-108500000D03*
X138790000Y-108500000D03*
X141330000Y-108500000D03*
X143870000Y-108500000D03*
X146410000Y-108500000D03*
X148950000Y-108500000D03*
X151490000Y-108500000D03*
X154030000Y-108500000D03*
X156570000Y-108500000D03*
X159110000Y-108500000D03*
X161650000Y-108500000D03*
X164190000Y-108500000D03*
X166730000Y-108500000D03*
X169270000Y-108500000D03*
%TD*%
D37*
%TO.C,J3*%
X172250000Y-77500000D03*
D38*
X169710000Y-77500000D03*
X167170000Y-77500000D03*
X164630000Y-77500000D03*
X162090000Y-77500000D03*
X159550000Y-77500000D03*
X157010000Y-77500000D03*
X154470000Y-77500000D03*
X151930000Y-77500000D03*
X149390000Y-77500000D03*
X146850000Y-77500000D03*
X144310000Y-77500000D03*
X141770000Y-77500000D03*
X139230000Y-77500000D03*
X136690000Y-77500000D03*
X134150000Y-77500000D03*
X131610000Y-77500000D03*
X129070000Y-77500000D03*
%TD*%
M02*
