%TF.GenerationSoftware,KiCad,Pcbnew,6.0.2+dfsg-1*%
%TF.CreationDate,2026-02-14T00:21:06+01:00*%
%TF.ProjectId,1602_display_usb_controller,31363032-5f64-4697-9370-6c61795f7573,rev?*%
%TF.SameCoordinates,Original*%
%TF.FileFunction,Copper,L2,Bot*%
%TF.FilePolarity,Positive*%
%FSLAX46Y46*%
G04 Gerber Fmt 4.6, Leading zero omitted, Abs format (unit mm)*
G04 Created by KiCad (PCBNEW 6.0.2+dfsg-1) date 2026-02-14 00:21:06*
%MOMM*%
%LPD*%
G01*
G04 APERTURE LIST*
%TA.AperFunction,ComponentPad*%
%ADD10R,1.600000X1.600000*%
%TD*%
%TA.AperFunction,ComponentPad*%
%ADD11O,1.600000X1.600000*%
%TD*%
%TA.AperFunction,ComponentPad*%
%ADD12O,1.600000X1.000000*%
%TD*%
%TA.AperFunction,ComponentPad*%
%ADD13O,2.100000X1.000000*%
%TD*%
%TA.AperFunction,ComponentPad*%
%ADD14R,1.000000X1.000000*%
%TD*%
%TA.AperFunction,ComponentPad*%
%ADD15O,1.000000X1.000000*%
%TD*%
%TA.AperFunction,ComponentPad*%
%ADD16R,1.700000X1.700000*%
%TD*%
%TA.AperFunction,ComponentPad*%
%ADD17O,1.700000X1.700000*%
%TD*%
%TA.AperFunction,ViaPad*%
%ADD18C,0.800000*%
%TD*%
%TA.AperFunction,Conductor*%
%ADD19C,0.600000*%
%TD*%
%TA.AperFunction,Conductor*%
%ADD20C,0.400000*%
%TD*%
G04 APERTURE END LIST*
D10*
%TO.P,U3,1,A*%
%TO.N,/LCD_DATA*%
X147875000Y-89200000D03*
D11*
%TO.P,U3,2,B*%
X145335000Y-89200000D03*
%TO.P,U3,3,Qa*%
%TO.N,/LCD_DB0*%
X142795000Y-89200000D03*
%TO.P,U3,4,Qb*%
%TO.N,/LCD_DB1*%
X140255000Y-89200000D03*
%TO.P,U3,5,Qc*%
%TO.N,/LCD_DB2*%
X137715000Y-89200000D03*
%TO.P,U3,6,Qd*%
%TO.N,/LCD_DB3*%
X135175000Y-89200000D03*
%TO.P,U3,7,Vss*%
%TO.N,GND*%
X132635000Y-89200000D03*
%TO.P,U3,8,CK*%
%TO.N,/LCD_CLK*%
X132635000Y-96820000D03*
%TO.P,U3,9,~{R}*%
%TO.N,+5V*%
X135175000Y-96820000D03*
%TO.P,U3,10,Qe*%
%TO.N,/LCD_DB4*%
X137715000Y-96820000D03*
%TO.P,U3,11,Qf*%
%TO.N,/LCD_DB5*%
X140255000Y-96820000D03*
%TO.P,U3,12,Qg*%
%TO.N,/LCD_DB6*%
X142795000Y-96820000D03*
%TO.P,U3,13,Qh*%
%TO.N,/LCD_DB7*%
X145335000Y-96820000D03*
%TO.P,U3,14,Vdd*%
%TO.N,+5V*%
X147875000Y-96820000D03*
%TD*%
D12*
%TO.P,J1,S1,SHIELD*%
%TO.N,GND*%
X177300000Y-97320000D03*
X177300000Y-88680000D03*
D13*
X173120000Y-97320000D03*
X173120000Y-88680000D03*
%TD*%
D14*
%TO.P,J2,1,Pin_1*%
%TO.N,Net-(J2-Pad1)*%
X168650000Y-96750000D03*
D15*
%TO.P,J2,2,Pin_2*%
%TO.N,+3V3*%
X167380000Y-96750000D03*
%TD*%
D16*
%TO.P,J4,1,Pin_1*%
%TO.N,+5V*%
X131170000Y-108500000D03*
D17*
%TO.P,J4,2,Pin_2*%
%TO.N,/LCD_R*%
X133710000Y-108500000D03*
%TO.P,J4,3,Pin_3*%
%TO.N,GND*%
X136250000Y-108500000D03*
%TO.P,J4,4,Pin_4*%
%TO.N,+5V*%
X138790000Y-108500000D03*
%TO.P,J4,5,Pin_5*%
%TO.N,/LCD_V0*%
X141330000Y-108500000D03*
%TO.P,J4,6,Pin_6*%
%TO.N,/LCD_RS*%
X143870000Y-108500000D03*
%TO.P,J4,7,Pin_7*%
%TO.N,GND*%
X146410000Y-108500000D03*
%TO.P,J4,8,Pin_8*%
%TO.N,/LCD_E*%
X148950000Y-108500000D03*
%TO.P,J4,9,Pin_9*%
%TO.N,/LCD_DB0*%
X151490000Y-108500000D03*
%TO.P,J4,10,Pin_10*%
%TO.N,/LCD_DB1*%
X154030000Y-108500000D03*
%TO.P,J4,11,Pin_11*%
%TO.N,/LCD_DB2*%
X156570000Y-108500000D03*
%TO.P,J4,12,Pin_12*%
%TO.N,/LCD_DB3*%
X159110000Y-108500000D03*
%TO.P,J4,13,Pin_13*%
%TO.N,/LCD_DB4*%
X161650000Y-108500000D03*
%TO.P,J4,14,Pin_14*%
%TO.N,/LCD_DB5*%
X164190000Y-108500000D03*
%TO.P,J4,15,Pin_15*%
%TO.N,/LCD_DB6*%
X166730000Y-108500000D03*
%TO.P,J4,16,Pin_16*%
%TO.N,/LCD_DB7*%
X169270000Y-108500000D03*
%TD*%
D16*
%TO.P,J3,1,Pin_1*%
%TO.N,GND*%
X172250000Y-77500000D03*
D17*
%TO.P,J3,2,Pin_2*%
%TO.N,+5V*%
X169710000Y-77500000D03*
%TO.P,J3,3,Pin_3*%
%TO.N,/LCD_V0*%
X167170000Y-77500000D03*
%TO.P,J3,4,Pin_4*%
%TO.N,/LCD_RS*%
X164630000Y-77500000D03*
%TO.P,J3,5,Pin_5*%
%TO.N,GND*%
X162090000Y-77500000D03*
%TO.P,J3,6,Pin_6*%
%TO.N,/LCD_E*%
X159550000Y-77500000D03*
%TO.P,J3,7,Pin_7*%
%TO.N,/LCD_DB0*%
X157010000Y-77500000D03*
%TO.P,J3,8,Pin_8*%
%TO.N,/LCD_DB1*%
X154470000Y-77500000D03*
%TO.P,J3,9,Pin_9*%
%TO.N,/LCD_DB2*%
X151930000Y-77500000D03*
%TO.P,J3,10,Pin_10*%
%TO.N,/LCD_DB3*%
X149390000Y-77500000D03*
%TO.P,J3,11,Pin_11*%
%TO.N,/LCD_DB4*%
X146850000Y-77500000D03*
%TO.P,J3,12,Pin_12*%
%TO.N,/LCD_DB5*%
X144310000Y-77500000D03*
%TO.P,J3,13,Pin_13*%
%TO.N,/LCD_DB6*%
X141770000Y-77500000D03*
%TO.P,J3,14,Pin_14*%
%TO.N,/LCD_DB7*%
X139230000Y-77500000D03*
%TO.P,J3,15,Pin_15*%
%TO.N,+5V*%
X136690000Y-77500000D03*
%TO.P,J3,16,Pin_16*%
%TO.N,/LCD_R*%
X134150000Y-77500000D03*
%TO.P,J3,17,Pin_17*%
%TO.N,/LCD_G*%
X131610000Y-77500000D03*
%TO.P,J3,18,Pin_18*%
%TO.N,/LCD_B*%
X129070000Y-77500000D03*
%TD*%
D18*
%TO.N,GND*%
X116000000Y-108500000D03*
X139750000Y-81500000D03*
X116500000Y-101500000D03*
X168250000Y-83500000D03*
X170250000Y-100000000D03*
X171500000Y-104250000D03*
X131750000Y-81500000D03*
X170750000Y-97000000D03*
X116500000Y-91750000D03*
X154750000Y-87000000D03*
X170500000Y-89000000D03*
X161000000Y-81500000D03*
X169000000Y-106000000D03*
X118250000Y-81587500D03*
X116500000Y-88250000D03*
X160250000Y-98000000D03*
X156000000Y-81500000D03*
X166250000Y-100250000D03*
X134000000Y-98750000D03*
X175750000Y-103250000D03*
X150500000Y-93750000D03*
X116500000Y-98000000D03*
X150500000Y-89250000D03*
%TO.N,/LCD_RS*%
X165000000Y-87500000D03*
%TO.N,/LCD_E*%
X164000000Y-88500000D03*
%TO.N,/LCD_DB0*%
X127000000Y-85750000D03*
%TO.N,/LCD_DB1*%
X127500000Y-87000000D03*
%TO.N,/LCD_DB2*%
X128000000Y-88250000D03*
%TO.N,/LCD_DB3*%
X128500000Y-89500000D03*
%TO.N,/LCD_DB4*%
X132000000Y-95049500D03*
%TO.N,/LCD_DB5*%
X130500000Y-95000000D03*
%TO.N,/LCD_DB6*%
X129750000Y-94000000D03*
%TO.N,/LCD_DB7*%
X129000000Y-93000000D03*
%TO.N,/LCD_R*%
X131000000Y-104000000D03*
%TO.N,/RST*%
X159000000Y-84750000D03*
X166250000Y-84750000D03*
%TO.N,/LCD_CLK*%
X145250000Y-92500000D03*
X135500000Y-92000000D03*
%TO.N,/CONTRAST*%
X157500000Y-84750000D03*
X166250000Y-83250000D03*
%TO.N,/R_PWM*%
X121750000Y-82750000D03*
X147000000Y-85250000D03*
%TO.N,/G1*%
X121750000Y-88750000D03*
X145500000Y-85250000D03*
%TO.N,/G0*%
X121750000Y-92500000D03*
X148500000Y-99750000D03*
%TO.N,/B1*%
X148250000Y-101250000D03*
X122000000Y-98750000D03*
%TO.N,/B0*%
X147000000Y-101750000D03*
X122000000Y-102250000D03*
%TD*%
D19*
%TO.N,+5V*%
X150750000Y-102000000D02*
X148500000Y-104250000D01*
X138790000Y-106210000D02*
X138790000Y-108500000D01*
X140750000Y-104250000D02*
X138790000Y-106210000D01*
X149070000Y-96820000D02*
X150750000Y-98500000D01*
X148500000Y-104250000D02*
X140750000Y-104250000D01*
D20*
X136605000Y-98250000D02*
X146445000Y-98250000D01*
D19*
X150750000Y-98500000D02*
X150750000Y-102000000D01*
D20*
X135175000Y-96820000D02*
X136605000Y-98250000D01*
X146445000Y-98250000D02*
X147875000Y-96820000D01*
D19*
X147875000Y-96820000D02*
X149070000Y-96820000D01*
D20*
%TO.N,/LCD_V0*%
X143429520Y-106400480D02*
X149353820Y-106400480D01*
X141330000Y-108500000D02*
X143429520Y-106400480D01*
X165670000Y-79000000D02*
X167170000Y-77500000D01*
X149353820Y-106400480D02*
X153550960Y-102203340D01*
X160500000Y-79000000D02*
X165670000Y-79000000D01*
X153550960Y-85949040D02*
X160500000Y-79000000D01*
X153550960Y-102203340D02*
X153550960Y-85949040D01*
%TO.N,/LCD_RS*%
X163250000Y-87500000D02*
X165000000Y-87500000D01*
X145370000Y-107000000D02*
X149602150Y-107000000D01*
X149602150Y-107000000D02*
X154150480Y-102451670D01*
X154150480Y-102451670D02*
X154150480Y-89501670D01*
X162849520Y-87900480D02*
X163250000Y-87500000D01*
X154150480Y-89501670D02*
X155751671Y-87900480D01*
X155751671Y-87900480D02*
X162849520Y-87900480D01*
X143870000Y-108500000D02*
X145370000Y-107000000D01*
%TO.N,/LCD_E*%
X154750000Y-102700000D02*
X154750000Y-89750000D01*
X154750000Y-89750000D02*
X156000000Y-88500000D01*
X156000000Y-88500000D02*
X164000000Y-88500000D01*
X148950000Y-108500000D02*
X154750000Y-102700000D01*
%TO.N,/LCD_DB0*%
X127250000Y-85500000D02*
X139095000Y-85500000D01*
X139095000Y-85500000D02*
X142795000Y-89200000D01*
X127000000Y-85750000D02*
X127250000Y-85500000D01*
%TO.N,/LCD_DB1*%
X128250000Y-86250000D02*
X137305000Y-86250000D01*
X137305000Y-86250000D02*
X140255000Y-89200000D01*
X127500000Y-87000000D02*
X128250000Y-86250000D01*
%TO.N,/LCD_DB2*%
X128000000Y-88250000D02*
X129250000Y-87000000D01*
X135515000Y-87000000D02*
X137715000Y-89200000D01*
X129250000Y-87000000D02*
X135515000Y-87000000D01*
%TO.N,/LCD_DB3*%
X133725000Y-87750000D02*
X135175000Y-89200000D01*
X130250000Y-87750000D02*
X133725000Y-87750000D01*
X128500000Y-89500000D02*
X130250000Y-87750000D01*
%TO.N,/LCD_DB4*%
X132000000Y-95049500D02*
X132049500Y-95000000D01*
X132049500Y-95000000D02*
X135895000Y-95000000D01*
X135895000Y-95000000D02*
X137715000Y-96820000D01*
%TO.N,/LCD_DB5*%
X137685000Y-94250000D02*
X140255000Y-96820000D01*
X130500000Y-95000000D02*
X131250000Y-94250000D01*
X131250000Y-94250000D02*
X137685000Y-94250000D01*
%TO.N,/LCD_DB6*%
X129750000Y-94000000D02*
X130099520Y-93650480D01*
X130099520Y-93650480D02*
X139625480Y-93650480D01*
X139625480Y-93650480D02*
X142795000Y-96820000D01*
%TO.N,/LCD_DB7*%
X129000000Y-93000000D02*
X129050960Y-93050960D01*
X129050960Y-93050960D02*
X141565960Y-93050960D01*
X141565960Y-93050960D02*
X145335000Y-96820000D01*
D19*
%TO.N,/LCD_R*%
X131000000Y-104000000D02*
X133710000Y-106710000D01*
X133710000Y-106710000D02*
X133710000Y-108500000D01*
D20*
%TO.N,/RST*%
X166250000Y-84750000D02*
X165500000Y-84000000D01*
X159750000Y-84000000D02*
X159000000Y-84750000D01*
X165500000Y-84000000D02*
X159750000Y-84000000D01*
%TO.N,/LCD_CLK*%
X145201440Y-92451440D02*
X135951440Y-92451440D01*
X145250000Y-92500000D02*
X145201440Y-92451440D01*
X135951440Y-92451440D02*
X135500000Y-92000000D01*
%TO.N,/CONTRAST*%
X166250000Y-83250000D02*
X159000000Y-83250000D01*
X159000000Y-83250000D02*
X157500000Y-84750000D01*
%TO.N,/R_PWM*%
X147000000Y-85250000D02*
X145900480Y-84150480D01*
X123150480Y-84150480D02*
X121750000Y-82750000D01*
X145900480Y-84150480D02*
X123150480Y-84150480D01*
%TO.N,/G1*%
X145000000Y-84750000D02*
X125750000Y-84750000D01*
X125750000Y-84750000D02*
X121750000Y-88750000D01*
X145500000Y-85250000D02*
X145000000Y-84750000D01*
%TO.N,/G0*%
X148250000Y-100000000D02*
X125000000Y-100000000D01*
X148500000Y-99750000D02*
X148250000Y-100000000D01*
X125000000Y-100000000D02*
X121750000Y-96750000D01*
X121750000Y-96750000D02*
X121750000Y-92500000D01*
%TO.N,/B1*%
X147650480Y-100650480D02*
X124400480Y-100650480D01*
X148250000Y-101250000D02*
X147650480Y-100650480D01*
X124400480Y-100650480D02*
X122500000Y-98750000D01*
X122500000Y-98750000D02*
X122000000Y-98750000D01*
%TO.N,/B0*%
X123000000Y-101250000D02*
X122000000Y-102250000D01*
X146500000Y-101250000D02*
X123000000Y-101250000D01*
X147000000Y-101750000D02*
X146500000Y-101250000D01*
%TD*%
%TA.AperFunction,Conductor*%
%TO.N,GND*%
G36*
X179909191Y-75318907D02*
G01*
X179945155Y-75368407D01*
X179950000Y-75399000D01*
X179950000Y-110601000D01*
X179931093Y-110659191D01*
X179881593Y-110695155D01*
X179851000Y-110700000D01*
X100649000Y-110700000D01*
X100590809Y-110681093D01*
X100554845Y-110631593D01*
X100550000Y-110601000D01*
X100550000Y-108555338D01*
X101165324Y-108555338D01*
X101165781Y-108559286D01*
X101165781Y-108559291D01*
X101190627Y-108774028D01*
X101194556Y-108807986D01*
X101195636Y-108811804D01*
X101195637Y-108811807D01*
X101262724Y-109048887D01*
X101263806Y-109052710D01*
X101265484Y-109056309D01*
X101265485Y-109056311D01*
X101277193Y-109081418D01*
X101371292Y-109283215D01*
X101373527Y-109286504D01*
X101373530Y-109286509D01*
X101451686Y-109401511D01*
X101514249Y-109493569D01*
X101610910Y-109595786D01*
X101665815Y-109653846D01*
X101688998Y-109678362D01*
X101692152Y-109680773D01*
X101692156Y-109680777D01*
X101746150Y-109722058D01*
X101891045Y-109832838D01*
X101894549Y-109834717D01*
X101894554Y-109834720D01*
X102022050Y-109903082D01*
X102115190Y-109953023D01*
X102355667Y-110035826D01*
X102546939Y-110068864D01*
X102603214Y-110078585D01*
X102603216Y-110078585D01*
X102606289Y-110079116D01*
X102629698Y-110080179D01*
X102635662Y-110080450D01*
X102635668Y-110080450D01*
X102636766Y-110080500D01*
X102813910Y-110080500D01*
X102815884Y-110080341D01*
X102815888Y-110080341D01*
X102999554Y-110065564D01*
X102999559Y-110065563D01*
X103003514Y-110065245D01*
X103007374Y-110064297D01*
X103246640Y-110005528D01*
X103246645Y-110005526D01*
X103250506Y-110004578D01*
X103254167Y-110003024D01*
X103254170Y-110003023D01*
X103480959Y-109906757D01*
X103480961Y-109906756D01*
X103484622Y-109905202D01*
X103699837Y-109769673D01*
X103825271Y-109659088D01*
X103887632Y-109604109D01*
X103887633Y-109604108D01*
X103890615Y-109601479D01*
X103954953Y-109523153D01*
X104049526Y-109408019D01*
X104049528Y-109408016D01*
X104052049Y-109404947D01*
X104058045Y-109394646D01*
X130019500Y-109394646D01*
X130022618Y-109420846D01*
X130068061Y-109523153D01*
X130074529Y-109529610D01*
X130074530Y-109529611D01*
X130101964Y-109556997D01*
X130147287Y-109602241D01*
X130155645Y-109605936D01*
X130242864Y-109644496D01*
X130242866Y-109644496D01*
X130249673Y-109647506D01*
X130257067Y-109648368D01*
X130272378Y-109650153D01*
X130275354Y-109650500D01*
X132064646Y-109650500D01*
X132082561Y-109648368D01*
X132083469Y-109648260D01*
X132083470Y-109648260D01*
X132090846Y-109647382D01*
X132193153Y-109601939D01*
X132272241Y-109522713D01*
X132298334Y-109463692D01*
X132314496Y-109427136D01*
X132314496Y-109427134D01*
X132317506Y-109420327D01*
X132320500Y-109394646D01*
X132320500Y-107605354D01*
X132317382Y-107579154D01*
X132271939Y-107476847D01*
X132265325Y-107470244D01*
X132212650Y-107417661D01*
X132192713Y-107397759D01*
X132159721Y-107383173D01*
X132097136Y-107355504D01*
X132097134Y-107355504D01*
X132090327Y-107352494D01*
X132076157Y-107350842D01*
X132067494Y-107349832D01*
X132067493Y-107349832D01*
X132064646Y-107349500D01*
X130275354Y-107349500D01*
X130258951Y-107351452D01*
X130256531Y-107351740D01*
X130256530Y-107351740D01*
X130249154Y-107352618D01*
X130146847Y-107398061D01*
X130067759Y-107477287D01*
X130057490Y-107500514D01*
X130027254Y-107568907D01*
X130022494Y-107579673D01*
X130019500Y-107605354D01*
X130019500Y-109394646D01*
X104058045Y-109394646D01*
X104177980Y-109188576D01*
X104179984Y-109185133D01*
X104181413Y-109181411D01*
X104269702Y-108951411D01*
X104269704Y-108951404D01*
X104271129Y-108947692D01*
X104301140Y-108804039D01*
X104322325Y-108702632D01*
X104322326Y-108702628D01*
X104323139Y-108698734D01*
X104334676Y-108444662D01*
X104319928Y-108317190D01*
X104305901Y-108195961D01*
X104305900Y-108195957D01*
X104305444Y-108192014D01*
X104300764Y-108175473D01*
X104237276Y-107951113D01*
X104237275Y-107951111D01*
X104236194Y-107947290D01*
X104212413Y-107896290D01*
X104130390Y-107720392D01*
X104128708Y-107716785D01*
X104126473Y-107713496D01*
X104126470Y-107713491D01*
X103995206Y-107520344D01*
X103985751Y-107506431D01*
X103811002Y-107321638D01*
X103807848Y-107319227D01*
X103807844Y-107319223D01*
X103688799Y-107228207D01*
X103608955Y-107167162D01*
X103605451Y-107165283D01*
X103605446Y-107165280D01*
X103388316Y-107048857D01*
X103388317Y-107048857D01*
X103384810Y-107046977D01*
X103144333Y-106964174D01*
X102944976Y-106929739D01*
X102896786Y-106921415D01*
X102896784Y-106921415D01*
X102893711Y-106920884D01*
X102870302Y-106919821D01*
X102864338Y-106919550D01*
X102864332Y-106919550D01*
X102863234Y-106919500D01*
X102686090Y-106919500D01*
X102684116Y-106919659D01*
X102684112Y-106919659D01*
X102500446Y-106934436D01*
X102500441Y-106934437D01*
X102496486Y-106934755D01*
X102492627Y-106935703D01*
X102492626Y-106935703D01*
X102253360Y-106994472D01*
X102253355Y-106994474D01*
X102249494Y-106995422D01*
X102245833Y-106996976D01*
X102245830Y-106996977D01*
X102073836Y-107069984D01*
X102015378Y-107094798D01*
X101800163Y-107230327D01*
X101732881Y-107289644D01*
X101665667Y-107348902D01*
X101609385Y-107398521D01*
X101606860Y-107401595D01*
X101454511Y-107587067D01*
X101447951Y-107595053D01*
X101445952Y-107598487D01*
X101445951Y-107598489D01*
X101440287Y-107608221D01*
X101320016Y-107814867D01*
X101318588Y-107818586D01*
X101318587Y-107818589D01*
X101230298Y-108048589D01*
X101230296Y-108048596D01*
X101228871Y-108052308D01*
X101228058Y-108056200D01*
X101228057Y-108056203D01*
X101178052Y-108295566D01*
X101176861Y-108301266D01*
X101165324Y-108555338D01*
X100550000Y-108555338D01*
X100550000Y-103992611D01*
X130294394Y-103992611D01*
X130312999Y-104161135D01*
X130371266Y-104320356D01*
X130465830Y-104461083D01*
X130591233Y-104575191D01*
X130596482Y-104578041D01*
X130732581Y-104651936D01*
X130740235Y-104656092D01*
X130788842Y-104668844D01*
X130804623Y-104672984D01*
X130849504Y-104698739D01*
X133080504Y-106929739D01*
X133108281Y-106984256D01*
X133109500Y-106999743D01*
X133109500Y-107462153D01*
X133090593Y-107520344D01*
X133061118Y-107547234D01*
X133030856Y-107565238D01*
X133027441Y-107568233D01*
X133027438Y-107568235D01*
X133000361Y-107591981D01*
X132871881Y-107704655D01*
X132869073Y-107708217D01*
X132746456Y-107863757D01*
X132740976Y-107870708D01*
X132738862Y-107874726D01*
X132659161Y-108026213D01*
X132642523Y-108057836D01*
X132641179Y-108062165D01*
X132583929Y-108246541D01*
X132579820Y-108259773D01*
X132579286Y-108264283D01*
X132579286Y-108264284D01*
X132574899Y-108301354D01*
X132554967Y-108469754D01*
X132568796Y-108680749D01*
X132569912Y-108685142D01*
X132569912Y-108685144D01*
X132592486Y-108774028D01*
X132620845Y-108885690D01*
X132622747Y-108889815D01*
X132622747Y-108889816D01*
X132696080Y-109048887D01*
X132709369Y-109077714D01*
X132831405Y-109250391D01*
X132982865Y-109397937D01*
X132986638Y-109400458D01*
X133154899Y-109512887D01*
X133154902Y-109512889D01*
X133158677Y-109515411D01*
X133255472Y-109556997D01*
X133348774Y-109597083D01*
X133348778Y-109597084D01*
X133352953Y-109598878D01*
X133376071Y-109604109D01*
X133554760Y-109644543D01*
X133554765Y-109644544D01*
X133559186Y-109645544D01*
X133664828Y-109649695D01*
X133765937Y-109653668D01*
X133765938Y-109653668D01*
X133770470Y-109653846D01*
X133979730Y-109623504D01*
X133984029Y-109622045D01*
X133984032Y-109622044D01*
X134175654Y-109556997D01*
X134179955Y-109555537D01*
X134227021Y-109529179D01*
X134296490Y-109490274D01*
X134364442Y-109452219D01*
X134527012Y-109317012D01*
X134662219Y-109154442D01*
X134765537Y-108969955D01*
X134833504Y-108769730D01*
X134834156Y-108765233D01*
X134834275Y-108764738D01*
X134866242Y-108712568D01*
X134922769Y-108689151D01*
X134982264Y-108703433D01*
X135022003Y-108749957D01*
X135026167Y-108762223D01*
X135069779Y-108924985D01*
X135072725Y-108933078D01*
X135161503Y-109123462D01*
X135165815Y-109130932D01*
X135286308Y-109303013D01*
X135291841Y-109309608D01*
X135440392Y-109458159D01*
X135446987Y-109463692D01*
X135619067Y-109584185D01*
X135626537Y-109588497D01*
X135816922Y-109677275D01*
X135825015Y-109680221D01*
X135980855Y-109721978D01*
X135993141Y-109721334D01*
X135996000Y-109711683D01*
X135996000Y-107289644D01*
X135992198Y-107277942D01*
X135982136Y-107277679D01*
X135825015Y-107319779D01*
X135816922Y-107322725D01*
X135626538Y-107411503D01*
X135619068Y-107415815D01*
X135446987Y-107536308D01*
X135440392Y-107541841D01*
X135291841Y-107690392D01*
X135286308Y-107696987D01*
X135165815Y-107869068D01*
X135161503Y-107876538D01*
X135072725Y-108066922D01*
X135069779Y-108075015D01*
X135024513Y-108243949D01*
X134991189Y-108295263D01*
X134934067Y-108317190D01*
X134874967Y-108301354D01*
X134836462Y-108253804D01*
X134833607Y-108245209D01*
X134788686Y-108085931D01*
X134695165Y-107896290D01*
X134568651Y-107726867D01*
X134413381Y-107583337D01*
X134407574Y-107579673D01*
X134356672Y-107547556D01*
X134317548Y-107500514D01*
X134310500Y-107463829D01*
X134310500Y-106755849D01*
X134311347Y-106742927D01*
X134314835Y-106716433D01*
X134315682Y-106710000D01*
X134295044Y-106553238D01*
X134234536Y-106407159D01*
X134230590Y-106402017D01*
X134230588Y-106402013D01*
X134162450Y-106313215D01*
X134162449Y-106313213D01*
X134142233Y-106286866D01*
X134142229Y-106286862D01*
X134138282Y-106281718D01*
X134111936Y-106261502D01*
X134102199Y-106252964D01*
X131702995Y-103853760D01*
X131680390Y-103818750D01*
X131627454Y-103678659D01*
X131625345Y-103673077D01*
X131621470Y-103667438D01*
X131532692Y-103538267D01*
X131529312Y-103533349D01*
X131402721Y-103420560D01*
X131252881Y-103341224D01*
X131170661Y-103320572D01*
X131094231Y-103301373D01*
X131094228Y-103301373D01*
X131088441Y-103299919D01*
X131002841Y-103299471D01*
X130924861Y-103299062D01*
X130924859Y-103299062D01*
X130918895Y-103299031D01*
X130913099Y-103300423D01*
X130913095Y-103300423D01*
X130805703Y-103326207D01*
X130754032Y-103338612D01*
X130678701Y-103377493D01*
X130608675Y-103413636D01*
X130608673Y-103413638D01*
X130603369Y-103416375D01*
X130475604Y-103527831D01*
X130472173Y-103532713D01*
X130472172Y-103532714D01*
X130390689Y-103648653D01*
X130378113Y-103666547D01*
X130316524Y-103824513D01*
X130294394Y-103992611D01*
X100550000Y-103992611D01*
X100550000Y-92492611D01*
X121044394Y-92492611D01*
X121045049Y-92498544D01*
X121045049Y-92498548D01*
X121062344Y-92655204D01*
X121062999Y-92661135D01*
X121121266Y-92820356D01*
X121124591Y-92825305D01*
X121124592Y-92825306D01*
X121137689Y-92844796D01*
X121215830Y-92961083D01*
X121220244Y-92965099D01*
X121224145Y-92969619D01*
X121222253Y-92971252D01*
X121247442Y-93015408D01*
X121249500Y-93035488D01*
X121249500Y-96682834D01*
X121248081Y-96695535D01*
X121248103Y-96695537D01*
X121247537Y-96702569D01*
X121245981Y-96709447D01*
X121246418Y-96716485D01*
X121249310Y-96763102D01*
X121249500Y-96769233D01*
X121249500Y-96785940D01*
X121249999Y-96789427D01*
X121250000Y-96789435D01*
X121251101Y-96797121D01*
X121251911Y-96805024D01*
X121254859Y-96852538D01*
X121257252Y-96859167D01*
X121257253Y-96859171D01*
X121258342Y-96862187D01*
X121263223Y-96881763D01*
X121264677Y-96891918D01*
X121267596Y-96898337D01*
X121267597Y-96898342D01*
X121284381Y-96935257D01*
X121287377Y-96942615D01*
X121303540Y-96987387D01*
X121309592Y-96995672D01*
X121319768Y-97013086D01*
X121324016Y-97022428D01*
X121328621Y-97027772D01*
X121355093Y-97058495D01*
X121360033Y-97064716D01*
X121368522Y-97076336D01*
X121379986Y-97087800D01*
X121384981Y-97093181D01*
X121417600Y-97131037D01*
X121423520Y-97134874D01*
X121424811Y-97135711D01*
X121440968Y-97148782D01*
X122175147Y-97882961D01*
X122202924Y-97937478D01*
X122193353Y-97997910D01*
X122150088Y-98041175D01*
X122093171Y-98051107D01*
X122088441Y-98049919D01*
X122002031Y-98049466D01*
X121924861Y-98049062D01*
X121924859Y-98049062D01*
X121918895Y-98049031D01*
X121913099Y-98050423D01*
X121913095Y-98050423D01*
X121824399Y-98071718D01*
X121754032Y-98088612D01*
X121678701Y-98127493D01*
X121608675Y-98163636D01*
X121608673Y-98163638D01*
X121603369Y-98166375D01*
X121475604Y-98277831D01*
X121378113Y-98416547D01*
X121375945Y-98422108D01*
X121319688Y-98566399D01*
X121316524Y-98574513D01*
X121294394Y-98742611D01*
X121295049Y-98748544D01*
X121295049Y-98748548D01*
X121299597Y-98789743D01*
X121312999Y-98911135D01*
X121371266Y-99070356D01*
X121374591Y-99075305D01*
X121374592Y-99075306D01*
X121385374Y-99091351D01*
X121465830Y-99211083D01*
X121591233Y-99325191D01*
X121740235Y-99406092D01*
X121786224Y-99418157D01*
X121898464Y-99447603D01*
X121898468Y-99447604D01*
X121904233Y-99449116D01*
X121910194Y-99449210D01*
X121910197Y-99449210D01*
X121988965Y-99450447D01*
X122073760Y-99451779D01*
X122079575Y-99450447D01*
X122079577Y-99450447D01*
X122233206Y-99415262D01*
X122233209Y-99415261D01*
X122239029Y-99413928D01*
X122319562Y-99373424D01*
X122380043Y-99364168D01*
X122434049Y-99391863D01*
X123622682Y-100580496D01*
X123650459Y-100635013D01*
X123640888Y-100695445D01*
X123597623Y-100738710D01*
X123552678Y-100749500D01*
X123067166Y-100749500D01*
X123054465Y-100748081D01*
X123054463Y-100748103D01*
X123047431Y-100747537D01*
X123040553Y-100745981D01*
X122989393Y-100749155D01*
X122986898Y-100749310D01*
X122980767Y-100749500D01*
X122964060Y-100749500D01*
X122960573Y-100749999D01*
X122960565Y-100750000D01*
X122952879Y-100751101D01*
X122944976Y-100751911D01*
X122904499Y-100754422D01*
X122904496Y-100754423D01*
X122897462Y-100754859D01*
X122890833Y-100757252D01*
X122890829Y-100757253D01*
X122887813Y-100758342D01*
X122868237Y-100763223D01*
X122867045Y-100763394D01*
X122865064Y-100763677D01*
X122865063Y-100763677D01*
X122858082Y-100764677D01*
X122851663Y-100767596D01*
X122851658Y-100767597D01*
X122814743Y-100784381D01*
X122807385Y-100787377D01*
X122762613Y-100803540D01*
X122754328Y-100809592D01*
X122736914Y-100819768D01*
X122727572Y-100824016D01*
X122722228Y-100828621D01*
X122691505Y-100855093D01*
X122685284Y-100860033D01*
X122673664Y-100868522D01*
X122662200Y-100879986D01*
X122656819Y-100884981D01*
X122618963Y-100917600D01*
X122615126Y-100923520D01*
X122614289Y-100924811D01*
X122601218Y-100940968D01*
X122021979Y-101520207D01*
X121967462Y-101547984D01*
X121951460Y-101549202D01*
X121934652Y-101549114D01*
X121924860Y-101549062D01*
X121924858Y-101549062D01*
X121918895Y-101549031D01*
X121913099Y-101550423D01*
X121913095Y-101550423D01*
X121805703Y-101576207D01*
X121754032Y-101588612D01*
X121742051Y-101594796D01*
X121608675Y-101663636D01*
X121608673Y-101663638D01*
X121603369Y-101666375D01*
X121475604Y-101777831D01*
X121472173Y-101782713D01*
X121472172Y-101782714D01*
X121381544Y-101911665D01*
X121378113Y-101916547D01*
X121316524Y-102074513D01*
X121294394Y-102242611D01*
X121295049Y-102248544D01*
X121295049Y-102248548D01*
X121303825Y-102328041D01*
X121312999Y-102411135D01*
X121371266Y-102570356D01*
X121374591Y-102575305D01*
X121374592Y-102575306D01*
X121387689Y-102594796D01*
X121465830Y-102711083D01*
X121591233Y-102825191D01*
X121740235Y-102906092D01*
X121775189Y-102915262D01*
X121898464Y-102947603D01*
X121898468Y-102947604D01*
X121904233Y-102949116D01*
X121910194Y-102949210D01*
X121910197Y-102949210D01*
X121988996Y-102950447D01*
X122073760Y-102951779D01*
X122079575Y-102950447D01*
X122079577Y-102950447D01*
X122233206Y-102915262D01*
X122233209Y-102915261D01*
X122239029Y-102913928D01*
X122254610Y-102906092D01*
X122370436Y-102847837D01*
X122390498Y-102837747D01*
X122395035Y-102833872D01*
X122395038Y-102833870D01*
X122514888Y-102731508D01*
X122514891Y-102731505D01*
X122519423Y-102727634D01*
X122525545Y-102719115D01*
X122614877Y-102594796D01*
X122614878Y-102594794D01*
X122618361Y-102589947D01*
X122671792Y-102457036D01*
X122679377Y-102438167D01*
X122679378Y-102438165D01*
X122681601Y-102432634D01*
X122683863Y-102416739D01*
X122702903Y-102282958D01*
X122730911Y-102226903D01*
X123178318Y-101779496D01*
X123232835Y-101751719D01*
X123248322Y-101750500D01*
X146206593Y-101750500D01*
X146264784Y-101769407D01*
X146300748Y-101818907D01*
X146304995Y-101838636D01*
X146312999Y-101911135D01*
X146371266Y-102070356D01*
X146374591Y-102075305D01*
X146374592Y-102075306D01*
X146387689Y-102094796D01*
X146465830Y-102211083D01*
X146591233Y-102325191D01*
X146740235Y-102406092D01*
X146775189Y-102415262D01*
X146898464Y-102447603D01*
X146898468Y-102447604D01*
X146904233Y-102449116D01*
X146910194Y-102449210D01*
X146910197Y-102449210D01*
X146988965Y-102450447D01*
X147073760Y-102451779D01*
X147079575Y-102450447D01*
X147079577Y-102450447D01*
X147233206Y-102415262D01*
X147233209Y-102415261D01*
X147239029Y-102413928D01*
X147244583Y-102411135D01*
X147385165Y-102340429D01*
X147390498Y-102337747D01*
X147395035Y-102333872D01*
X147395038Y-102333870D01*
X147514888Y-102231508D01*
X147514891Y-102231505D01*
X147519423Y-102227634D01*
X147570350Y-102156762D01*
X147614877Y-102094796D01*
X147614878Y-102094794D01*
X147618361Y-102089947D01*
X147622188Y-102080429D01*
X147679377Y-101938167D01*
X147679378Y-101938165D01*
X147681601Y-101932634D01*
X147687367Y-101892121D01*
X147714285Y-101837175D01*
X147768359Y-101808545D01*
X147828934Y-101817167D01*
X147838989Y-101823149D01*
X147841233Y-101825191D01*
X147990235Y-101906092D01*
X148030819Y-101916739D01*
X148148464Y-101947603D01*
X148148468Y-101947604D01*
X148154233Y-101949116D01*
X148160194Y-101949210D01*
X148160197Y-101949210D01*
X148238965Y-101950447D01*
X148323760Y-101951779D01*
X148329575Y-101950447D01*
X148329577Y-101950447D01*
X148483206Y-101915262D01*
X148483209Y-101915261D01*
X148489029Y-101913928D01*
X148494583Y-101911135D01*
X148635165Y-101840429D01*
X148640498Y-101837747D01*
X148645035Y-101833872D01*
X148645038Y-101833870D01*
X148764888Y-101731508D01*
X148764891Y-101731505D01*
X148769423Y-101727634D01*
X148800742Y-101684049D01*
X148864877Y-101594796D01*
X148864878Y-101594794D01*
X148868361Y-101589947D01*
X148884810Y-101549031D01*
X148929377Y-101438167D01*
X148929378Y-101438165D01*
X148931601Y-101432634D01*
X148955490Y-101264778D01*
X148955645Y-101250000D01*
X148935276Y-101081680D01*
X148875345Y-100923077D01*
X148836303Y-100866270D01*
X148782692Y-100788267D01*
X148779312Y-100783349D01*
X148652721Y-100670560D01*
X148575701Y-100629780D01*
X148533122Y-100585840D01*
X148524501Y-100525265D01*
X148553132Y-100471192D01*
X148599925Y-100445787D01*
X148657734Y-100432547D01*
X148733206Y-100415262D01*
X148733209Y-100415261D01*
X148739029Y-100413928D01*
X148890498Y-100337747D01*
X148895035Y-100333872D01*
X148895038Y-100333870D01*
X149014888Y-100231508D01*
X149014891Y-100231505D01*
X149019423Y-100227634D01*
X149118361Y-100089947D01*
X149181601Y-99932634D01*
X149205490Y-99764778D01*
X149205645Y-99750000D01*
X149185276Y-99581680D01*
X149125345Y-99423077D01*
X149117213Y-99411244D01*
X149032692Y-99288267D01*
X149029312Y-99283349D01*
X148902721Y-99170560D01*
X148752881Y-99091224D01*
X148647509Y-99064756D01*
X148594231Y-99051373D01*
X148594228Y-99051373D01*
X148588441Y-99049919D01*
X148502841Y-99049471D01*
X148424861Y-99049062D01*
X148424859Y-99049062D01*
X148418895Y-99049031D01*
X148413099Y-99050423D01*
X148413095Y-99050423D01*
X148330072Y-99070356D01*
X148254032Y-99088612D01*
X148178701Y-99127493D01*
X148108675Y-99163636D01*
X148108673Y-99163638D01*
X148103369Y-99166375D01*
X147975604Y-99277831D01*
X147878113Y-99416547D01*
X147875947Y-99422103D01*
X147870348Y-99436464D01*
X147831593Y-99483811D01*
X147778111Y-99499500D01*
X125248322Y-99499500D01*
X125190131Y-99480593D01*
X125178318Y-99470504D01*
X122279496Y-96571682D01*
X122251719Y-96517165D01*
X122250500Y-96501678D01*
X122250500Y-93035752D01*
X122264517Y-92992611D01*
X128294394Y-92992611D01*
X128295049Y-92998544D01*
X128295049Y-92998548D01*
X128303825Y-93078041D01*
X128312999Y-93161135D01*
X128371266Y-93320356D01*
X128465830Y-93461083D01*
X128591233Y-93575191D01*
X128740235Y-93656092D01*
X128777800Y-93665947D01*
X128898464Y-93697603D01*
X128898468Y-93697604D01*
X128904233Y-93699116D01*
X128910194Y-93699210D01*
X128910197Y-93699210D01*
X128973111Y-93700198D01*
X129030998Y-93720017D01*
X129066179Y-93770076D01*
X129067409Y-93822243D01*
X129066524Y-93824513D01*
X129044394Y-93992611D01*
X129062999Y-94161135D01*
X129121266Y-94320356D01*
X129215830Y-94461083D01*
X129341233Y-94575191D01*
X129490235Y-94656092D01*
X129549680Y-94671687D01*
X129648464Y-94697603D01*
X129648468Y-94697604D01*
X129654233Y-94699116D01*
X129660194Y-94699210D01*
X129660197Y-94699210D01*
X129723111Y-94700198D01*
X129780998Y-94720017D01*
X129816179Y-94770076D01*
X129817409Y-94822243D01*
X129816524Y-94824513D01*
X129794394Y-94992611D01*
X129795049Y-94998544D01*
X129795049Y-94998548D01*
X129812344Y-95155204D01*
X129812999Y-95161135D01*
X129871266Y-95320356D01*
X129874591Y-95325305D01*
X129874592Y-95325306D01*
X129887689Y-95344796D01*
X129965830Y-95461083D01*
X130091233Y-95575191D01*
X130240235Y-95656092D01*
X130275189Y-95665262D01*
X130398464Y-95697603D01*
X130398468Y-95697604D01*
X130404233Y-95699116D01*
X130410194Y-95699210D01*
X130410197Y-95699210D01*
X130488996Y-95700447D01*
X130573760Y-95701779D01*
X130579575Y-95700447D01*
X130579577Y-95700447D01*
X130733206Y-95665262D01*
X130733209Y-95665261D01*
X130739029Y-95663928D01*
X130754610Y-95656092D01*
X130885165Y-95590429D01*
X130890498Y-95587747D01*
X130895035Y-95583872D01*
X130895038Y-95583870D01*
X131014888Y-95481508D01*
X131014891Y-95481505D01*
X131019423Y-95477634D01*
X131022904Y-95472790D01*
X131114877Y-95344796D01*
X131114878Y-95344794D01*
X131118361Y-95339947D01*
X131148825Y-95264166D01*
X131188073Y-95217227D01*
X131247415Y-95202321D01*
X131304185Y-95225143D01*
X131333651Y-95267069D01*
X131371266Y-95369856D01*
X131465830Y-95510583D01*
X131591233Y-95624691D01*
X131740235Y-95705592D01*
X131788976Y-95718379D01*
X131898464Y-95747103D01*
X131898468Y-95747104D01*
X131904233Y-95748616D01*
X131910194Y-95748710D01*
X131910197Y-95748710D01*
X131926438Y-95748965D01*
X131984324Y-95768785D01*
X132019506Y-95818844D01*
X132018544Y-95880022D01*
X131984998Y-95925437D01*
X131985371Y-95925862D01*
X131981956Y-95928857D01*
X131981953Y-95928859D01*
X131937807Y-95967574D01*
X131833305Y-96059220D01*
X131830497Y-96062782D01*
X131711037Y-96214318D01*
X131708089Y-96218057D01*
X131613914Y-96397053D01*
X131612569Y-96401384D01*
X131612568Y-96401387D01*
X131563139Y-96560578D01*
X131553937Y-96590213D01*
X131542975Y-96682834D01*
X131531189Y-96782413D01*
X131530164Y-96791069D01*
X131530461Y-96795597D01*
X131540097Y-96942615D01*
X131543392Y-96992894D01*
X131544508Y-96997287D01*
X131544508Y-96997289D01*
X131582982Y-97148782D01*
X131593178Y-97188928D01*
X131677856Y-97372607D01*
X131794588Y-97537780D01*
X131939466Y-97678913D01*
X132107637Y-97791282D01*
X132293470Y-97871122D01*
X132490740Y-97915760D01*
X132692842Y-97923700D01*
X132746377Y-97915938D01*
X132888519Y-97895329D01*
X132888522Y-97895328D01*
X132893007Y-97894678D01*
X132988769Y-97862171D01*
X133080234Y-97831123D01*
X133080237Y-97831121D01*
X133084531Y-97829664D01*
X133222476Y-97752412D01*
X133257039Y-97733056D01*
X133257041Y-97733055D01*
X133261001Y-97730837D01*
X133416505Y-97601505D01*
X133545837Y-97446001D01*
X133561671Y-97417728D01*
X133582652Y-97380262D01*
X133644664Y-97269531D01*
X133709678Y-97078007D01*
X133710368Y-97073252D01*
X133738283Y-96880717D01*
X133738700Y-96877842D01*
X133740215Y-96820000D01*
X133738475Y-96801057D01*
X133722123Y-96623109D01*
X133721708Y-96618591D01*
X133666807Y-96423926D01*
X133648680Y-96387167D01*
X133579359Y-96246599D01*
X133577351Y-96242527D01*
X133456335Y-96080467D01*
X133307812Y-95943174D01*
X133285125Y-95928859D01*
X133140594Y-95837667D01*
X133136757Y-95835246D01*
X132948898Y-95760298D01*
X132750526Y-95720839D01*
X132562551Y-95718379D01*
X132504613Y-95698711D01*
X132469300Y-95648745D01*
X132470101Y-95587565D01*
X132499550Y-95544108D01*
X132519422Y-95527135D01*
X132520592Y-95528505D01*
X132566839Y-95502452D01*
X132586399Y-95500500D01*
X135646678Y-95500500D01*
X135704869Y-95519407D01*
X135716682Y-95529496D01*
X136019946Y-95832760D01*
X136047723Y-95887277D01*
X136038152Y-95947709D01*
X135994887Y-95990974D01*
X135934455Y-96000545D01*
X135882741Y-95975462D01*
X135872201Y-95965719D01*
X135847812Y-95943174D01*
X135825125Y-95928859D01*
X135680594Y-95837667D01*
X135676757Y-95835246D01*
X135488898Y-95760298D01*
X135290526Y-95720839D01*
X135190930Y-95719535D01*
X135092826Y-95718251D01*
X135092821Y-95718251D01*
X135088286Y-95718192D01*
X135083813Y-95718961D01*
X135083808Y-95718961D01*
X134985245Y-95735898D01*
X134888949Y-95752444D01*
X134699193Y-95822449D01*
X134525371Y-95925862D01*
X134521956Y-95928857D01*
X134521953Y-95928859D01*
X134477807Y-95967574D01*
X134373305Y-96059220D01*
X134370497Y-96062782D01*
X134251037Y-96214318D01*
X134248089Y-96218057D01*
X134153914Y-96397053D01*
X134152569Y-96401384D01*
X134152568Y-96401387D01*
X134103139Y-96560578D01*
X134093937Y-96590213D01*
X134082975Y-96682834D01*
X134071189Y-96782413D01*
X134070164Y-96791069D01*
X134070461Y-96795597D01*
X134080097Y-96942615D01*
X134083392Y-96992894D01*
X134084508Y-96997287D01*
X134084508Y-96997289D01*
X134122982Y-97148782D01*
X134133178Y-97188928D01*
X134217856Y-97372607D01*
X134334588Y-97537780D01*
X134479466Y-97678913D01*
X134647637Y-97791282D01*
X134833470Y-97871122D01*
X135030740Y-97915760D01*
X135232842Y-97923700D01*
X135433007Y-97894678D01*
X135455983Y-97886879D01*
X135517159Y-97886078D01*
X135557807Y-97910621D01*
X136203605Y-98556419D01*
X136211579Y-98566399D01*
X136211596Y-98566384D01*
X136216166Y-98571754D01*
X136219930Y-98577720D01*
X136225215Y-98582388D01*
X136225218Y-98582391D01*
X136260208Y-98613292D01*
X136264678Y-98617492D01*
X136276506Y-98629320D01*
X136285550Y-98636098D01*
X136291699Y-98641104D01*
X136327388Y-98672623D01*
X136336671Y-98676982D01*
X136353966Y-98687373D01*
X136362176Y-98693526D01*
X136368782Y-98696002D01*
X136368783Y-98696003D01*
X136406752Y-98710237D01*
X136414074Y-98713323D01*
X136450775Y-98730554D01*
X136450776Y-98730554D01*
X136457163Y-98733553D01*
X136467300Y-98735131D01*
X136486816Y-98740252D01*
X136489816Y-98741377D01*
X136489818Y-98741377D01*
X136496419Y-98743852D01*
X136543904Y-98747381D01*
X136551792Y-98748287D01*
X136562228Y-98749912D01*
X136562236Y-98749913D01*
X136566009Y-98750500D01*
X136582208Y-98750500D01*
X136589545Y-98750772D01*
X136639391Y-98754476D01*
X136646286Y-98753004D01*
X136646288Y-98753004D01*
X136647800Y-98752681D01*
X136668467Y-98750500D01*
X146377834Y-98750500D01*
X146390535Y-98751919D01*
X146390537Y-98751897D01*
X146397569Y-98752463D01*
X146404447Y-98754019D01*
X146458101Y-98750690D01*
X146464233Y-98750500D01*
X146480940Y-98750500D01*
X146484427Y-98750001D01*
X146484435Y-98750000D01*
X146492121Y-98748899D01*
X146500024Y-98748089D01*
X146540501Y-98745578D01*
X146540504Y-98745577D01*
X146547538Y-98745141D01*
X146554167Y-98742748D01*
X146554171Y-98742747D01*
X146557187Y-98741658D01*
X146576763Y-98736777D01*
X146577955Y-98736606D01*
X146579936Y-98736323D01*
X146579937Y-98736323D01*
X146586918Y-98735323D01*
X146593337Y-98732404D01*
X146593342Y-98732403D01*
X146630257Y-98715619D01*
X146637615Y-98712623D01*
X146651810Y-98707498D01*
X146682387Y-98696460D01*
X146690672Y-98690408D01*
X146708086Y-98680232D01*
X146717428Y-98675984D01*
X146733341Y-98662272D01*
X146753495Y-98644907D01*
X146759716Y-98639967D01*
X146761751Y-98638480D01*
X146771336Y-98631478D01*
X146782800Y-98620014D01*
X146788181Y-98615019D01*
X146820693Y-98587005D01*
X146820694Y-98587004D01*
X146826037Y-98582400D01*
X146830711Y-98575189D01*
X146843782Y-98559032D01*
X147493416Y-97909398D01*
X147547933Y-97881621D01*
X147585269Y-97882843D01*
X147730740Y-97915760D01*
X147932842Y-97923700D01*
X147986377Y-97915938D01*
X148128519Y-97895329D01*
X148128522Y-97895328D01*
X148133007Y-97894678D01*
X148228769Y-97862171D01*
X148320234Y-97831123D01*
X148320237Y-97831121D01*
X148324531Y-97829664D01*
X148462476Y-97752412D01*
X148497039Y-97733056D01*
X148497041Y-97733055D01*
X148501001Y-97730837D01*
X148656505Y-97601505D01*
X148744114Y-97496167D01*
X148795860Y-97463518D01*
X148856914Y-97467520D01*
X148890233Y-97489468D01*
X150120504Y-98719739D01*
X150148281Y-98774256D01*
X150149500Y-98789743D01*
X150149500Y-101710257D01*
X150130593Y-101768448D01*
X150120504Y-101780261D01*
X148280261Y-103620504D01*
X148225744Y-103648281D01*
X148210257Y-103649500D01*
X140795857Y-103649500D01*
X140782934Y-103648653D01*
X140756433Y-103645164D01*
X140750000Y-103644317D01*
X140593238Y-103664956D01*
X140447159Y-103725464D01*
X140321718Y-103821718D01*
X140317771Y-103826862D01*
X140317767Y-103826866D01*
X140301501Y-103848065D01*
X140292962Y-103857803D01*
X138397801Y-105752964D01*
X138388064Y-105761502D01*
X138361718Y-105781718D01*
X138357771Y-105786862D01*
X138357767Y-105786866D01*
X138337551Y-105813213D01*
X138337550Y-105813215D01*
X138269412Y-105902013D01*
X138269410Y-105902017D01*
X138265464Y-105907159D01*
X138204956Y-106053238D01*
X138184318Y-106210000D01*
X138185165Y-106216433D01*
X138188653Y-106242927D01*
X138189500Y-106255849D01*
X138189500Y-107462153D01*
X138170593Y-107520344D01*
X138141118Y-107547234D01*
X138110856Y-107565238D01*
X138107441Y-107568233D01*
X138107438Y-107568235D01*
X138080361Y-107591981D01*
X137951881Y-107704655D01*
X137949073Y-107708217D01*
X137826456Y-107863757D01*
X137820976Y-107870708D01*
X137818862Y-107874726D01*
X137739161Y-108026213D01*
X137722523Y-108057836D01*
X137721179Y-108062165D01*
X137664694Y-108244076D01*
X137629381Y-108294042D01*
X137571443Y-108313710D01*
X137513010Y-108295566D01*
X137476401Y-108246541D01*
X137474520Y-108240341D01*
X137430221Y-108075015D01*
X137427275Y-108066922D01*
X137338497Y-107876538D01*
X137334185Y-107869068D01*
X137213692Y-107696987D01*
X137208159Y-107690392D01*
X137059608Y-107541841D01*
X137053013Y-107536308D01*
X136880933Y-107415815D01*
X136873463Y-107411503D01*
X136683078Y-107322725D01*
X136674985Y-107319779D01*
X136519145Y-107278022D01*
X136506859Y-107278666D01*
X136504000Y-107288317D01*
X136504000Y-109710356D01*
X136507802Y-109722058D01*
X136517864Y-109722321D01*
X136674985Y-109680221D01*
X136683078Y-109677275D01*
X136873463Y-109588497D01*
X136880933Y-109584185D01*
X137053013Y-109463692D01*
X137059608Y-109458159D01*
X137208159Y-109309608D01*
X137213692Y-109303013D01*
X137334185Y-109130932D01*
X137338497Y-109123462D01*
X137427275Y-108933078D01*
X137430221Y-108924985D01*
X137476088Y-108753807D01*
X137509412Y-108702493D01*
X137566534Y-108680566D01*
X137625634Y-108696402D01*
X137664139Y-108743951D01*
X137667669Y-108755061D01*
X137700845Y-108885690D01*
X137702747Y-108889815D01*
X137702747Y-108889816D01*
X137776080Y-109048887D01*
X137789369Y-109077714D01*
X137911405Y-109250391D01*
X138062865Y-109397937D01*
X138066638Y-109400458D01*
X138234899Y-109512887D01*
X138234902Y-109512889D01*
X138238677Y-109515411D01*
X138335472Y-109556997D01*
X138428774Y-109597083D01*
X138428778Y-109597084D01*
X138432953Y-109598878D01*
X138456071Y-109604109D01*
X138634760Y-109644543D01*
X138634765Y-109644544D01*
X138639186Y-109645544D01*
X138744828Y-109649695D01*
X138845937Y-109653668D01*
X138845938Y-109653668D01*
X138850470Y-109653846D01*
X139059730Y-109623504D01*
X139064029Y-109622045D01*
X139064032Y-109622044D01*
X139255654Y-109556997D01*
X139259955Y-109555537D01*
X139307021Y-109529179D01*
X139376490Y-109490274D01*
X139444442Y-109452219D01*
X139607012Y-109317012D01*
X139742219Y-109154442D01*
X139845537Y-108969955D01*
X139860802Y-108924985D01*
X139912044Y-108774032D01*
X139912045Y-108774028D01*
X139913504Y-108769730D01*
X139926406Y-108680749D01*
X139943426Y-108563369D01*
X139943426Y-108563363D01*
X139943846Y-108560470D01*
X139943981Y-108555338D01*
X139945353Y-108502914D01*
X139945353Y-108502909D01*
X139945429Y-108500000D01*
X139942650Y-108469754D01*
X140174967Y-108469754D01*
X140188796Y-108680749D01*
X140189912Y-108685142D01*
X140189912Y-108685144D01*
X140212486Y-108774028D01*
X140240845Y-108885690D01*
X140242747Y-108889815D01*
X140242747Y-108889816D01*
X140316080Y-109048887D01*
X140329369Y-109077714D01*
X140451405Y-109250391D01*
X140602865Y-109397937D01*
X140606638Y-109400458D01*
X140774899Y-109512887D01*
X140774902Y-109512889D01*
X140778677Y-109515411D01*
X140875472Y-109556997D01*
X140968774Y-109597083D01*
X140968778Y-109597084D01*
X140972953Y-109598878D01*
X140996071Y-109604109D01*
X141174760Y-109644543D01*
X141174765Y-109644544D01*
X141179186Y-109645544D01*
X141284828Y-109649695D01*
X141385937Y-109653668D01*
X141385938Y-109653668D01*
X141390470Y-109653846D01*
X141599730Y-109623504D01*
X141604029Y-109622045D01*
X141604032Y-109622044D01*
X141795654Y-109556997D01*
X141799955Y-109555537D01*
X141847021Y-109529179D01*
X141916490Y-109490274D01*
X141984442Y-109452219D01*
X142147012Y-109317012D01*
X142282219Y-109154442D01*
X142385537Y-108969955D01*
X142400802Y-108924985D01*
X142452044Y-108774032D01*
X142452045Y-108774028D01*
X142453504Y-108769730D01*
X142466406Y-108680749D01*
X142483426Y-108563369D01*
X142483426Y-108563363D01*
X142483846Y-108560470D01*
X142483981Y-108555338D01*
X142485353Y-108502914D01*
X142485353Y-108502909D01*
X142485429Y-108500000D01*
X142480710Y-108448638D01*
X142467176Y-108301355D01*
X142466081Y-108289440D01*
X142433939Y-108175471D01*
X142436341Y-108114334D01*
X142459218Y-108078596D01*
X142699116Y-107838698D01*
X142753633Y-107810921D01*
X142814065Y-107820492D01*
X142857330Y-107863757D01*
X142866901Y-107924189D01*
X142856734Y-107954798D01*
X142819161Y-108026213D01*
X142802523Y-108057836D01*
X142801179Y-108062165D01*
X142743929Y-108246541D01*
X142739820Y-108259773D01*
X142739286Y-108264283D01*
X142739286Y-108264284D01*
X142734899Y-108301354D01*
X142714967Y-108469754D01*
X142728796Y-108680749D01*
X142729912Y-108685142D01*
X142729912Y-108685144D01*
X142752486Y-108774028D01*
X142780845Y-108885690D01*
X142782747Y-108889815D01*
X142782747Y-108889816D01*
X142856080Y-109048887D01*
X142869369Y-109077714D01*
X142991405Y-109250391D01*
X143142865Y-109397937D01*
X143146638Y-109400458D01*
X143314899Y-109512887D01*
X143314902Y-109512889D01*
X143318677Y-109515411D01*
X143415472Y-109556997D01*
X143508774Y-109597083D01*
X143508778Y-109597084D01*
X143512953Y-109598878D01*
X143536071Y-109604109D01*
X143714760Y-109644543D01*
X143714765Y-109644544D01*
X143719186Y-109645544D01*
X143824828Y-109649695D01*
X143925937Y-109653668D01*
X143925938Y-109653668D01*
X143930470Y-109653846D01*
X144139730Y-109623504D01*
X144144029Y-109622045D01*
X144144032Y-109622044D01*
X144335654Y-109556997D01*
X144339955Y-109555537D01*
X144387021Y-109529179D01*
X144456490Y-109490274D01*
X144524442Y-109452219D01*
X144687012Y-109317012D01*
X144822219Y-109154442D01*
X144925537Y-108969955D01*
X144993504Y-108769730D01*
X144994156Y-108765233D01*
X144994275Y-108764738D01*
X145026242Y-108712568D01*
X145082769Y-108689151D01*
X145142264Y-108703433D01*
X145182003Y-108749957D01*
X145186167Y-108762223D01*
X145229779Y-108924985D01*
X145232725Y-108933078D01*
X145321503Y-109123462D01*
X145325815Y-109130932D01*
X145446308Y-109303013D01*
X145451841Y-109309608D01*
X145600392Y-109458159D01*
X145606987Y-109463692D01*
X145779067Y-109584185D01*
X145786537Y-109588497D01*
X145976922Y-109677275D01*
X145985015Y-109680221D01*
X146140855Y-109721978D01*
X146153141Y-109721334D01*
X146156000Y-109711683D01*
X146156000Y-108345000D01*
X146174907Y-108286809D01*
X146224407Y-108250845D01*
X146255000Y-108246000D01*
X146565000Y-108246000D01*
X146623191Y-108264907D01*
X146659155Y-108314407D01*
X146664000Y-108345000D01*
X146664000Y-109710356D01*
X146667802Y-109722058D01*
X146677864Y-109722321D01*
X146834985Y-109680221D01*
X146843078Y-109677275D01*
X147033463Y-109588497D01*
X147040933Y-109584185D01*
X147213013Y-109463692D01*
X147219608Y-109458159D01*
X147368159Y-109309608D01*
X147373692Y-109303013D01*
X147494185Y-109130932D01*
X147498497Y-109123462D01*
X147587275Y-108933078D01*
X147590221Y-108924985D01*
X147636088Y-108753807D01*
X147669412Y-108702493D01*
X147726534Y-108680566D01*
X147785634Y-108696402D01*
X147824139Y-108743951D01*
X147827669Y-108755061D01*
X147860845Y-108885690D01*
X147862747Y-108889815D01*
X147862747Y-108889816D01*
X147936080Y-109048887D01*
X147949369Y-109077714D01*
X148071405Y-109250391D01*
X148222865Y-109397937D01*
X148226638Y-109400458D01*
X148394899Y-109512887D01*
X148394902Y-109512889D01*
X148398677Y-109515411D01*
X148495472Y-109556997D01*
X148588774Y-109597083D01*
X148588778Y-109597084D01*
X148592953Y-109598878D01*
X148616071Y-109604109D01*
X148794760Y-109644543D01*
X148794765Y-109644544D01*
X148799186Y-109645544D01*
X148904828Y-109649695D01*
X149005937Y-109653668D01*
X149005938Y-109653668D01*
X149010470Y-109653846D01*
X149219730Y-109623504D01*
X149224029Y-109622045D01*
X149224032Y-109622044D01*
X149415654Y-109556997D01*
X149419955Y-109555537D01*
X149467021Y-109529179D01*
X149536490Y-109490274D01*
X149604442Y-109452219D01*
X149767012Y-109317012D01*
X149902219Y-109154442D01*
X150005537Y-108969955D01*
X150020802Y-108924985D01*
X150072044Y-108774032D01*
X150072045Y-108774028D01*
X150073504Y-108769730D01*
X150086406Y-108680749D01*
X150103426Y-108563369D01*
X150103426Y-108563363D01*
X150103846Y-108560470D01*
X150103981Y-108555338D01*
X150105353Y-108502914D01*
X150105353Y-108502909D01*
X150105429Y-108500000D01*
X150100710Y-108448638D01*
X150087176Y-108301355D01*
X150086081Y-108289440D01*
X150053939Y-108175471D01*
X150056341Y-108114334D01*
X150079218Y-108078596D01*
X150319116Y-107838698D01*
X150373633Y-107810921D01*
X150434065Y-107820492D01*
X150477330Y-107863757D01*
X150486901Y-107924189D01*
X150476734Y-107954798D01*
X150439161Y-108026213D01*
X150422523Y-108057836D01*
X150421179Y-108062165D01*
X150363929Y-108246541D01*
X150359820Y-108259773D01*
X150359286Y-108264283D01*
X150359286Y-108264284D01*
X150354899Y-108301354D01*
X150334967Y-108469754D01*
X150348796Y-108680749D01*
X150349912Y-108685142D01*
X150349912Y-108685144D01*
X150372486Y-108774028D01*
X150400845Y-108885690D01*
X150402747Y-108889815D01*
X150402747Y-108889816D01*
X150476080Y-109048887D01*
X150489369Y-109077714D01*
X150611405Y-109250391D01*
X150762865Y-109397937D01*
X150766638Y-109400458D01*
X150934899Y-109512887D01*
X150934902Y-109512889D01*
X150938677Y-109515411D01*
X151035472Y-109556997D01*
X151128774Y-109597083D01*
X151128778Y-109597084D01*
X151132953Y-109598878D01*
X151156071Y-109604109D01*
X151334760Y-109644543D01*
X151334765Y-109644544D01*
X151339186Y-109645544D01*
X151444828Y-109649695D01*
X151545937Y-109653668D01*
X151545938Y-109653668D01*
X151550470Y-109653846D01*
X151759730Y-109623504D01*
X151764029Y-109622045D01*
X151764032Y-109622044D01*
X151955654Y-109556997D01*
X151959955Y-109555537D01*
X152007021Y-109529179D01*
X152076490Y-109490274D01*
X152144442Y-109452219D01*
X152307012Y-109317012D01*
X152442219Y-109154442D01*
X152545537Y-108969955D01*
X152560802Y-108924985D01*
X152612044Y-108774032D01*
X152612045Y-108774028D01*
X152613504Y-108769730D01*
X152626406Y-108680749D01*
X152643426Y-108563369D01*
X152643426Y-108563363D01*
X152643846Y-108560470D01*
X152643981Y-108555338D01*
X152645353Y-108502914D01*
X152645353Y-108502909D01*
X152645429Y-108500000D01*
X152642650Y-108469754D01*
X152874967Y-108469754D01*
X152888796Y-108680749D01*
X152889912Y-108685142D01*
X152889912Y-108685144D01*
X152912486Y-108774028D01*
X152940845Y-108885690D01*
X152942747Y-108889815D01*
X152942747Y-108889816D01*
X153016080Y-109048887D01*
X153029369Y-109077714D01*
X153151405Y-109250391D01*
X153302865Y-109397937D01*
X153306638Y-109400458D01*
X153474899Y-109512887D01*
X153474902Y-109512889D01*
X153478677Y-109515411D01*
X153575472Y-109556997D01*
X153668774Y-109597083D01*
X153668778Y-109597084D01*
X153672953Y-109598878D01*
X153696071Y-109604109D01*
X153874760Y-109644543D01*
X153874765Y-109644544D01*
X153879186Y-109645544D01*
X153984828Y-109649695D01*
X154085937Y-109653668D01*
X154085938Y-109653668D01*
X154090470Y-109653846D01*
X154299730Y-109623504D01*
X154304029Y-109622045D01*
X154304032Y-109622044D01*
X154495654Y-109556997D01*
X154499955Y-109555537D01*
X154547021Y-109529179D01*
X154616490Y-109490274D01*
X154684442Y-109452219D01*
X154847012Y-109317012D01*
X154982219Y-109154442D01*
X155085537Y-108969955D01*
X155100802Y-108924985D01*
X155152044Y-108774032D01*
X155152045Y-108774028D01*
X155153504Y-108769730D01*
X155166406Y-108680749D01*
X155183426Y-108563369D01*
X155183426Y-108563363D01*
X155183846Y-108560470D01*
X155183981Y-108555338D01*
X155185353Y-108502914D01*
X155185353Y-108502909D01*
X155185429Y-108500000D01*
X155182650Y-108469754D01*
X155414967Y-108469754D01*
X155428796Y-108680749D01*
X155429912Y-108685142D01*
X155429912Y-108685144D01*
X155452486Y-108774028D01*
X155480845Y-108885690D01*
X155482747Y-108889815D01*
X155482747Y-108889816D01*
X155556080Y-109048887D01*
X155569369Y-109077714D01*
X155691405Y-109250391D01*
X155842865Y-109397937D01*
X155846638Y-109400458D01*
X156014899Y-109512887D01*
X156014902Y-109512889D01*
X156018677Y-109515411D01*
X156115472Y-109556997D01*
X156208774Y-109597083D01*
X156208778Y-109597084D01*
X156212953Y-109598878D01*
X156236071Y-109604109D01*
X156414760Y-109644543D01*
X156414765Y-109644544D01*
X156419186Y-109645544D01*
X156524828Y-109649695D01*
X156625937Y-109653668D01*
X156625938Y-109653668D01*
X156630470Y-109653846D01*
X156839730Y-109623504D01*
X156844029Y-109622045D01*
X156844032Y-109622044D01*
X157035654Y-109556997D01*
X157039955Y-109555537D01*
X157087021Y-109529179D01*
X157156490Y-109490274D01*
X157224442Y-109452219D01*
X157387012Y-109317012D01*
X157522219Y-109154442D01*
X157625537Y-108969955D01*
X157640802Y-108924985D01*
X157692044Y-108774032D01*
X157692045Y-108774028D01*
X157693504Y-108769730D01*
X157706406Y-108680749D01*
X157723426Y-108563369D01*
X157723426Y-108563363D01*
X157723846Y-108560470D01*
X157723981Y-108555338D01*
X157725353Y-108502914D01*
X157725353Y-108502909D01*
X157725429Y-108500000D01*
X157722650Y-108469754D01*
X157954967Y-108469754D01*
X157968796Y-108680749D01*
X157969912Y-108685142D01*
X157969912Y-108685144D01*
X157992486Y-108774028D01*
X158020845Y-108885690D01*
X158022747Y-108889815D01*
X158022747Y-108889816D01*
X158096080Y-109048887D01*
X158109369Y-109077714D01*
X158231405Y-109250391D01*
X158382865Y-109397937D01*
X158386638Y-109400458D01*
X158554899Y-109512887D01*
X158554902Y-109512889D01*
X158558677Y-109515411D01*
X158655472Y-109556997D01*
X158748774Y-109597083D01*
X158748778Y-109597084D01*
X158752953Y-109598878D01*
X158776071Y-109604109D01*
X158954760Y-109644543D01*
X158954765Y-109644544D01*
X158959186Y-109645544D01*
X159064828Y-109649695D01*
X159165937Y-109653668D01*
X159165938Y-109653668D01*
X159170470Y-109653846D01*
X159379730Y-109623504D01*
X159384029Y-109622045D01*
X159384032Y-109622044D01*
X159575654Y-109556997D01*
X159579955Y-109555537D01*
X159627021Y-109529179D01*
X159696490Y-109490274D01*
X159764442Y-109452219D01*
X159927012Y-109317012D01*
X160062219Y-109154442D01*
X160165537Y-108969955D01*
X160180802Y-108924985D01*
X160232044Y-108774032D01*
X160232045Y-108774028D01*
X160233504Y-108769730D01*
X160246406Y-108680749D01*
X160263426Y-108563369D01*
X160263426Y-108563363D01*
X160263846Y-108560470D01*
X160263981Y-108555338D01*
X160265353Y-108502914D01*
X160265353Y-108502909D01*
X160265429Y-108500000D01*
X160262650Y-108469754D01*
X160494967Y-108469754D01*
X160508796Y-108680749D01*
X160509912Y-108685142D01*
X160509912Y-108685144D01*
X160532486Y-108774028D01*
X160560845Y-108885690D01*
X160562747Y-108889815D01*
X160562747Y-108889816D01*
X160636080Y-109048887D01*
X160649369Y-109077714D01*
X160771405Y-109250391D01*
X160922865Y-109397937D01*
X160926638Y-109400458D01*
X161094899Y-109512887D01*
X161094902Y-109512889D01*
X161098677Y-109515411D01*
X161195472Y-109556997D01*
X161288774Y-109597083D01*
X161288778Y-109597084D01*
X161292953Y-109598878D01*
X161316071Y-109604109D01*
X161494760Y-109644543D01*
X161494765Y-109644544D01*
X161499186Y-109645544D01*
X161604828Y-109649695D01*
X161705937Y-109653668D01*
X161705938Y-109653668D01*
X161710470Y-109653846D01*
X161919730Y-109623504D01*
X161924029Y-109622045D01*
X161924032Y-109622044D01*
X162115654Y-109556997D01*
X162119955Y-109555537D01*
X162167021Y-109529179D01*
X162236490Y-109490274D01*
X162304442Y-109452219D01*
X162467012Y-109317012D01*
X162602219Y-109154442D01*
X162705537Y-108969955D01*
X162720802Y-108924985D01*
X162772044Y-108774032D01*
X162772045Y-108774028D01*
X162773504Y-108769730D01*
X162786406Y-108680749D01*
X162803426Y-108563369D01*
X162803426Y-108563363D01*
X162803846Y-108560470D01*
X162803981Y-108555338D01*
X162805353Y-108502914D01*
X162805353Y-108502909D01*
X162805429Y-108500000D01*
X162802650Y-108469754D01*
X163034967Y-108469754D01*
X163048796Y-108680749D01*
X163049912Y-108685142D01*
X163049912Y-108685144D01*
X163072486Y-108774028D01*
X163100845Y-108885690D01*
X163102747Y-108889815D01*
X163102747Y-108889816D01*
X163176080Y-109048887D01*
X163189369Y-109077714D01*
X163311405Y-109250391D01*
X163462865Y-109397937D01*
X163466638Y-109400458D01*
X163634899Y-109512887D01*
X163634902Y-109512889D01*
X163638677Y-109515411D01*
X163735472Y-109556997D01*
X163828774Y-109597083D01*
X163828778Y-109597084D01*
X163832953Y-109598878D01*
X163856071Y-109604109D01*
X164034760Y-109644543D01*
X164034765Y-109644544D01*
X164039186Y-109645544D01*
X164144828Y-109649695D01*
X164245937Y-109653668D01*
X164245938Y-109653668D01*
X164250470Y-109653846D01*
X164459730Y-109623504D01*
X164464029Y-109622045D01*
X164464032Y-109622044D01*
X164655654Y-109556997D01*
X164659955Y-109555537D01*
X164707021Y-109529179D01*
X164776490Y-109490274D01*
X164844442Y-109452219D01*
X165007012Y-109317012D01*
X165142219Y-109154442D01*
X165245537Y-108969955D01*
X165260802Y-108924985D01*
X165312044Y-108774032D01*
X165312045Y-108774028D01*
X165313504Y-108769730D01*
X165326406Y-108680749D01*
X165343426Y-108563369D01*
X165343426Y-108563363D01*
X165343846Y-108560470D01*
X165343981Y-108555338D01*
X165345353Y-108502914D01*
X165345353Y-108502909D01*
X165345429Y-108500000D01*
X165342650Y-108469754D01*
X165574967Y-108469754D01*
X165588796Y-108680749D01*
X165589912Y-108685142D01*
X165589912Y-108685144D01*
X165612486Y-108774028D01*
X165640845Y-108885690D01*
X165642747Y-108889815D01*
X165642747Y-108889816D01*
X165716080Y-109048887D01*
X165729369Y-109077714D01*
X165851405Y-109250391D01*
X166002865Y-109397937D01*
X166006638Y-109400458D01*
X166174899Y-109512887D01*
X166174902Y-109512889D01*
X166178677Y-109515411D01*
X166275472Y-109556997D01*
X166368774Y-109597083D01*
X166368778Y-109597084D01*
X166372953Y-109598878D01*
X166396071Y-109604109D01*
X166574760Y-109644543D01*
X166574765Y-109644544D01*
X166579186Y-109645544D01*
X166684828Y-109649695D01*
X166785937Y-109653668D01*
X166785938Y-109653668D01*
X166790470Y-109653846D01*
X166999730Y-109623504D01*
X167004029Y-109622045D01*
X167004032Y-109622044D01*
X167195654Y-109556997D01*
X167199955Y-109555537D01*
X167247021Y-109529179D01*
X167316490Y-109490274D01*
X167384442Y-109452219D01*
X167547012Y-109317012D01*
X167682219Y-109154442D01*
X167785537Y-108969955D01*
X167800802Y-108924985D01*
X167852044Y-108774032D01*
X167852045Y-108774028D01*
X167853504Y-108769730D01*
X167866406Y-108680749D01*
X167883426Y-108563369D01*
X167883426Y-108563363D01*
X167883846Y-108560470D01*
X167883981Y-108555338D01*
X167885353Y-108502914D01*
X167885353Y-108502909D01*
X167885429Y-108500000D01*
X167882650Y-108469754D01*
X168114967Y-108469754D01*
X168128796Y-108680749D01*
X168129912Y-108685142D01*
X168129912Y-108685144D01*
X168152486Y-108774028D01*
X168180845Y-108885690D01*
X168182747Y-108889815D01*
X168182747Y-108889816D01*
X168256080Y-109048887D01*
X168269369Y-109077714D01*
X168391405Y-109250391D01*
X168542865Y-109397937D01*
X168546638Y-109400458D01*
X168714899Y-109512887D01*
X168714902Y-109512889D01*
X168718677Y-109515411D01*
X168815472Y-109556997D01*
X168908774Y-109597083D01*
X168908778Y-109597084D01*
X168912953Y-109598878D01*
X168936071Y-109604109D01*
X169114760Y-109644543D01*
X169114765Y-109644544D01*
X169119186Y-109645544D01*
X169224828Y-109649695D01*
X169325937Y-109653668D01*
X169325938Y-109653668D01*
X169330470Y-109653846D01*
X169539730Y-109623504D01*
X169544029Y-109622045D01*
X169544032Y-109622044D01*
X169735654Y-109556997D01*
X169739955Y-109555537D01*
X169787021Y-109529179D01*
X169856490Y-109490274D01*
X169924442Y-109452219D01*
X170087012Y-109317012D01*
X170222219Y-109154442D01*
X170325537Y-108969955D01*
X170340802Y-108924985D01*
X170392044Y-108774032D01*
X170392045Y-108774028D01*
X170393504Y-108769730D01*
X170406406Y-108680749D01*
X170423426Y-108563369D01*
X170423426Y-108563363D01*
X170423846Y-108560470D01*
X170423981Y-108555338D01*
X176165324Y-108555338D01*
X176165781Y-108559286D01*
X176165781Y-108559291D01*
X176190627Y-108774028D01*
X176194556Y-108807986D01*
X176195636Y-108811804D01*
X176195637Y-108811807D01*
X176262724Y-109048887D01*
X176263806Y-109052710D01*
X176265484Y-109056309D01*
X176265485Y-109056311D01*
X176277193Y-109081418D01*
X176371292Y-109283215D01*
X176373527Y-109286504D01*
X176373530Y-109286509D01*
X176451686Y-109401511D01*
X176514249Y-109493569D01*
X176610910Y-109595786D01*
X176665815Y-109653846D01*
X176688998Y-109678362D01*
X176692152Y-109680773D01*
X176692156Y-109680777D01*
X176746150Y-109722058D01*
X176891045Y-109832838D01*
X176894549Y-109834717D01*
X176894554Y-109834720D01*
X177022050Y-109903082D01*
X177115190Y-109953023D01*
X177355667Y-110035826D01*
X177546939Y-110068864D01*
X177603214Y-110078585D01*
X177603216Y-110078585D01*
X177606289Y-110079116D01*
X177629698Y-110080179D01*
X177635662Y-110080450D01*
X177635668Y-110080450D01*
X177636766Y-110080500D01*
X177813910Y-110080500D01*
X177815884Y-110080341D01*
X177815888Y-110080341D01*
X177999554Y-110065564D01*
X177999559Y-110065563D01*
X178003514Y-110065245D01*
X178007374Y-110064297D01*
X178246640Y-110005528D01*
X178246645Y-110005526D01*
X178250506Y-110004578D01*
X178254167Y-110003024D01*
X178254170Y-110003023D01*
X178480959Y-109906757D01*
X178480961Y-109906756D01*
X178484622Y-109905202D01*
X178699837Y-109769673D01*
X178825271Y-109659088D01*
X178887632Y-109604109D01*
X178887633Y-109604108D01*
X178890615Y-109601479D01*
X178954953Y-109523153D01*
X179049526Y-109408019D01*
X179049528Y-109408016D01*
X179052049Y-109404947D01*
X179058045Y-109394646D01*
X179177980Y-109188576D01*
X179179984Y-109185133D01*
X179181413Y-109181411D01*
X179269702Y-108951411D01*
X179269704Y-108951404D01*
X179271129Y-108947692D01*
X179301140Y-108804039D01*
X179322325Y-108702632D01*
X179322326Y-108702628D01*
X179323139Y-108698734D01*
X179334676Y-108444662D01*
X179319928Y-108317190D01*
X179305901Y-108195961D01*
X179305900Y-108195957D01*
X179305444Y-108192014D01*
X179300764Y-108175473D01*
X179237276Y-107951113D01*
X179237275Y-107951111D01*
X179236194Y-107947290D01*
X179212413Y-107896290D01*
X179130390Y-107720392D01*
X179128708Y-107716785D01*
X179126473Y-107713496D01*
X179126470Y-107713491D01*
X178995206Y-107520344D01*
X178985751Y-107506431D01*
X178811002Y-107321638D01*
X178807848Y-107319227D01*
X178807844Y-107319223D01*
X178688799Y-107228207D01*
X178608955Y-107167162D01*
X178605451Y-107165283D01*
X178605446Y-107165280D01*
X178388316Y-107048857D01*
X178388317Y-107048857D01*
X178384810Y-107046977D01*
X178144333Y-106964174D01*
X177944976Y-106929739D01*
X177896786Y-106921415D01*
X177896784Y-106921415D01*
X177893711Y-106920884D01*
X177870302Y-106919821D01*
X177864338Y-106919550D01*
X177864332Y-106919550D01*
X177863234Y-106919500D01*
X177686090Y-106919500D01*
X177684116Y-106919659D01*
X177684112Y-106919659D01*
X177500446Y-106934436D01*
X177500441Y-106934437D01*
X177496486Y-106934755D01*
X177492627Y-106935703D01*
X177492626Y-106935703D01*
X177253360Y-106994472D01*
X177253355Y-106994474D01*
X177249494Y-106995422D01*
X177245833Y-106996976D01*
X177245830Y-106996977D01*
X177073836Y-107069984D01*
X177015378Y-107094798D01*
X176800163Y-107230327D01*
X176732881Y-107289644D01*
X176665667Y-107348902D01*
X176609385Y-107398521D01*
X176606860Y-107401595D01*
X176454511Y-107587067D01*
X176447951Y-107595053D01*
X176445952Y-107598487D01*
X176445951Y-107598489D01*
X176440287Y-107608221D01*
X176320016Y-107814867D01*
X176318588Y-107818586D01*
X176318587Y-107818589D01*
X176230298Y-108048589D01*
X176230296Y-108048596D01*
X176228871Y-108052308D01*
X176228058Y-108056200D01*
X176228057Y-108056203D01*
X176178052Y-108295566D01*
X176176861Y-108301266D01*
X176165324Y-108555338D01*
X170423981Y-108555338D01*
X170425353Y-108502914D01*
X170425353Y-108502909D01*
X170425429Y-108500000D01*
X170420710Y-108448638D01*
X170407176Y-108301355D01*
X170406081Y-108289440D01*
X170356697Y-108114335D01*
X170349920Y-108090306D01*
X170349920Y-108090305D01*
X170348686Y-108085931D01*
X170255165Y-107896290D01*
X170128651Y-107726867D01*
X169973381Y-107583337D01*
X169966752Y-107579154D01*
X169798391Y-107472926D01*
X169794554Y-107470505D01*
X169598160Y-107392152D01*
X169390775Y-107350901D01*
X169286599Y-107349537D01*
X169183886Y-107348192D01*
X169183881Y-107348192D01*
X169179346Y-107348133D01*
X169174873Y-107348902D01*
X169174868Y-107348902D01*
X169071601Y-107366647D01*
X168970953Y-107383941D01*
X168772575Y-107457127D01*
X168768676Y-107459446D01*
X168768671Y-107459449D01*
X168594762Y-107562914D01*
X168590856Y-107565238D01*
X168587441Y-107568233D01*
X168587438Y-107568235D01*
X168560361Y-107591981D01*
X168431881Y-107704655D01*
X168429073Y-107708217D01*
X168306456Y-107863757D01*
X168300976Y-107870708D01*
X168298862Y-107874726D01*
X168219161Y-108026213D01*
X168202523Y-108057836D01*
X168201179Y-108062165D01*
X168143929Y-108246541D01*
X168139820Y-108259773D01*
X168139286Y-108264283D01*
X168139286Y-108264284D01*
X168134899Y-108301354D01*
X168114967Y-108469754D01*
X167882650Y-108469754D01*
X167880710Y-108448638D01*
X167867176Y-108301355D01*
X167866081Y-108289440D01*
X167816697Y-108114335D01*
X167809920Y-108090306D01*
X167809920Y-108090305D01*
X167808686Y-108085931D01*
X167715165Y-107896290D01*
X167588651Y-107726867D01*
X167433381Y-107583337D01*
X167426752Y-107579154D01*
X167258391Y-107472926D01*
X167254554Y-107470505D01*
X167058160Y-107392152D01*
X166850775Y-107350901D01*
X166746599Y-107349537D01*
X166643886Y-107348192D01*
X166643881Y-107348192D01*
X166639346Y-107348133D01*
X166634873Y-107348902D01*
X166634868Y-107348902D01*
X166531601Y-107366647D01*
X166430953Y-107383941D01*
X166232575Y-107457127D01*
X166228676Y-107459446D01*
X166228671Y-107459449D01*
X166054762Y-107562914D01*
X166050856Y-107565238D01*
X166047441Y-107568233D01*
X166047438Y-107568235D01*
X166020361Y-107591981D01*
X165891881Y-107704655D01*
X165889073Y-107708217D01*
X165766456Y-107863757D01*
X165760976Y-107870708D01*
X165758862Y-107874726D01*
X165679161Y-108026213D01*
X165662523Y-108057836D01*
X165661179Y-108062165D01*
X165603929Y-108246541D01*
X165599820Y-108259773D01*
X165599286Y-108264283D01*
X165599286Y-108264284D01*
X165594899Y-108301354D01*
X165574967Y-108469754D01*
X165342650Y-108469754D01*
X165340710Y-108448638D01*
X165327176Y-108301355D01*
X165326081Y-108289440D01*
X165276697Y-108114335D01*
X165269920Y-108090306D01*
X165269920Y-108090305D01*
X165268686Y-108085931D01*
X165175165Y-107896290D01*
X165048651Y-107726867D01*
X164893381Y-107583337D01*
X164886752Y-107579154D01*
X164718391Y-107472926D01*
X164714554Y-107470505D01*
X164518160Y-107392152D01*
X164310775Y-107350901D01*
X164206599Y-107349537D01*
X164103886Y-107348192D01*
X164103881Y-107348192D01*
X164099346Y-107348133D01*
X164094873Y-107348902D01*
X164094868Y-107348902D01*
X163991601Y-107366647D01*
X163890953Y-107383941D01*
X163692575Y-107457127D01*
X163688676Y-107459446D01*
X163688671Y-107459449D01*
X163514762Y-107562914D01*
X163510856Y-107565238D01*
X163507441Y-107568233D01*
X163507438Y-107568235D01*
X163480361Y-107591981D01*
X163351881Y-107704655D01*
X163349073Y-107708217D01*
X163226456Y-107863757D01*
X163220976Y-107870708D01*
X163218862Y-107874726D01*
X163139161Y-108026213D01*
X163122523Y-108057836D01*
X163121179Y-108062165D01*
X163063929Y-108246541D01*
X163059820Y-108259773D01*
X163059286Y-108264283D01*
X163059286Y-108264284D01*
X163054899Y-108301354D01*
X163034967Y-108469754D01*
X162802650Y-108469754D01*
X162800710Y-108448638D01*
X162787176Y-108301355D01*
X162786081Y-108289440D01*
X162736697Y-108114335D01*
X162729920Y-108090306D01*
X162729920Y-108090305D01*
X162728686Y-108085931D01*
X162635165Y-107896290D01*
X162508651Y-107726867D01*
X162353381Y-107583337D01*
X162346752Y-107579154D01*
X162178391Y-107472926D01*
X162174554Y-107470505D01*
X161978160Y-107392152D01*
X161770775Y-107350901D01*
X161666599Y-107349537D01*
X161563886Y-107348192D01*
X161563881Y-107348192D01*
X161559346Y-107348133D01*
X161554873Y-107348902D01*
X161554868Y-107348902D01*
X161451601Y-107366647D01*
X161350953Y-107383941D01*
X161152575Y-107457127D01*
X161148676Y-107459446D01*
X161148671Y-107459449D01*
X160974762Y-107562914D01*
X160970856Y-107565238D01*
X160967441Y-107568233D01*
X160967438Y-107568235D01*
X160940361Y-107591981D01*
X160811881Y-107704655D01*
X160809073Y-107708217D01*
X160686456Y-107863757D01*
X160680976Y-107870708D01*
X160678862Y-107874726D01*
X160599161Y-108026213D01*
X160582523Y-108057836D01*
X160581179Y-108062165D01*
X160523929Y-108246541D01*
X160519820Y-108259773D01*
X160519286Y-108264283D01*
X160519286Y-108264284D01*
X160514899Y-108301354D01*
X160494967Y-108469754D01*
X160262650Y-108469754D01*
X160260710Y-108448638D01*
X160247176Y-108301355D01*
X160246081Y-108289440D01*
X160196697Y-108114335D01*
X160189920Y-108090306D01*
X160189920Y-108090305D01*
X160188686Y-108085931D01*
X160095165Y-107896290D01*
X159968651Y-107726867D01*
X159813381Y-107583337D01*
X159806752Y-107579154D01*
X159638391Y-107472926D01*
X159634554Y-107470505D01*
X159438160Y-107392152D01*
X159230775Y-107350901D01*
X159126599Y-107349537D01*
X159023886Y-107348192D01*
X159023881Y-107348192D01*
X159019346Y-107348133D01*
X159014873Y-107348902D01*
X159014868Y-107348902D01*
X158911601Y-107366647D01*
X158810953Y-107383941D01*
X158612575Y-107457127D01*
X158608676Y-107459446D01*
X158608671Y-107459449D01*
X158434762Y-107562914D01*
X158430856Y-107565238D01*
X158427441Y-107568233D01*
X158427438Y-107568235D01*
X158400361Y-107591981D01*
X158271881Y-107704655D01*
X158269073Y-107708217D01*
X158146456Y-107863757D01*
X158140976Y-107870708D01*
X158138862Y-107874726D01*
X158059161Y-108026213D01*
X158042523Y-108057836D01*
X158041179Y-108062165D01*
X157983929Y-108246541D01*
X157979820Y-108259773D01*
X157979286Y-108264283D01*
X157979286Y-108264284D01*
X157974899Y-108301354D01*
X157954967Y-108469754D01*
X157722650Y-108469754D01*
X157720710Y-108448638D01*
X157707176Y-108301355D01*
X157706081Y-108289440D01*
X157656697Y-108114335D01*
X157649920Y-108090306D01*
X157649920Y-108090305D01*
X157648686Y-108085931D01*
X157555165Y-107896290D01*
X157428651Y-107726867D01*
X157273381Y-107583337D01*
X157266752Y-107579154D01*
X157098391Y-107472926D01*
X157094554Y-107470505D01*
X156898160Y-107392152D01*
X156690775Y-107350901D01*
X156586599Y-107349537D01*
X156483886Y-107348192D01*
X156483881Y-107348192D01*
X156479346Y-107348133D01*
X156474873Y-107348902D01*
X156474868Y-107348902D01*
X156371601Y-107366647D01*
X156270953Y-107383941D01*
X156072575Y-107457127D01*
X156068676Y-107459446D01*
X156068671Y-107459449D01*
X155894762Y-107562914D01*
X155890856Y-107565238D01*
X155887441Y-107568233D01*
X155887438Y-107568235D01*
X155860361Y-107591981D01*
X155731881Y-107704655D01*
X155729073Y-107708217D01*
X155606456Y-107863757D01*
X155600976Y-107870708D01*
X155598862Y-107874726D01*
X155519161Y-108026213D01*
X155502523Y-108057836D01*
X155501179Y-108062165D01*
X155443929Y-108246541D01*
X155439820Y-108259773D01*
X155439286Y-108264283D01*
X155439286Y-108264284D01*
X155434899Y-108301354D01*
X155414967Y-108469754D01*
X155182650Y-108469754D01*
X155180710Y-108448638D01*
X155167176Y-108301355D01*
X155166081Y-108289440D01*
X155116697Y-108114335D01*
X155109920Y-108090306D01*
X155109920Y-108090305D01*
X155108686Y-108085931D01*
X155015165Y-107896290D01*
X154888651Y-107726867D01*
X154733381Y-107583337D01*
X154726752Y-107579154D01*
X154558391Y-107472926D01*
X154554554Y-107470505D01*
X154358160Y-107392152D01*
X154150775Y-107350901D01*
X154046599Y-107349537D01*
X153943886Y-107348192D01*
X153943881Y-107348192D01*
X153939346Y-107348133D01*
X153934873Y-107348902D01*
X153934868Y-107348902D01*
X153831601Y-107366647D01*
X153730953Y-107383941D01*
X153532575Y-107457127D01*
X153528676Y-107459446D01*
X153528671Y-107459449D01*
X153354762Y-107562914D01*
X153350856Y-107565238D01*
X153347441Y-107568233D01*
X153347438Y-107568235D01*
X153320361Y-107591981D01*
X153191881Y-107704655D01*
X153189073Y-107708217D01*
X153066456Y-107863757D01*
X153060976Y-107870708D01*
X153058862Y-107874726D01*
X152979161Y-108026213D01*
X152962523Y-108057836D01*
X152961179Y-108062165D01*
X152903929Y-108246541D01*
X152899820Y-108259773D01*
X152899286Y-108264283D01*
X152899286Y-108264284D01*
X152894899Y-108301354D01*
X152874967Y-108469754D01*
X152642650Y-108469754D01*
X152640710Y-108448638D01*
X152627176Y-108301355D01*
X152626081Y-108289440D01*
X152576697Y-108114335D01*
X152569920Y-108090306D01*
X152569920Y-108090305D01*
X152568686Y-108085931D01*
X152475165Y-107896290D01*
X152348651Y-107726867D01*
X152193381Y-107583337D01*
X152186752Y-107579154D01*
X152018391Y-107472926D01*
X152014554Y-107470505D01*
X151818160Y-107392152D01*
X151610775Y-107350901D01*
X151506599Y-107349537D01*
X151403886Y-107348192D01*
X151403881Y-107348192D01*
X151399346Y-107348133D01*
X151394873Y-107348902D01*
X151394868Y-107348902D01*
X151291601Y-107366647D01*
X151190953Y-107383941D01*
X150992575Y-107457127D01*
X150970284Y-107470389D01*
X150952628Y-107480893D01*
X150892951Y-107494397D01*
X150836735Y-107470244D01*
X150805451Y-107417661D01*
X150811050Y-107356732D01*
X150832006Y-107325808D01*
X155056419Y-103101395D01*
X155066399Y-103093421D01*
X155066384Y-103093404D01*
X155071754Y-103088834D01*
X155077720Y-103085070D01*
X155082388Y-103079785D01*
X155082391Y-103079782D01*
X155113292Y-103044792D01*
X155117492Y-103040322D01*
X155129321Y-103028493D01*
X155136106Y-103019440D01*
X155141101Y-103013304D01*
X155172623Y-102977612D01*
X155175620Y-102971229D01*
X155175622Y-102971226D01*
X155176983Y-102968328D01*
X155187372Y-102951038D01*
X155189297Y-102948470D01*
X155189301Y-102948464D01*
X155193527Y-102942824D01*
X155203860Y-102915262D01*
X155210238Y-102898247D01*
X155213324Y-102890924D01*
X155230552Y-102854230D01*
X155230553Y-102854227D01*
X155233553Y-102847837D01*
X155235132Y-102837698D01*
X155240252Y-102818183D01*
X155241377Y-102815183D01*
X155241377Y-102815181D01*
X155243852Y-102808580D01*
X155247381Y-102761092D01*
X155248287Y-102753207D01*
X155249912Y-102742772D01*
X155249913Y-102742764D01*
X155250500Y-102738991D01*
X155250500Y-102722790D01*
X155250772Y-102715455D01*
X155253953Y-102672641D01*
X155254476Y-102665608D01*
X155252681Y-102657199D01*
X155250500Y-102636532D01*
X155250500Y-97586748D01*
X171706593Y-97586748D01*
X171708256Y-97594569D01*
X171711446Y-97604388D01*
X171784176Y-97767744D01*
X171789329Y-97776669D01*
X171894440Y-97921341D01*
X171901339Y-97929004D01*
X172034224Y-98048654D01*
X172042571Y-98054719D01*
X172197428Y-98144125D01*
X172206860Y-98148324D01*
X172376910Y-98203577D01*
X172387010Y-98205724D01*
X172520272Y-98219730D01*
X172525417Y-98220000D01*
X172850320Y-98220000D01*
X172863005Y-98215878D01*
X172866000Y-98211757D01*
X172866000Y-98204320D01*
X173374000Y-98204320D01*
X173378122Y-98217005D01*
X173382243Y-98220000D01*
X173714583Y-98220000D01*
X173719728Y-98219730D01*
X173852990Y-98205724D01*
X173863090Y-98203577D01*
X174033140Y-98148324D01*
X174042572Y-98144125D01*
X174197429Y-98054719D01*
X174205776Y-98048654D01*
X174338658Y-97929006D01*
X174345565Y-97921335D01*
X174450666Y-97776676D01*
X174455825Y-97767741D01*
X174528554Y-97604388D01*
X174531744Y-97594569D01*
X174532857Y-97589338D01*
X174532585Y-97586748D01*
X176136593Y-97586748D01*
X176138256Y-97594569D01*
X176141446Y-97604388D01*
X176214176Y-97767744D01*
X176219329Y-97776669D01*
X176324440Y-97921341D01*
X176331339Y-97929004D01*
X176464224Y-98048654D01*
X176472571Y-98054719D01*
X176627428Y-98144125D01*
X176636860Y-98148324D01*
X176806910Y-98203577D01*
X176817010Y-98205724D01*
X176950272Y-98219730D01*
X176955417Y-98220000D01*
X177030320Y-98220000D01*
X177043005Y-98215878D01*
X177046000Y-98211757D01*
X177046000Y-98204320D01*
X177554000Y-98204320D01*
X177558122Y-98217005D01*
X177562243Y-98220000D01*
X177644583Y-98220000D01*
X177649728Y-98219730D01*
X177782990Y-98205724D01*
X177793090Y-98203577D01*
X177963140Y-98148324D01*
X177972572Y-98144125D01*
X178127429Y-98054719D01*
X178135776Y-98048654D01*
X178268658Y-97929006D01*
X178275565Y-97921335D01*
X178380666Y-97776676D01*
X178385825Y-97767741D01*
X178458554Y-97604388D01*
X178461744Y-97594569D01*
X178462857Y-97589338D01*
X178461481Y-97576250D01*
X178453083Y-97574000D01*
X177569680Y-97574000D01*
X177556995Y-97578122D01*
X177554000Y-97582243D01*
X177554000Y-98204320D01*
X177046000Y-98204320D01*
X177046000Y-97589680D01*
X177041878Y-97576995D01*
X177037757Y-97574000D01*
X176149563Y-97574000D01*
X176137048Y-97578066D01*
X176136593Y-97586748D01*
X174532585Y-97586748D01*
X174531481Y-97576250D01*
X174523083Y-97574000D01*
X173389680Y-97574000D01*
X173376995Y-97578122D01*
X173374000Y-97582243D01*
X173374000Y-98204320D01*
X172866000Y-98204320D01*
X172866000Y-97589680D01*
X172861878Y-97576995D01*
X172857757Y-97574000D01*
X171719563Y-97574000D01*
X171707048Y-97578066D01*
X171706593Y-97586748D01*
X155250500Y-97586748D01*
X155250500Y-96738753D01*
X166574514Y-96738753D01*
X166579644Y-96791069D01*
X166591499Y-96911984D01*
X166591500Y-96911989D01*
X166592039Y-96917486D01*
X166648726Y-97087896D01*
X166651591Y-97092627D01*
X166651593Y-97092631D01*
X166693048Y-97161081D01*
X166741759Y-97241512D01*
X166866514Y-97370699D01*
X166871139Y-97373725D01*
X166871142Y-97373728D01*
X167012163Y-97466009D01*
X167016789Y-97469036D01*
X167185116Y-97531636D01*
X167190602Y-97532368D01*
X167190606Y-97532369D01*
X167352408Y-97553957D01*
X167363130Y-97555388D01*
X167368636Y-97554887D01*
X167368638Y-97554887D01*
X167452555Y-97547250D01*
X167541981Y-97539112D01*
X167564990Y-97531636D01*
X167707517Y-97485326D01*
X167707519Y-97485325D01*
X167712782Y-97483615D01*
X167717538Y-97480780D01*
X167717540Y-97480779D01*
X167800569Y-97431284D01*
X167860234Y-97417728D01*
X167916472Y-97441832D01*
X167921203Y-97446256D01*
X167970818Y-97495784D01*
X167970820Y-97495786D01*
X167977287Y-97502241D01*
X167985645Y-97505936D01*
X168072864Y-97544496D01*
X168072866Y-97544496D01*
X168079673Y-97547506D01*
X168087067Y-97548368D01*
X168102378Y-97550153D01*
X168105354Y-97550500D01*
X169194646Y-97550500D01*
X169212561Y-97548368D01*
X169213469Y-97548260D01*
X169213470Y-97548260D01*
X169220846Y-97547382D01*
X169323153Y-97501939D01*
X169402241Y-97422713D01*
X169424393Y-97372607D01*
X169444496Y-97327136D01*
X169444496Y-97327134D01*
X169447506Y-97320327D01*
X169450500Y-97294646D01*
X169450500Y-97050662D01*
X171707143Y-97050662D01*
X171708519Y-97063750D01*
X171716917Y-97066000D01*
X174520437Y-97066000D01*
X174532952Y-97061934D01*
X174533407Y-97053252D01*
X174532856Y-97050662D01*
X176137143Y-97050662D01*
X176138519Y-97063750D01*
X176146917Y-97066000D01*
X177030320Y-97066000D01*
X177043005Y-97061878D01*
X177046000Y-97057757D01*
X177046000Y-97050320D01*
X177554000Y-97050320D01*
X177558122Y-97063005D01*
X177562243Y-97066000D01*
X178450437Y-97066000D01*
X178462952Y-97061934D01*
X178463407Y-97053252D01*
X178461744Y-97045431D01*
X178458554Y-97035612D01*
X178385824Y-96872256D01*
X178380671Y-96863331D01*
X178275560Y-96718659D01*
X178268661Y-96710996D01*
X178135776Y-96591346D01*
X178127429Y-96585281D01*
X177972572Y-96495875D01*
X177963140Y-96491676D01*
X177793090Y-96436423D01*
X177782990Y-96434276D01*
X177649728Y-96420270D01*
X177644583Y-96420000D01*
X177569680Y-96420000D01*
X177556995Y-96424122D01*
X177554000Y-96428243D01*
X177554000Y-97050320D01*
X177046000Y-97050320D01*
X177046000Y-96435680D01*
X177041878Y-96422995D01*
X177037757Y-96420000D01*
X176955417Y-96420000D01*
X176950272Y-96420270D01*
X176817010Y-96434276D01*
X176806910Y-96436423D01*
X176636860Y-96491676D01*
X176627428Y-96495875D01*
X176472571Y-96585281D01*
X176464224Y-96591346D01*
X176331342Y-96710994D01*
X176324435Y-96718665D01*
X176219334Y-96863324D01*
X176214175Y-96872259D01*
X176141446Y-97035612D01*
X176138256Y-97045431D01*
X176137143Y-97050662D01*
X174532856Y-97050662D01*
X174531744Y-97045431D01*
X174528554Y-97035612D01*
X174455824Y-96872256D01*
X174450671Y-96863331D01*
X174345560Y-96718659D01*
X174338661Y-96710996D01*
X174205776Y-96591346D01*
X174197429Y-96585281D01*
X174112362Y-96536168D01*
X174071421Y-96490698D01*
X174065025Y-96429848D01*
X174094089Y-96378265D01*
X174097249Y-96375297D01*
X174102287Y-96371637D01*
X174207856Y-96244026D01*
X174210956Y-96237440D01*
X174275722Y-96099805D01*
X174275722Y-96099804D01*
X174278373Y-96094171D01*
X174309406Y-95931486D01*
X174299007Y-95766195D01*
X174263232Y-95656092D01*
X174249751Y-95614601D01*
X174249751Y-95614600D01*
X174247828Y-95608683D01*
X174159086Y-95468848D01*
X174154550Y-95464588D01*
X174154548Y-95464586D01*
X174042899Y-95359740D01*
X174042898Y-95359739D01*
X174038356Y-95355474D01*
X173974477Y-95320356D01*
X173898682Y-95278687D01*
X173898678Y-95278686D01*
X173893224Y-95275687D01*
X173732809Y-95234500D01*
X173608758Y-95234500D01*
X173526103Y-95244942D01*
X173491869Y-95249266D01*
X173491868Y-95249266D01*
X173485688Y-95250047D01*
X173331701Y-95311015D01*
X173197713Y-95408363D01*
X173193747Y-95413158D01*
X173193744Y-95413160D01*
X173158197Y-95456130D01*
X173092144Y-95535974D01*
X173089493Y-95541607D01*
X173089492Y-95541609D01*
X173036961Y-95653243D01*
X173021627Y-95685829D01*
X172990594Y-95848514D01*
X173000993Y-96013805D01*
X173052172Y-96171317D01*
X173055507Y-96176573D01*
X173055508Y-96176574D01*
X173113499Y-96267953D01*
X173128716Y-96327216D01*
X173106192Y-96384105D01*
X173054531Y-96416890D01*
X173029911Y-96420000D01*
X172525417Y-96420000D01*
X172520272Y-96420270D01*
X172387010Y-96434276D01*
X172376910Y-96436423D01*
X172206860Y-96491676D01*
X172197428Y-96495875D01*
X172042571Y-96585281D01*
X172034224Y-96591346D01*
X171901342Y-96710994D01*
X171894435Y-96718665D01*
X171789334Y-96863324D01*
X171784175Y-96872259D01*
X171711446Y-97035612D01*
X171708256Y-97045431D01*
X171707143Y-97050662D01*
X169450500Y-97050662D01*
X169450500Y-96205354D01*
X169447382Y-96179154D01*
X169401939Y-96076847D01*
X169392362Y-96067286D01*
X169344721Y-96019729D01*
X169322713Y-95997759D01*
X169293591Y-95984884D01*
X169227136Y-95955504D01*
X169227134Y-95955504D01*
X169220327Y-95952494D01*
X169206322Y-95950861D01*
X169197494Y-95949832D01*
X169197493Y-95949832D01*
X169194646Y-95949500D01*
X168105354Y-95949500D01*
X168088951Y-95951452D01*
X168086531Y-95951740D01*
X168086530Y-95951740D01*
X168079154Y-95952618D01*
X167976847Y-95998061D01*
X167970390Y-96004529D01*
X167970386Y-96004532D01*
X167921364Y-96053640D01*
X167866871Y-96081466D01*
X167806431Y-96071947D01*
X167798252Y-96067286D01*
X167737812Y-96028930D01*
X167737809Y-96028928D01*
X167733136Y-96025963D01*
X167563951Y-95965719D01*
X167558464Y-95965065D01*
X167558461Y-95965064D01*
X167391120Y-95945110D01*
X167391117Y-95945110D01*
X167385624Y-95944455D01*
X167207017Y-95963227D01*
X167201777Y-95965011D01*
X167201776Y-95965011D01*
X167042249Y-96019318D01*
X167042245Y-96019320D01*
X167037007Y-96021103D01*
X167032297Y-96024001D01*
X167032292Y-96024003D01*
X166888907Y-96112215D01*
X166884045Y-96115206D01*
X166755732Y-96240859D01*
X166658446Y-96391817D01*
X166597022Y-96560578D01*
X166574514Y-96738753D01*
X155250500Y-96738753D01*
X155250500Y-89998322D01*
X155269407Y-89940131D01*
X155279496Y-89928318D01*
X156178317Y-89029496D01*
X156232834Y-89001719D01*
X156248321Y-89000500D01*
X163470849Y-89000500D01*
X163529040Y-89019407D01*
X163537471Y-89026271D01*
X163591233Y-89075191D01*
X163740235Y-89156092D01*
X163780156Y-89166565D01*
X163898464Y-89197603D01*
X163898468Y-89197604D01*
X163904233Y-89199116D01*
X163910194Y-89199210D01*
X163910197Y-89199210D01*
X163988996Y-89200447D01*
X164073760Y-89201779D01*
X164079575Y-89200447D01*
X164079577Y-89200447D01*
X164233206Y-89165262D01*
X164233209Y-89165261D01*
X164239029Y-89163928D01*
X164254610Y-89156092D01*
X164314763Y-89125838D01*
X164390498Y-89087747D01*
X164395035Y-89083872D01*
X164395038Y-89083870D01*
X164514888Y-88981508D01*
X164514891Y-88981505D01*
X164519423Y-88977634D01*
X164541617Y-88946748D01*
X171706593Y-88946748D01*
X171708256Y-88954569D01*
X171711446Y-88964388D01*
X171784176Y-89127744D01*
X171789329Y-89136669D01*
X171894440Y-89281341D01*
X171901339Y-89289004D01*
X172034224Y-89408654D01*
X172042571Y-89414719D01*
X172197428Y-89504125D01*
X172206860Y-89508324D01*
X172376910Y-89563577D01*
X172387010Y-89565724D01*
X172520272Y-89579730D01*
X172525417Y-89580000D01*
X173027336Y-89580000D01*
X173085527Y-89598907D01*
X173121491Y-89648407D01*
X173121491Y-89709593D01*
X173103618Y-89742104D01*
X173092144Y-89755974D01*
X173089493Y-89761607D01*
X173089492Y-89761609D01*
X173024278Y-89900195D01*
X173021627Y-89905829D01*
X172990594Y-90068514D01*
X173000993Y-90233805D01*
X173021181Y-90295938D01*
X173046436Y-90373662D01*
X173052172Y-90391317D01*
X173140914Y-90531152D01*
X173145450Y-90535412D01*
X173145452Y-90535414D01*
X173257101Y-90640260D01*
X173261644Y-90644526D01*
X173267105Y-90647528D01*
X173401318Y-90721313D01*
X173401322Y-90721314D01*
X173406776Y-90724313D01*
X173567191Y-90765500D01*
X173691242Y-90765500D01*
X173773897Y-90755058D01*
X173808131Y-90750734D01*
X173808132Y-90750734D01*
X173814312Y-90749953D01*
X173968299Y-90688985D01*
X174102287Y-90591637D01*
X174106253Y-90586842D01*
X174106256Y-90586840D01*
X174148799Y-90535414D01*
X174207856Y-90464026D01*
X174244856Y-90385399D01*
X174275722Y-90319805D01*
X174275722Y-90319804D01*
X174278373Y-90314171D01*
X174309406Y-90151486D01*
X174299007Y-89986195D01*
X174264059Y-89878638D01*
X174249751Y-89834601D01*
X174249751Y-89834600D01*
X174247828Y-89828683D01*
X174159086Y-89688848D01*
X174154550Y-89684588D01*
X174154548Y-89684586D01*
X174112642Y-89645234D01*
X174090083Y-89624049D01*
X174060608Y-89570434D01*
X174068276Y-89509731D01*
X174108354Y-89466146D01*
X174197429Y-89414719D01*
X174205776Y-89408654D01*
X174338658Y-89289006D01*
X174345565Y-89281335D01*
X174450666Y-89136676D01*
X174455825Y-89127741D01*
X174528554Y-88964388D01*
X174531744Y-88954569D01*
X174532857Y-88949338D01*
X174532585Y-88946748D01*
X176136593Y-88946748D01*
X176138256Y-88954569D01*
X176141446Y-88964388D01*
X176214176Y-89127744D01*
X176219329Y-89136669D01*
X176324440Y-89281341D01*
X176331339Y-89289004D01*
X176464224Y-89408654D01*
X176472571Y-89414719D01*
X176627428Y-89504125D01*
X176636860Y-89508324D01*
X176806910Y-89563577D01*
X176817010Y-89565724D01*
X176950272Y-89579730D01*
X176955417Y-89580000D01*
X177030320Y-89580000D01*
X177043005Y-89575878D01*
X177046000Y-89571757D01*
X177046000Y-89564320D01*
X177554000Y-89564320D01*
X177558122Y-89577005D01*
X177562243Y-89580000D01*
X177644583Y-89580000D01*
X177649728Y-89579730D01*
X177782990Y-89565724D01*
X177793090Y-89563577D01*
X177963140Y-89508324D01*
X177972572Y-89504125D01*
X178127429Y-89414719D01*
X178135776Y-89408654D01*
X178268658Y-89289006D01*
X178275565Y-89281335D01*
X178380666Y-89136676D01*
X178385825Y-89127741D01*
X178458554Y-88964388D01*
X178461744Y-88954569D01*
X178462857Y-88949338D01*
X178461481Y-88936250D01*
X178453083Y-88934000D01*
X177569680Y-88934000D01*
X177556995Y-88938122D01*
X177554000Y-88942243D01*
X177554000Y-89564320D01*
X177046000Y-89564320D01*
X177046000Y-88949680D01*
X177041878Y-88936995D01*
X177037757Y-88934000D01*
X176149563Y-88934000D01*
X176137048Y-88938066D01*
X176136593Y-88946748D01*
X174532585Y-88946748D01*
X174531481Y-88936250D01*
X174523083Y-88934000D01*
X171719563Y-88934000D01*
X171707048Y-88938066D01*
X171706593Y-88946748D01*
X164541617Y-88946748D01*
X164614877Y-88844796D01*
X164614878Y-88844794D01*
X164618361Y-88839947D01*
X164623148Y-88828041D01*
X164679377Y-88688167D01*
X164679378Y-88688165D01*
X164681601Y-88682634D01*
X164686366Y-88649154D01*
X164705034Y-88517985D01*
X164705034Y-88517979D01*
X164705490Y-88514778D01*
X164705645Y-88500000D01*
X164694834Y-88410662D01*
X171707143Y-88410662D01*
X171708519Y-88423750D01*
X171716917Y-88426000D01*
X172850320Y-88426000D01*
X172863005Y-88421878D01*
X172866000Y-88417757D01*
X172866000Y-88410320D01*
X173374000Y-88410320D01*
X173378122Y-88423005D01*
X173382243Y-88426000D01*
X174520437Y-88426000D01*
X174532952Y-88421934D01*
X174533407Y-88413252D01*
X174532856Y-88410662D01*
X176137143Y-88410662D01*
X176138519Y-88423750D01*
X176146917Y-88426000D01*
X177030320Y-88426000D01*
X177043005Y-88421878D01*
X177046000Y-88417757D01*
X177046000Y-88410320D01*
X177554000Y-88410320D01*
X177558122Y-88423005D01*
X177562243Y-88426000D01*
X178450437Y-88426000D01*
X178462952Y-88421934D01*
X178463407Y-88413252D01*
X178461744Y-88405431D01*
X178458554Y-88395612D01*
X178385824Y-88232256D01*
X178380671Y-88223331D01*
X178275560Y-88078659D01*
X178268661Y-88070996D01*
X178135776Y-87951346D01*
X178127429Y-87945281D01*
X177972572Y-87855875D01*
X177963140Y-87851676D01*
X177793090Y-87796423D01*
X177782990Y-87794276D01*
X177649728Y-87780270D01*
X177644583Y-87780000D01*
X177569680Y-87780000D01*
X177556995Y-87784122D01*
X177554000Y-87788243D01*
X177554000Y-88410320D01*
X177046000Y-88410320D01*
X177046000Y-87795680D01*
X177041878Y-87782995D01*
X177037757Y-87780000D01*
X176955417Y-87780000D01*
X176950272Y-87780270D01*
X176817010Y-87794276D01*
X176806910Y-87796423D01*
X176636860Y-87851676D01*
X176627428Y-87855875D01*
X176472571Y-87945281D01*
X176464224Y-87951346D01*
X176331342Y-88070994D01*
X176324435Y-88078665D01*
X176219334Y-88223324D01*
X176214175Y-88232259D01*
X176141446Y-88395612D01*
X176138256Y-88405431D01*
X176137143Y-88410662D01*
X174532856Y-88410662D01*
X174531744Y-88405431D01*
X174528554Y-88395612D01*
X174455824Y-88232256D01*
X174450671Y-88223331D01*
X174345560Y-88078659D01*
X174338661Y-88070996D01*
X174205776Y-87951346D01*
X174197429Y-87945281D01*
X174042572Y-87855875D01*
X174033140Y-87851676D01*
X173863090Y-87796423D01*
X173852990Y-87794276D01*
X173719728Y-87780270D01*
X173714583Y-87780000D01*
X173389680Y-87780000D01*
X173376995Y-87784122D01*
X173374000Y-87788243D01*
X173374000Y-88410320D01*
X172866000Y-88410320D01*
X172866000Y-87795680D01*
X172861878Y-87782995D01*
X172857757Y-87780000D01*
X172525417Y-87780000D01*
X172520272Y-87780270D01*
X172387010Y-87794276D01*
X172376910Y-87796423D01*
X172206860Y-87851676D01*
X172197428Y-87855875D01*
X172042571Y-87945281D01*
X172034224Y-87951346D01*
X171901342Y-88070994D01*
X171894435Y-88078665D01*
X171789334Y-88223324D01*
X171784175Y-88232259D01*
X171711446Y-88395612D01*
X171708256Y-88405431D01*
X171707143Y-88410662D01*
X164694834Y-88410662D01*
X164688685Y-88359847D01*
X164685993Y-88337602D01*
X164685992Y-88337599D01*
X164685276Y-88331680D01*
X164681756Y-88322365D01*
X164673378Y-88300191D01*
X164670496Y-88239074D01*
X164704089Y-88187935D01*
X164761324Y-88166308D01*
X164791109Y-88169439D01*
X164898457Y-88197602D01*
X164898467Y-88197603D01*
X164904233Y-88199116D01*
X164910194Y-88199210D01*
X164910197Y-88199210D01*
X164988965Y-88200447D01*
X165073760Y-88201779D01*
X165079575Y-88200447D01*
X165079577Y-88200447D01*
X165233206Y-88165262D01*
X165233209Y-88165261D01*
X165239029Y-88163928D01*
X165254610Y-88156092D01*
X165314764Y-88125837D01*
X165390498Y-88087747D01*
X165395035Y-88083872D01*
X165395038Y-88083870D01*
X165514888Y-87981508D01*
X165514891Y-87981505D01*
X165519423Y-87977634D01*
X165542671Y-87945281D01*
X165614877Y-87844796D01*
X165614878Y-87844794D01*
X165618361Y-87839947D01*
X165636157Y-87795680D01*
X165679377Y-87688167D01*
X165679378Y-87688165D01*
X165681601Y-87682634D01*
X165685163Y-87657606D01*
X165705034Y-87517985D01*
X165705034Y-87517979D01*
X165705490Y-87514778D01*
X165705645Y-87500000D01*
X165693168Y-87396899D01*
X165685993Y-87337602D01*
X165685992Y-87337599D01*
X165685276Y-87331680D01*
X165625345Y-87173077D01*
X165617138Y-87161135D01*
X165532692Y-87038267D01*
X165529312Y-87033349D01*
X165402721Y-86920560D01*
X165252881Y-86841224D01*
X165164214Y-86818952D01*
X165094231Y-86801373D01*
X165094228Y-86801373D01*
X165088441Y-86799919D01*
X165002841Y-86799471D01*
X164924861Y-86799062D01*
X164924859Y-86799062D01*
X164918895Y-86799031D01*
X164913099Y-86800423D01*
X164913095Y-86800423D01*
X164812757Y-86824513D01*
X164754032Y-86838612D01*
X164678700Y-86877494D01*
X164608675Y-86913636D01*
X164608673Y-86913638D01*
X164603369Y-86916375D01*
X164598871Y-86920299D01*
X164536048Y-86975103D01*
X164479769Y-86999108D01*
X164470968Y-86999500D01*
X163317160Y-86999500D01*
X163304463Y-86998081D01*
X163304461Y-86998104D01*
X163297431Y-86997539D01*
X163290552Y-86995982D01*
X163240164Y-86999108D01*
X163236908Y-86999310D01*
X163230778Y-86999500D01*
X163214060Y-86999500D01*
X163210580Y-86999998D01*
X163210570Y-86999999D01*
X163202864Y-87001102D01*
X163194968Y-87001911D01*
X163154500Y-87004422D01*
X163154498Y-87004422D01*
X163147462Y-87004859D01*
X163140828Y-87007254D01*
X163137813Y-87008342D01*
X163118237Y-87013223D01*
X163117045Y-87013394D01*
X163115064Y-87013677D01*
X163115063Y-87013677D01*
X163108082Y-87014677D01*
X163101663Y-87017596D01*
X163101658Y-87017597D01*
X163064743Y-87034381D01*
X163057385Y-87037377D01*
X163012613Y-87053540D01*
X163004328Y-87059592D01*
X162986914Y-87069768D01*
X162977572Y-87074016D01*
X162972228Y-87078621D01*
X162941505Y-87105093D01*
X162935284Y-87110033D01*
X162923664Y-87118522D01*
X162912200Y-87129986D01*
X162906819Y-87134981D01*
X162868963Y-87167600D01*
X162865126Y-87173520D01*
X162864289Y-87174811D01*
X162851218Y-87190968D01*
X162671202Y-87370984D01*
X162616685Y-87398761D01*
X162601198Y-87399980D01*
X155818833Y-87399980D01*
X155806136Y-87398561D01*
X155806134Y-87398584D01*
X155799102Y-87398018D01*
X155792224Y-87396462D01*
X155738579Y-87399790D01*
X155732449Y-87399980D01*
X155715731Y-87399980D01*
X155712243Y-87400480D01*
X155712238Y-87400480D01*
X155704546Y-87401582D01*
X155696641Y-87402392D01*
X155649133Y-87405339D01*
X155642502Y-87407733D01*
X155642501Y-87407733D01*
X155639484Y-87408822D01*
X155619908Y-87413703D01*
X155618716Y-87413874D01*
X155616735Y-87414157D01*
X155616734Y-87414157D01*
X155609753Y-87415157D01*
X155603334Y-87418076D01*
X155603329Y-87418077D01*
X155566414Y-87434861D01*
X155559056Y-87437857D01*
X155514284Y-87454020D01*
X155505999Y-87460072D01*
X155488585Y-87470248D01*
X155479243Y-87474496D01*
X155473899Y-87479101D01*
X155443176Y-87505573D01*
X155436955Y-87510513D01*
X155425335Y-87519002D01*
X155413871Y-87530466D01*
X155408490Y-87535461D01*
X155370634Y-87568080D01*
X155366797Y-87574000D01*
X155365960Y-87575291D01*
X155352889Y-87591448D01*
X154220464Y-88723872D01*
X154165947Y-88751649D01*
X154105515Y-88742078D01*
X154062250Y-88698813D01*
X154051460Y-88653868D01*
X154051460Y-86197362D01*
X154070367Y-86139171D01*
X154080456Y-86127358D01*
X155465203Y-84742611D01*
X156794394Y-84742611D01*
X156795049Y-84748544D01*
X156795049Y-84748548D01*
X156795566Y-84753231D01*
X156812999Y-84911135D01*
X156871266Y-85070356D01*
X156874591Y-85075305D01*
X156874592Y-85075306D01*
X156887689Y-85094796D01*
X156965830Y-85211083D01*
X157091233Y-85325191D01*
X157240235Y-85406092D01*
X157280819Y-85416739D01*
X157398464Y-85447603D01*
X157398468Y-85447604D01*
X157404233Y-85449116D01*
X157410194Y-85449210D01*
X157410197Y-85449210D01*
X157488965Y-85450447D01*
X157573760Y-85451779D01*
X157579575Y-85450447D01*
X157579577Y-85450447D01*
X157733206Y-85415262D01*
X157733209Y-85415261D01*
X157739029Y-85413928D01*
X157744583Y-85411135D01*
X157885165Y-85340429D01*
X157890498Y-85337747D01*
X157895035Y-85333872D01*
X157895038Y-85333870D01*
X158014888Y-85231508D01*
X158014891Y-85231505D01*
X158019423Y-85227634D01*
X158034875Y-85206130D01*
X158114877Y-85094796D01*
X158114878Y-85094794D01*
X158118361Y-85089947D01*
X158120588Y-85084408D01*
X158120590Y-85084404D01*
X158158309Y-84990577D01*
X158197556Y-84943639D01*
X158256898Y-84928733D01*
X158313668Y-84951555D01*
X158343134Y-84993482D01*
X158369215Y-85064753D01*
X158369217Y-85064756D01*
X158371266Y-85070356D01*
X158374591Y-85075305D01*
X158374592Y-85075306D01*
X158387689Y-85094796D01*
X158465830Y-85211083D01*
X158591233Y-85325191D01*
X158740235Y-85406092D01*
X158780819Y-85416739D01*
X158898464Y-85447603D01*
X158898468Y-85447604D01*
X158904233Y-85449116D01*
X158910194Y-85449210D01*
X158910197Y-85449210D01*
X158988965Y-85450447D01*
X159073760Y-85451779D01*
X159079575Y-85450447D01*
X159079577Y-85450447D01*
X159233206Y-85415262D01*
X159233209Y-85415261D01*
X159239029Y-85413928D01*
X159244583Y-85411135D01*
X159385165Y-85340429D01*
X159390498Y-85337747D01*
X159395035Y-85333872D01*
X159395038Y-85333870D01*
X159514888Y-85231508D01*
X159514891Y-85231505D01*
X159519423Y-85227634D01*
X159534875Y-85206130D01*
X159614877Y-85094796D01*
X159614878Y-85094794D01*
X159618361Y-85089947D01*
X159620590Y-85084404D01*
X159679377Y-84938167D01*
X159679378Y-84938165D01*
X159681601Y-84932634D01*
X159682961Y-84923077D01*
X159702903Y-84782958D01*
X159730911Y-84726903D01*
X159928318Y-84529496D01*
X159982835Y-84501719D01*
X159998322Y-84500500D01*
X165251678Y-84500500D01*
X165309869Y-84519407D01*
X165321682Y-84529496D01*
X165521002Y-84728816D01*
X165549400Y-84787956D01*
X165562999Y-84911135D01*
X165621266Y-85070356D01*
X165624591Y-85075305D01*
X165624592Y-85075306D01*
X165637689Y-85094796D01*
X165715830Y-85211083D01*
X165841233Y-85325191D01*
X165990235Y-85406092D01*
X166030819Y-85416739D01*
X166148464Y-85447603D01*
X166148468Y-85447604D01*
X166154233Y-85449116D01*
X166160194Y-85449210D01*
X166160197Y-85449210D01*
X166238965Y-85450447D01*
X166323760Y-85451779D01*
X166329575Y-85450447D01*
X166329577Y-85450447D01*
X166483206Y-85415262D01*
X166483209Y-85415261D01*
X166489029Y-85413928D01*
X166494583Y-85411135D01*
X166635165Y-85340429D01*
X166640498Y-85337747D01*
X166645035Y-85333872D01*
X166645038Y-85333870D01*
X166764888Y-85231508D01*
X166764891Y-85231505D01*
X166769423Y-85227634D01*
X166784875Y-85206130D01*
X166864877Y-85094796D01*
X166864878Y-85094794D01*
X166868361Y-85089947D01*
X166870590Y-85084404D01*
X166929377Y-84938167D01*
X166929378Y-84938165D01*
X166931601Y-84932634D01*
X166932961Y-84923077D01*
X166955034Y-84767985D01*
X166955034Y-84767979D01*
X166955490Y-84764778D01*
X166955645Y-84750000D01*
X166941743Y-84635119D01*
X166935993Y-84587602D01*
X166935992Y-84587599D01*
X166935276Y-84581680D01*
X166875345Y-84423077D01*
X166779312Y-84283349D01*
X166652721Y-84170560D01*
X166639644Y-84163636D01*
X166508155Y-84094016D01*
X166508152Y-84094015D01*
X166502881Y-84091224D01*
X166501821Y-84090958D01*
X166455744Y-84053644D01*
X166439909Y-83994544D01*
X166461836Y-83937422D01*
X166494290Y-83911282D01*
X166635165Y-83840429D01*
X166640498Y-83837747D01*
X166645035Y-83833872D01*
X166645038Y-83833870D01*
X166764888Y-83731508D01*
X166764891Y-83731505D01*
X166769423Y-83727634D01*
X166784283Y-83706954D01*
X166864877Y-83594796D01*
X166864878Y-83594794D01*
X166868361Y-83589947D01*
X166924417Y-83450506D01*
X166929377Y-83438167D01*
X166929378Y-83438165D01*
X166931601Y-83432634D01*
X166935163Y-83407606D01*
X166955034Y-83267985D01*
X166955034Y-83267979D01*
X166955490Y-83264778D01*
X166955645Y-83250000D01*
X166935276Y-83081680D01*
X166875345Y-82923077D01*
X166867138Y-82911135D01*
X166782692Y-82788267D01*
X166779312Y-82783349D01*
X166652721Y-82670560D01*
X166502881Y-82591224D01*
X166414214Y-82568952D01*
X166344231Y-82551373D01*
X166344228Y-82551373D01*
X166338441Y-82549919D01*
X166252841Y-82549471D01*
X166174861Y-82549062D01*
X166174859Y-82549062D01*
X166168895Y-82549031D01*
X166163099Y-82550423D01*
X166163095Y-82550423D01*
X166062757Y-82574513D01*
X166004032Y-82588612D01*
X165928701Y-82627493D01*
X165858675Y-82663636D01*
X165858673Y-82663638D01*
X165853369Y-82666375D01*
X165848871Y-82670299D01*
X165786048Y-82725103D01*
X165729769Y-82749108D01*
X165720968Y-82749500D01*
X159067161Y-82749500D01*
X159054464Y-82748081D01*
X159054462Y-82748104D01*
X159047430Y-82747538D01*
X159040552Y-82745982D01*
X158986907Y-82749310D01*
X158980777Y-82749500D01*
X158964060Y-82749500D01*
X158960580Y-82749998D01*
X158960570Y-82749999D01*
X158952864Y-82751102D01*
X158944968Y-82751911D01*
X158904501Y-82754422D01*
X158904500Y-82754422D01*
X158897461Y-82754859D01*
X158887809Y-82758343D01*
X158868234Y-82763223D01*
X158858082Y-82764677D01*
X158851663Y-82767595D01*
X158851658Y-82767597D01*
X158814738Y-82784384D01*
X158807382Y-82787379D01*
X158762613Y-82803540D01*
X158754328Y-82809592D01*
X158736914Y-82819768D01*
X158727572Y-82824016D01*
X158722228Y-82828621D01*
X158691505Y-82855093D01*
X158685284Y-82860033D01*
X158673664Y-82868522D01*
X158662200Y-82879986D01*
X158656819Y-82884981D01*
X158618963Y-82917600D01*
X158615126Y-82923520D01*
X158614289Y-82924811D01*
X158601218Y-82940968D01*
X157521979Y-84020207D01*
X157467462Y-84047984D01*
X157451460Y-84049202D01*
X157434652Y-84049114D01*
X157424860Y-84049062D01*
X157424858Y-84049062D01*
X157418895Y-84049031D01*
X157413099Y-84050423D01*
X157413095Y-84050423D01*
X157305703Y-84076207D01*
X157254032Y-84088612D01*
X157178701Y-84127493D01*
X157108675Y-84163636D01*
X157108673Y-84163638D01*
X157103369Y-84166375D01*
X156975604Y-84277831D01*
X156878113Y-84416547D01*
X156875945Y-84422108D01*
X156826196Y-84549707D01*
X156816524Y-84574513D01*
X156794394Y-84742611D01*
X155465203Y-84742611D01*
X160678318Y-79529496D01*
X160732835Y-79501719D01*
X160748322Y-79500500D01*
X165602834Y-79500500D01*
X165615535Y-79501919D01*
X165615537Y-79501897D01*
X165622569Y-79502463D01*
X165629447Y-79504019D01*
X165683101Y-79500690D01*
X165689233Y-79500500D01*
X165705940Y-79500500D01*
X165709427Y-79500001D01*
X165709435Y-79500000D01*
X165717121Y-79498899D01*
X165725024Y-79498089D01*
X165765501Y-79495578D01*
X165765504Y-79495577D01*
X165772538Y-79495141D01*
X165779167Y-79492748D01*
X165779171Y-79492747D01*
X165782187Y-79491658D01*
X165801763Y-79486777D01*
X165802955Y-79486606D01*
X165804936Y-79486323D01*
X165804937Y-79486323D01*
X165811918Y-79485323D01*
X165818337Y-79482404D01*
X165818342Y-79482403D01*
X165855257Y-79465619D01*
X165862615Y-79462623D01*
X165876810Y-79457498D01*
X165907387Y-79446460D01*
X165915672Y-79440408D01*
X165933086Y-79430232D01*
X165942428Y-79425984D01*
X165958341Y-79412272D01*
X165978495Y-79394907D01*
X165984716Y-79389967D01*
X165985146Y-79389653D01*
X165996336Y-79381478D01*
X166007800Y-79370014D01*
X166013181Y-79365019D01*
X166045693Y-79337005D01*
X166045694Y-79337004D01*
X166051037Y-79332400D01*
X166055711Y-79325189D01*
X166068782Y-79309032D01*
X166746609Y-78631205D01*
X166801126Y-78603428D01*
X166838461Y-78604650D01*
X166873719Y-78612628D01*
X167014760Y-78644543D01*
X167014765Y-78644544D01*
X167019186Y-78645544D01*
X167124828Y-78649695D01*
X167225937Y-78653668D01*
X167225938Y-78653668D01*
X167230470Y-78653846D01*
X167439730Y-78623504D01*
X167444029Y-78622045D01*
X167444032Y-78622044D01*
X167635654Y-78556997D01*
X167639955Y-78555537D01*
X167824442Y-78452219D01*
X167987012Y-78317012D01*
X168122219Y-78154442D01*
X168225537Y-77969955D01*
X168241805Y-77922030D01*
X168292044Y-77774032D01*
X168292045Y-77774028D01*
X168293504Y-77769730D01*
X168306406Y-77680749D01*
X168323426Y-77563369D01*
X168323426Y-77563363D01*
X168323846Y-77560470D01*
X168323981Y-77555338D01*
X168325353Y-77502914D01*
X168325353Y-77502909D01*
X168325429Y-77500000D01*
X168322650Y-77469754D01*
X168554967Y-77469754D01*
X168568796Y-77680749D01*
X168569912Y-77685142D01*
X168569912Y-77685144D01*
X168592486Y-77774028D01*
X168620845Y-77885690D01*
X168622747Y-77889815D01*
X168622747Y-77889816D01*
X168696080Y-78048887D01*
X168709369Y-78077714D01*
X168831405Y-78250391D01*
X168982865Y-78397937D01*
X168986638Y-78400458D01*
X169154899Y-78512887D01*
X169154902Y-78512889D01*
X169158677Y-78515411D01*
X169255472Y-78556997D01*
X169348774Y-78597083D01*
X169348778Y-78597084D01*
X169352953Y-78598878D01*
X169387320Y-78606655D01*
X169554760Y-78644543D01*
X169554765Y-78644544D01*
X169559186Y-78645544D01*
X169664828Y-78649695D01*
X169765937Y-78653668D01*
X169765938Y-78653668D01*
X169770470Y-78653846D01*
X169979730Y-78623504D01*
X169984029Y-78622045D01*
X169984032Y-78622044D01*
X170175654Y-78556997D01*
X170179955Y-78555537D01*
X170364442Y-78452219D01*
X170527012Y-78317012D01*
X170662219Y-78154442D01*
X170765537Y-77969955D01*
X170807255Y-77847057D01*
X170843864Y-77798032D01*
X170902297Y-77779888D01*
X170960235Y-77799556D01*
X170995548Y-77849522D01*
X171000001Y-77878880D01*
X171000001Y-78377585D01*
X171000611Y-78385329D01*
X171013616Y-78467449D01*
X171018373Y-78482091D01*
X171068823Y-78581106D01*
X171077865Y-78593551D01*
X171156449Y-78672135D01*
X171168894Y-78681177D01*
X171267912Y-78731629D01*
X171282547Y-78736384D01*
X171364673Y-78749391D01*
X171372412Y-78750000D01*
X171980320Y-78750000D01*
X171993005Y-78745878D01*
X171996000Y-78741757D01*
X171996000Y-78734319D01*
X172504000Y-78734319D01*
X172508122Y-78747004D01*
X172512243Y-78749999D01*
X173127585Y-78749999D01*
X173135329Y-78749389D01*
X173217449Y-78736384D01*
X173232091Y-78731627D01*
X173331106Y-78681177D01*
X173343551Y-78672135D01*
X173422135Y-78593551D01*
X173431177Y-78581106D01*
X173481629Y-78482088D01*
X173486384Y-78467453D01*
X173499391Y-78385327D01*
X173500000Y-78377588D01*
X173500000Y-77769680D01*
X173495878Y-77756995D01*
X173491757Y-77754000D01*
X172519680Y-77754000D01*
X172506995Y-77758122D01*
X172504000Y-77762243D01*
X172504000Y-78734319D01*
X171996000Y-78734319D01*
X171996000Y-77555338D01*
X176165324Y-77555338D01*
X176165781Y-77559286D01*
X176165781Y-77559291D01*
X176194099Y-77804039D01*
X176194556Y-77807986D01*
X176195636Y-77811804D01*
X176195637Y-77811807D01*
X176260928Y-78042539D01*
X176263806Y-78052710D01*
X176265484Y-78056309D01*
X176265485Y-78056311D01*
X176277193Y-78081418D01*
X176371292Y-78283215D01*
X176373527Y-78286504D01*
X176373530Y-78286509D01*
X176451686Y-78401511D01*
X176514249Y-78493569D01*
X176635741Y-78622044D01*
X176665815Y-78653846D01*
X176688998Y-78678362D01*
X176692152Y-78680773D01*
X176692156Y-78680777D01*
X176778778Y-78747004D01*
X176891045Y-78832838D01*
X176894549Y-78834717D01*
X176894554Y-78834720D01*
X177022050Y-78903082D01*
X177115190Y-78953023D01*
X177355667Y-79035826D01*
X177546939Y-79068864D01*
X177603214Y-79078585D01*
X177603216Y-79078585D01*
X177606289Y-79079116D01*
X177629698Y-79080179D01*
X177635662Y-79080450D01*
X177635668Y-79080450D01*
X177636766Y-79080500D01*
X177813910Y-79080500D01*
X177815884Y-79080341D01*
X177815888Y-79080341D01*
X177999554Y-79065564D01*
X177999559Y-79065563D01*
X178003514Y-79065245D01*
X178007374Y-79064297D01*
X178246640Y-79005528D01*
X178246645Y-79005526D01*
X178250506Y-79004578D01*
X178254167Y-79003024D01*
X178254170Y-79003023D01*
X178480959Y-78906757D01*
X178480961Y-78906756D01*
X178484622Y-78905202D01*
X178699837Y-78769673D01*
X178825271Y-78659088D01*
X178887632Y-78604109D01*
X178887633Y-78604108D01*
X178890615Y-78601479D01*
X178908376Y-78579856D01*
X179049526Y-78408019D01*
X179049528Y-78408016D01*
X179052049Y-78404947D01*
X179067973Y-78377588D01*
X179177980Y-78188576D01*
X179179984Y-78185133D01*
X179189280Y-78160917D01*
X179269702Y-77951411D01*
X179269704Y-77951404D01*
X179271129Y-77947692D01*
X179284082Y-77885690D01*
X179322325Y-77702632D01*
X179322326Y-77702628D01*
X179323139Y-77698734D01*
X179334676Y-77444662D01*
X179319928Y-77317190D01*
X179305901Y-77195961D01*
X179305900Y-77195957D01*
X179305444Y-77192014D01*
X179301377Y-77177639D01*
X179237276Y-76951113D01*
X179237275Y-76951111D01*
X179236194Y-76947290D01*
X179212413Y-76896290D01*
X179130390Y-76720392D01*
X179128708Y-76716785D01*
X179126473Y-76713496D01*
X179126470Y-76713491D01*
X179003499Y-76532547D01*
X178985751Y-76506431D01*
X178811002Y-76321638D01*
X178807848Y-76319227D01*
X178807844Y-76319223D01*
X178688799Y-76228207D01*
X178608955Y-76167162D01*
X178605451Y-76165283D01*
X178605446Y-76165280D01*
X178388316Y-76048857D01*
X178388317Y-76048857D01*
X178384810Y-76046977D01*
X178144333Y-75964174D01*
X177953061Y-75931136D01*
X177896786Y-75921415D01*
X177896784Y-75921415D01*
X177893711Y-75920884D01*
X177870302Y-75919821D01*
X177864338Y-75919550D01*
X177864332Y-75919550D01*
X177863234Y-75919500D01*
X177686090Y-75919500D01*
X177684116Y-75919659D01*
X177684112Y-75919659D01*
X177500446Y-75934436D01*
X177500441Y-75934437D01*
X177496486Y-75934755D01*
X177492627Y-75935703D01*
X177492626Y-75935703D01*
X177253360Y-75994472D01*
X177253355Y-75994474D01*
X177249494Y-75995422D01*
X177245833Y-75996976D01*
X177245830Y-75996977D01*
X177019041Y-76093243D01*
X177015378Y-76094798D01*
X176800163Y-76230327D01*
X176732881Y-76289644D01*
X176665667Y-76348902D01*
X176609385Y-76398521D01*
X176606860Y-76401595D01*
X176455046Y-76586416D01*
X176447951Y-76595053D01*
X176445952Y-76598487D01*
X176445951Y-76598489D01*
X176432026Y-76622415D01*
X176320016Y-76814867D01*
X176318588Y-76818586D01*
X176318587Y-76818589D01*
X176230298Y-77048589D01*
X176230296Y-77048596D01*
X176228871Y-77052308D01*
X176228058Y-77056200D01*
X176228057Y-77056203D01*
X176178052Y-77295566D01*
X176176861Y-77301266D01*
X176165324Y-77555338D01*
X171996000Y-77555338D01*
X171996000Y-77230320D01*
X172504000Y-77230320D01*
X172508122Y-77243005D01*
X172512243Y-77246000D01*
X173484319Y-77246000D01*
X173497004Y-77241878D01*
X173499999Y-77237757D01*
X173499999Y-76622415D01*
X173499389Y-76614671D01*
X173486384Y-76532551D01*
X173481627Y-76517909D01*
X173431177Y-76418894D01*
X173422135Y-76406449D01*
X173343551Y-76327865D01*
X173331106Y-76318823D01*
X173232088Y-76268371D01*
X173217453Y-76263616D01*
X173135327Y-76250609D01*
X173127588Y-76250000D01*
X172519680Y-76250000D01*
X172506995Y-76254122D01*
X172504000Y-76258243D01*
X172504000Y-77230320D01*
X171996000Y-77230320D01*
X171996000Y-76265681D01*
X171991878Y-76252996D01*
X171987757Y-76250001D01*
X171372415Y-76250001D01*
X171364671Y-76250611D01*
X171282551Y-76263616D01*
X171267909Y-76268373D01*
X171168894Y-76318823D01*
X171156449Y-76327865D01*
X171077865Y-76406449D01*
X171068823Y-76418894D01*
X171018371Y-76517912D01*
X171013616Y-76532547D01*
X171000609Y-76614673D01*
X171000000Y-76622412D01*
X171000000Y-77119448D01*
X170981093Y-77177639D01*
X170931593Y-77213603D01*
X170870407Y-77213603D01*
X170820907Y-77177639D01*
X170805717Y-77146320D01*
X170789920Y-77090306D01*
X170789920Y-77090305D01*
X170788686Y-77085931D01*
X170695165Y-76896290D01*
X170568651Y-76726867D01*
X170413381Y-76583337D01*
X170332891Y-76532551D01*
X170238391Y-76472926D01*
X170234554Y-76470505D01*
X170038160Y-76392152D01*
X169830775Y-76350901D01*
X169726599Y-76349537D01*
X169623886Y-76348192D01*
X169623881Y-76348192D01*
X169619346Y-76348133D01*
X169614873Y-76348902D01*
X169614868Y-76348902D01*
X169511601Y-76366647D01*
X169410953Y-76383941D01*
X169212575Y-76457127D01*
X169208676Y-76459446D01*
X169208671Y-76459449D01*
X169085798Y-76532551D01*
X169030856Y-76565238D01*
X169027441Y-76568233D01*
X169027438Y-76568235D01*
X169012977Y-76580917D01*
X168871881Y-76704655D01*
X168869073Y-76708217D01*
X168787712Y-76811424D01*
X168740976Y-76870708D01*
X168642523Y-77057836D01*
X168641179Y-77062165D01*
X168583929Y-77246541D01*
X168579820Y-77259773D01*
X168579286Y-77264283D01*
X168579286Y-77264284D01*
X168574899Y-77301354D01*
X168554967Y-77469754D01*
X168322650Y-77469754D01*
X168320710Y-77448638D01*
X168307533Y-77305245D01*
X168306081Y-77289440D01*
X168248686Y-77085931D01*
X168155165Y-76896290D01*
X168028651Y-76726867D01*
X167873381Y-76583337D01*
X167792891Y-76532551D01*
X167698391Y-76472926D01*
X167694554Y-76470505D01*
X167498160Y-76392152D01*
X167290775Y-76350901D01*
X167186599Y-76349537D01*
X167083886Y-76348192D01*
X167083881Y-76348192D01*
X167079346Y-76348133D01*
X167074873Y-76348902D01*
X167074868Y-76348902D01*
X166971601Y-76366647D01*
X166870953Y-76383941D01*
X166672575Y-76457127D01*
X166668676Y-76459446D01*
X166668671Y-76459449D01*
X166545798Y-76532551D01*
X166490856Y-76565238D01*
X166487441Y-76568233D01*
X166487438Y-76568235D01*
X166472977Y-76580917D01*
X166331881Y-76704655D01*
X166329073Y-76708217D01*
X166247712Y-76811424D01*
X166200976Y-76870708D01*
X166102523Y-77057836D01*
X166101179Y-77062165D01*
X166043929Y-77246541D01*
X166039820Y-77259773D01*
X166039286Y-77264283D01*
X166039286Y-77264284D01*
X166034899Y-77301354D01*
X166014967Y-77469754D01*
X166028796Y-77680749D01*
X166029912Y-77685142D01*
X166029912Y-77685144D01*
X166066106Y-77827657D01*
X166062104Y-77888711D01*
X166040156Y-77922030D01*
X165801269Y-78160917D01*
X165746752Y-78188694D01*
X165686320Y-78179123D01*
X165643055Y-78135858D01*
X165633484Y-78075426D01*
X165644888Y-78042539D01*
X165683319Y-77973916D01*
X165683320Y-77973914D01*
X165685537Y-77969955D01*
X165701805Y-77922030D01*
X165752044Y-77774032D01*
X165752045Y-77774028D01*
X165753504Y-77769730D01*
X165766406Y-77680749D01*
X165783426Y-77563369D01*
X165783426Y-77563363D01*
X165783846Y-77560470D01*
X165783981Y-77555338D01*
X165785353Y-77502914D01*
X165785353Y-77502909D01*
X165785429Y-77500000D01*
X165780710Y-77448638D01*
X165767533Y-77305245D01*
X165766081Y-77289440D01*
X165708686Y-77085931D01*
X165615165Y-76896290D01*
X165488651Y-76726867D01*
X165333381Y-76583337D01*
X165252891Y-76532551D01*
X165158391Y-76472926D01*
X165154554Y-76470505D01*
X164958160Y-76392152D01*
X164750775Y-76350901D01*
X164646599Y-76349537D01*
X164543886Y-76348192D01*
X164543881Y-76348192D01*
X164539346Y-76348133D01*
X164534873Y-76348902D01*
X164534868Y-76348902D01*
X164431601Y-76366647D01*
X164330953Y-76383941D01*
X164132575Y-76457127D01*
X164128676Y-76459446D01*
X164128671Y-76459449D01*
X164005798Y-76532551D01*
X163950856Y-76565238D01*
X163947441Y-76568233D01*
X163947438Y-76568235D01*
X163932977Y-76580917D01*
X163791881Y-76704655D01*
X163789073Y-76708217D01*
X163707712Y-76811424D01*
X163660976Y-76870708D01*
X163562523Y-77057836D01*
X163561179Y-77062165D01*
X163504694Y-77244076D01*
X163469381Y-77294042D01*
X163411443Y-77313710D01*
X163353010Y-77295566D01*
X163316401Y-77246541D01*
X163314520Y-77240341D01*
X163270221Y-77075015D01*
X163267275Y-77066922D01*
X163178497Y-76876538D01*
X163174185Y-76869068D01*
X163053692Y-76696987D01*
X163048159Y-76690392D01*
X162899608Y-76541841D01*
X162893013Y-76536308D01*
X162720933Y-76415815D01*
X162713463Y-76411503D01*
X162523078Y-76322725D01*
X162514985Y-76319779D01*
X162359145Y-76278022D01*
X162346859Y-76278666D01*
X162344000Y-76288317D01*
X162344000Y-77655000D01*
X162325093Y-77713191D01*
X162275593Y-77749155D01*
X162245000Y-77754000D01*
X161935000Y-77754000D01*
X161876809Y-77735093D01*
X161840845Y-77685593D01*
X161836000Y-77655000D01*
X161836000Y-76289644D01*
X161832198Y-76277942D01*
X161822136Y-76277679D01*
X161665015Y-76319779D01*
X161656922Y-76322725D01*
X161466538Y-76411503D01*
X161459068Y-76415815D01*
X161286987Y-76536308D01*
X161280392Y-76541841D01*
X161131841Y-76690392D01*
X161126308Y-76696987D01*
X161005815Y-76869068D01*
X161001503Y-76876538D01*
X160912725Y-77066922D01*
X160909779Y-77075015D01*
X160864513Y-77243949D01*
X160831189Y-77295263D01*
X160774067Y-77317190D01*
X160714967Y-77301354D01*
X160676462Y-77253804D01*
X160673607Y-77245209D01*
X160628686Y-77085931D01*
X160535165Y-76896290D01*
X160408651Y-76726867D01*
X160253381Y-76583337D01*
X160172891Y-76532551D01*
X160078391Y-76472926D01*
X160074554Y-76470505D01*
X159878160Y-76392152D01*
X159670775Y-76350901D01*
X159566599Y-76349537D01*
X159463886Y-76348192D01*
X159463881Y-76348192D01*
X159459346Y-76348133D01*
X159454873Y-76348902D01*
X159454868Y-76348902D01*
X159351601Y-76366647D01*
X159250953Y-76383941D01*
X159052575Y-76457127D01*
X159048676Y-76459446D01*
X159048671Y-76459449D01*
X158925798Y-76532551D01*
X158870856Y-76565238D01*
X158867441Y-76568233D01*
X158867438Y-76568235D01*
X158852977Y-76580917D01*
X158711881Y-76704655D01*
X158709073Y-76708217D01*
X158627712Y-76811424D01*
X158580976Y-76870708D01*
X158482523Y-77057836D01*
X158481179Y-77062165D01*
X158423929Y-77246541D01*
X158419820Y-77259773D01*
X158419286Y-77264283D01*
X158419286Y-77264284D01*
X158414899Y-77301354D01*
X158394967Y-77469754D01*
X158408796Y-77680749D01*
X158409912Y-77685142D01*
X158409912Y-77685144D01*
X158432486Y-77774028D01*
X158460845Y-77885690D01*
X158462747Y-77889815D01*
X158462747Y-77889816D01*
X158536080Y-78048887D01*
X158549369Y-78077714D01*
X158671405Y-78250391D01*
X158822865Y-78397937D01*
X158826638Y-78400458D01*
X158994899Y-78512887D01*
X158994902Y-78512889D01*
X158998677Y-78515411D01*
X159095472Y-78556997D01*
X159188774Y-78597083D01*
X159188778Y-78597084D01*
X159192953Y-78598878D01*
X159227320Y-78606655D01*
X159394760Y-78644543D01*
X159394765Y-78644544D01*
X159399186Y-78645544D01*
X159504828Y-78649695D01*
X159605937Y-78653668D01*
X159605938Y-78653668D01*
X159610470Y-78653846D01*
X159819730Y-78623504D01*
X159945954Y-78580657D01*
X160007133Y-78579856D01*
X160057099Y-78615169D01*
X160076767Y-78673107D01*
X160058623Y-78731540D01*
X160047779Y-78744407D01*
X153244541Y-85547645D01*
X153234561Y-85555619D01*
X153234576Y-85555636D01*
X153229206Y-85560206D01*
X153223240Y-85563970D01*
X153218572Y-85569255D01*
X153218569Y-85569258D01*
X153187668Y-85604248D01*
X153183468Y-85608718D01*
X153171640Y-85620546D01*
X153164862Y-85629590D01*
X153159856Y-85635739D01*
X153128337Y-85671428D01*
X153123978Y-85680711D01*
X153113587Y-85698006D01*
X153107434Y-85706216D01*
X153101221Y-85722790D01*
X153090725Y-85750786D01*
X153087640Y-85758106D01*
X153070406Y-85794814D01*
X153070405Y-85794818D01*
X153067407Y-85801203D01*
X153066322Y-85808171D01*
X153066321Y-85808175D01*
X153065830Y-85811332D01*
X153060707Y-85830860D01*
X153057108Y-85840460D01*
X153056586Y-85847489D01*
X153053580Y-85887938D01*
X153052673Y-85895833D01*
X153051048Y-85906268D01*
X153051047Y-85906276D01*
X153050460Y-85910049D01*
X153050460Y-85926249D01*
X153050188Y-85933585D01*
X153046484Y-85983432D01*
X153047956Y-85990327D01*
X153047956Y-85990329D01*
X153048279Y-85991841D01*
X153050460Y-86012508D01*
X153050460Y-101955018D01*
X153031553Y-102013209D01*
X153021464Y-102025022D01*
X149175502Y-105870984D01*
X149120985Y-105898761D01*
X149105498Y-105899980D01*
X143496686Y-105899980D01*
X143483985Y-105898561D01*
X143483983Y-105898583D01*
X143476951Y-105898017D01*
X143470073Y-105896461D01*
X143418913Y-105899635D01*
X143416418Y-105899790D01*
X143410287Y-105899980D01*
X143393580Y-105899980D01*
X143390093Y-105900479D01*
X143390085Y-105900480D01*
X143382399Y-105901581D01*
X143374496Y-105902391D01*
X143334019Y-105904902D01*
X143334016Y-105904903D01*
X143326982Y-105905339D01*
X143320353Y-105907732D01*
X143320349Y-105907733D01*
X143317333Y-105908822D01*
X143297757Y-105913703D01*
X143296565Y-105913874D01*
X143294584Y-105914157D01*
X143294583Y-105914157D01*
X143287602Y-105915157D01*
X143281183Y-105918076D01*
X143281178Y-105918077D01*
X143244263Y-105934861D01*
X143236905Y-105937857D01*
X143192133Y-105954020D01*
X143183848Y-105960072D01*
X143166434Y-105970248D01*
X143157092Y-105974496D01*
X143151748Y-105979101D01*
X143121025Y-106005573D01*
X143114804Y-106010513D01*
X143103184Y-106019002D01*
X143091720Y-106030466D01*
X143086339Y-106035461D01*
X143058239Y-106059674D01*
X143048483Y-106068080D01*
X143044646Y-106074000D01*
X143043809Y-106075291D01*
X143030738Y-106091448D01*
X141754923Y-107367263D01*
X141700406Y-107395040D01*
X141658519Y-107392295D01*
X141658160Y-107392152D01*
X141450775Y-107350901D01*
X141346599Y-107349537D01*
X141243886Y-107348192D01*
X141243881Y-107348192D01*
X141239346Y-107348133D01*
X141234873Y-107348902D01*
X141234868Y-107348902D01*
X141131601Y-107366647D01*
X141030953Y-107383941D01*
X140832575Y-107457127D01*
X140828676Y-107459446D01*
X140828671Y-107459449D01*
X140654762Y-107562914D01*
X140650856Y-107565238D01*
X140647441Y-107568233D01*
X140647438Y-107568235D01*
X140620361Y-107591981D01*
X140491881Y-107704655D01*
X140489073Y-107708217D01*
X140366456Y-107863757D01*
X140360976Y-107870708D01*
X140358862Y-107874726D01*
X140279161Y-108026213D01*
X140262523Y-108057836D01*
X140261179Y-108062165D01*
X140203929Y-108246541D01*
X140199820Y-108259773D01*
X140199286Y-108264283D01*
X140199286Y-108264284D01*
X140194899Y-108301354D01*
X140174967Y-108469754D01*
X139942650Y-108469754D01*
X139940710Y-108448638D01*
X139927176Y-108301355D01*
X139926081Y-108289440D01*
X139876697Y-108114335D01*
X139869920Y-108090306D01*
X139869920Y-108090305D01*
X139868686Y-108085931D01*
X139775165Y-107896290D01*
X139648651Y-107726867D01*
X139493381Y-107583337D01*
X139487574Y-107579673D01*
X139436672Y-107547556D01*
X139397548Y-107500514D01*
X139390500Y-107463829D01*
X139390500Y-106499743D01*
X139409407Y-106441552D01*
X139419496Y-106429739D01*
X140969739Y-104879496D01*
X141024256Y-104851719D01*
X141039743Y-104850500D01*
X148454151Y-104850500D01*
X148467072Y-104851347D01*
X148500000Y-104855682D01*
X148532928Y-104851347D01*
X148539361Y-104850500D01*
X148656762Y-104835044D01*
X148802841Y-104774536D01*
X148928282Y-104678282D01*
X148948498Y-104651936D01*
X148957036Y-104642199D01*
X151142199Y-102457036D01*
X151151936Y-102448498D01*
X151173129Y-102432236D01*
X151178282Y-102428282D01*
X151274536Y-102302841D01*
X151335044Y-102156762D01*
X151335890Y-102150337D01*
X151335891Y-102150333D01*
X151341689Y-102106291D01*
X151354836Y-102006433D01*
X151355683Y-102000000D01*
X151351347Y-101967066D01*
X151350500Y-101954143D01*
X151350500Y-98545849D01*
X151351347Y-98532927D01*
X151354835Y-98506433D01*
X151355682Y-98500000D01*
X151335044Y-98343238D01*
X151274536Y-98197159D01*
X151270590Y-98192017D01*
X151270588Y-98192013D01*
X151202450Y-98103215D01*
X151202449Y-98103213D01*
X151182233Y-98076866D01*
X151182229Y-98076862D01*
X151178282Y-98071718D01*
X151151936Y-98051502D01*
X151142199Y-98042964D01*
X149527036Y-96427801D01*
X149518498Y-96418064D01*
X149502236Y-96396871D01*
X149498282Y-96391718D01*
X149372841Y-96295464D01*
X149226762Y-96234956D01*
X149109361Y-96219500D01*
X149076434Y-96215165D01*
X149070000Y-96214318D01*
X149041600Y-96218057D01*
X149037073Y-96218653D01*
X149024151Y-96219500D01*
X148849785Y-96219500D01*
X148791594Y-96200593D01*
X148770461Y-96179734D01*
X148768102Y-96176574D01*
X148696335Y-96080467D01*
X148547812Y-95943174D01*
X148525125Y-95928859D01*
X148380594Y-95837667D01*
X148376757Y-95835246D01*
X148188898Y-95760298D01*
X147990526Y-95720839D01*
X147890930Y-95719535D01*
X147792826Y-95718251D01*
X147792821Y-95718251D01*
X147788286Y-95718192D01*
X147783813Y-95718961D01*
X147783808Y-95718961D01*
X147685245Y-95735898D01*
X147588949Y-95752444D01*
X147399193Y-95822449D01*
X147225371Y-95925862D01*
X147221956Y-95928857D01*
X147221953Y-95928859D01*
X147177807Y-95967574D01*
X147073305Y-96059220D01*
X147070497Y-96062782D01*
X146951037Y-96214318D01*
X146948089Y-96218057D01*
X146853914Y-96397053D01*
X146852569Y-96401384D01*
X146852568Y-96401387D01*
X146803139Y-96560578D01*
X146793937Y-96590213D01*
X146782975Y-96682834D01*
X146771189Y-96782413D01*
X146770164Y-96791069D01*
X146770461Y-96795597D01*
X146780097Y-96942615D01*
X146783392Y-96992894D01*
X146784508Y-96997287D01*
X146784508Y-96997289D01*
X146812248Y-97106516D01*
X146808246Y-97167570D01*
X146786297Y-97200889D01*
X146313284Y-97673901D01*
X146258768Y-97701678D01*
X146198336Y-97692107D01*
X146155071Y-97648842D01*
X146145500Y-97588410D01*
X146167166Y-97540592D01*
X146199062Y-97502241D01*
X146245837Y-97446001D01*
X146261671Y-97417728D01*
X146282652Y-97380262D01*
X146344664Y-97269531D01*
X146409678Y-97078007D01*
X146410368Y-97073252D01*
X146438283Y-96880717D01*
X146438700Y-96877842D01*
X146440215Y-96820000D01*
X146438475Y-96801057D01*
X146422123Y-96623109D01*
X146421708Y-96618591D01*
X146366807Y-96423926D01*
X146348680Y-96387167D01*
X146279359Y-96246599D01*
X146277351Y-96242527D01*
X146156335Y-96080467D01*
X146007812Y-95943174D01*
X145985125Y-95928859D01*
X145840594Y-95837667D01*
X145836757Y-95835246D01*
X145648898Y-95760298D01*
X145450526Y-95720839D01*
X145350930Y-95719535D01*
X145252826Y-95718251D01*
X145252821Y-95718251D01*
X145248286Y-95718192D01*
X145243813Y-95718961D01*
X145243808Y-95718961D01*
X145145245Y-95735898D01*
X145048949Y-95752444D01*
X145045976Y-95753541D01*
X144985280Y-95750361D01*
X144950753Y-95727940D01*
X142343758Y-93120944D01*
X142315981Y-93066427D01*
X142325552Y-93005995D01*
X142368817Y-92962730D01*
X142413762Y-92951940D01*
X144667483Y-92951940D01*
X144725674Y-92970847D01*
X144734106Y-92977713D01*
X144841233Y-93075191D01*
X144990235Y-93156092D01*
X145025189Y-93165262D01*
X145148464Y-93197603D01*
X145148468Y-93197604D01*
X145154233Y-93199116D01*
X145160194Y-93199210D01*
X145160197Y-93199210D01*
X145238965Y-93200447D01*
X145323760Y-93201779D01*
X145329575Y-93200447D01*
X145329577Y-93200447D01*
X145483206Y-93165262D01*
X145483209Y-93165261D01*
X145489029Y-93163928D01*
X145494583Y-93161135D01*
X145635165Y-93090429D01*
X145640498Y-93087747D01*
X145645035Y-93083872D01*
X145645038Y-93083870D01*
X145764888Y-92981508D01*
X145764891Y-92981505D01*
X145769423Y-92977634D01*
X145774300Y-92970847D01*
X145864877Y-92844796D01*
X145864878Y-92844794D01*
X145868361Y-92839947D01*
X145872188Y-92830429D01*
X145929377Y-92688167D01*
X145929378Y-92688165D01*
X145931601Y-92682634D01*
X145933863Y-92666739D01*
X145955034Y-92517985D01*
X145955034Y-92517979D01*
X145955490Y-92514778D01*
X145955645Y-92500000D01*
X145936769Y-92344017D01*
X145935993Y-92337602D01*
X145935992Y-92337599D01*
X145935276Y-92331680D01*
X145875345Y-92173077D01*
X145867138Y-92161135D01*
X145782692Y-92038267D01*
X145779312Y-92033349D01*
X145652721Y-91920560D01*
X145502881Y-91841224D01*
X145414214Y-91818952D01*
X145344231Y-91801373D01*
X145344228Y-91801373D01*
X145338441Y-91799919D01*
X145252841Y-91799471D01*
X145174861Y-91799062D01*
X145174859Y-91799062D01*
X145168895Y-91799031D01*
X145163099Y-91800423D01*
X145163095Y-91800423D01*
X145062757Y-91824513D01*
X145004032Y-91838612D01*
X144955167Y-91863833D01*
X144858675Y-91913636D01*
X144858673Y-91913638D01*
X144853369Y-91916375D01*
X144848874Y-91920297D01*
X144848870Y-91920299D01*
X144841713Y-91926543D01*
X144785433Y-91950548D01*
X144776633Y-91950940D01*
X136287450Y-91950940D01*
X136229259Y-91932033D01*
X136193295Y-91882533D01*
X136189167Y-91863833D01*
X136185993Y-91837603D01*
X136185993Y-91837601D01*
X136185276Y-91831680D01*
X136125345Y-91673077D01*
X136029312Y-91533349D01*
X135902721Y-91420560D01*
X135752881Y-91341224D01*
X135670661Y-91320571D01*
X135594231Y-91301373D01*
X135594228Y-91301373D01*
X135588441Y-91299919D01*
X135502841Y-91299471D01*
X135424861Y-91299062D01*
X135424859Y-91299062D01*
X135418895Y-91299031D01*
X135413099Y-91300423D01*
X135413095Y-91300423D01*
X135305703Y-91326207D01*
X135254032Y-91338612D01*
X135178701Y-91377493D01*
X135108675Y-91413636D01*
X135108673Y-91413638D01*
X135103369Y-91416375D01*
X134975604Y-91527831D01*
X134878113Y-91666547D01*
X134816524Y-91824513D01*
X134794394Y-91992611D01*
X134812999Y-92161135D01*
X134871266Y-92320356D01*
X134874591Y-92325305D01*
X134874592Y-92325306D01*
X134922260Y-92396243D01*
X134939023Y-92455088D01*
X134917996Y-92512547D01*
X134867211Y-92546672D01*
X134840089Y-92550460D01*
X129586222Y-92550460D01*
X129528031Y-92531553D01*
X129520364Y-92525377D01*
X129402721Y-92420560D01*
X129252881Y-92341224D01*
X129147509Y-92314756D01*
X129094231Y-92301373D01*
X129094228Y-92301373D01*
X129088441Y-92299919D01*
X129002841Y-92299471D01*
X128924861Y-92299062D01*
X128924859Y-92299062D01*
X128918895Y-92299031D01*
X128913099Y-92300423D01*
X128913095Y-92300423D01*
X128830072Y-92320356D01*
X128754032Y-92338612D01*
X128678701Y-92377493D01*
X128608675Y-92413636D01*
X128608673Y-92413638D01*
X128603369Y-92416375D01*
X128475604Y-92527831D01*
X128472173Y-92532713D01*
X128472172Y-92532714D01*
X128381544Y-92661665D01*
X128378113Y-92666547D01*
X128316524Y-92824513D01*
X128294394Y-92992611D01*
X122264517Y-92992611D01*
X122269368Y-92977681D01*
X122269423Y-92977634D01*
X122274300Y-92970847D01*
X122364877Y-92844796D01*
X122364878Y-92844794D01*
X122368361Y-92839947D01*
X122372188Y-92830429D01*
X122429377Y-92688167D01*
X122429378Y-92688165D01*
X122431601Y-92682634D01*
X122433863Y-92666739D01*
X122455034Y-92517985D01*
X122455034Y-92517979D01*
X122455490Y-92514778D01*
X122455645Y-92500000D01*
X122436769Y-92344017D01*
X122435993Y-92337602D01*
X122435992Y-92337599D01*
X122435276Y-92331680D01*
X122375345Y-92173077D01*
X122367138Y-92161135D01*
X122282692Y-92038267D01*
X122279312Y-92033349D01*
X122152721Y-91920560D01*
X122002881Y-91841224D01*
X121914214Y-91818952D01*
X121844231Y-91801373D01*
X121844228Y-91801373D01*
X121838441Y-91799919D01*
X121752841Y-91799471D01*
X121674861Y-91799062D01*
X121674859Y-91799062D01*
X121668895Y-91799031D01*
X121663099Y-91800423D01*
X121663095Y-91800423D01*
X121562757Y-91824513D01*
X121504032Y-91838612D01*
X121455167Y-91863833D01*
X121358675Y-91913636D01*
X121358673Y-91913638D01*
X121353369Y-91916375D01*
X121225604Y-92027831D01*
X121222173Y-92032713D01*
X121222172Y-92032714D01*
X121131544Y-92161665D01*
X121128113Y-92166547D01*
X121066524Y-92324513D01*
X121044394Y-92492611D01*
X100550000Y-92492611D01*
X100550000Y-88742611D01*
X121044394Y-88742611D01*
X121045049Y-88748544D01*
X121045049Y-88748548D01*
X121060983Y-88892876D01*
X121062999Y-88911135D01*
X121121266Y-89070356D01*
X121124591Y-89075305D01*
X121124592Y-89075306D01*
X121137689Y-89094796D01*
X121215830Y-89211083D01*
X121341233Y-89325191D01*
X121490235Y-89406092D01*
X121525189Y-89415262D01*
X121648464Y-89447603D01*
X121648468Y-89447604D01*
X121654233Y-89449116D01*
X121660194Y-89449210D01*
X121660197Y-89449210D01*
X121738996Y-89450447D01*
X121823760Y-89451779D01*
X121829575Y-89450447D01*
X121829577Y-89450447D01*
X121983206Y-89415262D01*
X121983209Y-89415261D01*
X121989029Y-89413928D01*
X121999516Y-89408654D01*
X122135165Y-89340429D01*
X122140498Y-89337747D01*
X122145035Y-89333872D01*
X122145038Y-89333870D01*
X122264888Y-89231508D01*
X122264891Y-89231505D01*
X122269423Y-89227634D01*
X122289915Y-89199116D01*
X122364877Y-89094796D01*
X122364878Y-89094794D01*
X122368361Y-89089947D01*
X122373148Y-89078041D01*
X122429377Y-88938167D01*
X122429378Y-88938165D01*
X122431601Y-88932634D01*
X122432442Y-88926727D01*
X122452903Y-88782958D01*
X122480911Y-88726903D01*
X125928318Y-85279496D01*
X125982835Y-85251719D01*
X125998322Y-85250500D01*
X126304230Y-85250500D01*
X126362421Y-85269407D01*
X126398385Y-85318907D01*
X126398385Y-85380093D01*
X126385226Y-85406426D01*
X126378113Y-85416547D01*
X126349250Y-85490577D01*
X126320635Y-85563970D01*
X126316524Y-85574513D01*
X126294394Y-85742611D01*
X126295049Y-85748544D01*
X126295049Y-85748548D01*
X126312128Y-85903243D01*
X126312999Y-85911135D01*
X126371266Y-86070356D01*
X126374591Y-86075305D01*
X126374592Y-86075306D01*
X126417138Y-86138622D01*
X126465830Y-86211083D01*
X126591233Y-86325191D01*
X126740235Y-86406092D01*
X126873423Y-86441033D01*
X126924911Y-86474088D01*
X126947137Y-86531094D01*
X126929298Y-86593718D01*
X126878113Y-86666547D01*
X126875945Y-86672108D01*
X126834076Y-86779496D01*
X126816524Y-86824513D01*
X126794394Y-86992611D01*
X126795049Y-86998544D01*
X126795049Y-86998548D01*
X126812344Y-87155204D01*
X126812999Y-87161135D01*
X126871266Y-87320356D01*
X126874591Y-87325305D01*
X126874592Y-87325306D01*
X126905286Y-87370984D01*
X126965830Y-87461083D01*
X127091233Y-87575191D01*
X127240235Y-87656092D01*
X127373423Y-87691033D01*
X127424911Y-87724088D01*
X127447137Y-87781094D01*
X127429298Y-87843718D01*
X127378113Y-87916547D01*
X127316524Y-88074513D01*
X127315745Y-88080428D01*
X127315745Y-88080429D01*
X127312940Y-88101740D01*
X127294394Y-88242611D01*
X127295049Y-88248544D01*
X127295049Y-88248548D01*
X127307157Y-88358221D01*
X127312999Y-88411135D01*
X127371266Y-88570356D01*
X127374591Y-88575305D01*
X127374592Y-88575306D01*
X127389880Y-88598057D01*
X127465830Y-88711083D01*
X127591233Y-88825191D01*
X127740235Y-88906092D01*
X127873423Y-88941033D01*
X127924911Y-88974088D01*
X127947137Y-89031094D01*
X127929298Y-89093718D01*
X127881839Y-89161246D01*
X127878113Y-89166547D01*
X127863934Y-89202913D01*
X127830369Y-89289004D01*
X127816524Y-89324513D01*
X127794394Y-89492611D01*
X127795049Y-89498544D01*
X127795049Y-89498548D01*
X127811594Y-89648407D01*
X127812999Y-89661135D01*
X127871266Y-89820356D01*
X127874591Y-89825305D01*
X127874592Y-89825306D01*
X127887689Y-89844796D01*
X127965830Y-89961083D01*
X128060794Y-90047494D01*
X128085888Y-90070327D01*
X128091233Y-90075191D01*
X128240235Y-90156092D01*
X128271732Y-90164355D01*
X128398464Y-90197603D01*
X128398468Y-90197604D01*
X128404233Y-90199116D01*
X128410194Y-90199210D01*
X128410197Y-90199210D01*
X128488996Y-90200447D01*
X128573760Y-90201779D01*
X128579575Y-90200447D01*
X128579577Y-90200447D01*
X128733206Y-90165262D01*
X128733209Y-90165261D01*
X128739029Y-90163928D01*
X128754610Y-90156092D01*
X128840177Y-90113056D01*
X128890498Y-90087747D01*
X128895035Y-90083872D01*
X128895038Y-90083870D01*
X129014888Y-89981508D01*
X129014891Y-89981505D01*
X129019423Y-89977634D01*
X129031316Y-89961083D01*
X129114877Y-89844796D01*
X129114878Y-89844794D01*
X129118361Y-89839947D01*
X129122565Y-89829491D01*
X129179377Y-89688167D01*
X129179378Y-89688165D01*
X129181601Y-89682634D01*
X129185505Y-89655204D01*
X129202903Y-89532958D01*
X129230911Y-89476903D01*
X129240223Y-89467591D01*
X131464776Y-89467591D01*
X131497868Y-89597891D01*
X131500883Y-89606403D01*
X131589416Y-89798446D01*
X131593937Y-89806277D01*
X131715983Y-89978967D01*
X131721858Y-89985846D01*
X131873330Y-90133404D01*
X131880353Y-90139091D01*
X132056178Y-90256575D01*
X132064133Y-90260893D01*
X132258412Y-90344362D01*
X132267023Y-90347160D01*
X132365705Y-90369489D01*
X132378603Y-90368304D01*
X132380852Y-90360126D01*
X132889000Y-90360126D01*
X132893122Y-90372811D01*
X132894293Y-90373662D01*
X132900270Y-90374172D01*
X132911841Y-90372495D01*
X132920636Y-90370383D01*
X133120878Y-90302410D01*
X133129134Y-90298734D01*
X133313638Y-90195406D01*
X133321092Y-90190283D01*
X133483663Y-90055074D01*
X133490074Y-90048663D01*
X133625283Y-89886092D01*
X133630406Y-89878638D01*
X133733734Y-89694134D01*
X133737410Y-89685878D01*
X133805383Y-89485636D01*
X133807495Y-89476841D01*
X133808556Y-89469518D01*
X133806297Y-89456372D01*
X133805260Y-89455362D01*
X133799417Y-89454000D01*
X132904680Y-89454000D01*
X132891995Y-89458122D01*
X132889000Y-89462243D01*
X132889000Y-90360126D01*
X132380852Y-90360126D01*
X132381000Y-90359586D01*
X132381000Y-89469680D01*
X132376878Y-89456995D01*
X132372757Y-89454000D01*
X131477004Y-89454000D01*
X131465094Y-89457870D01*
X131464776Y-89467591D01*
X129240223Y-89467591D01*
X130428318Y-88279496D01*
X130482835Y-88251719D01*
X130498322Y-88250500D01*
X131651263Y-88250500D01*
X131709454Y-88269407D01*
X131745418Y-88318907D01*
X131745418Y-88380093D01*
X131729009Y-88410790D01*
X131627096Y-88540066D01*
X131622171Y-88547649D01*
X131523705Y-88734802D01*
X131520251Y-88743142D01*
X131461911Y-88931024D01*
X131462063Y-88942649D01*
X131472610Y-88946000D01*
X133794585Y-88946000D01*
X133806075Y-88942267D01*
X133806279Y-88931866D01*
X133761328Y-88772486D01*
X133758089Y-88764047D01*
X133757545Y-88762944D01*
X133757472Y-88762440D01*
X133756462Y-88759809D01*
X133757057Y-88759580D01*
X133748766Y-88702392D01*
X133777255Y-88648244D01*
X133832131Y-88621182D01*
X133892433Y-88631545D01*
X133916340Y-88649154D01*
X134085658Y-88818472D01*
X134113435Y-88872989D01*
X134110201Y-88917833D01*
X134095746Y-88964388D01*
X134093937Y-88970213D01*
X134087117Y-89027831D01*
X134074236Y-89136669D01*
X134070164Y-89171069D01*
X134072171Y-89201685D01*
X134079857Y-89318952D01*
X134083392Y-89372894D01*
X134084508Y-89377287D01*
X134084508Y-89377289D01*
X134109791Y-89476841D01*
X134133178Y-89568928D01*
X134217856Y-89752607D01*
X134334588Y-89917780D01*
X134479466Y-90058913D01*
X134647637Y-90171282D01*
X134833470Y-90251122D01*
X135030740Y-90295760D01*
X135232842Y-90303700D01*
X135242651Y-90302278D01*
X135428519Y-90275329D01*
X135428522Y-90275328D01*
X135433007Y-90274678D01*
X135535963Y-90239729D01*
X135620234Y-90211123D01*
X135620237Y-90211121D01*
X135624531Y-90209664D01*
X135801001Y-90110837D01*
X135956505Y-89981505D01*
X135959725Y-89977634D01*
X136012584Y-89914078D01*
X136085837Y-89826001D01*
X136088999Y-89820356D01*
X136121898Y-89761609D01*
X136184664Y-89649531D01*
X136193314Y-89624051D01*
X136232120Y-89509731D01*
X136249678Y-89458007D01*
X136250954Y-89449210D01*
X136269840Y-89318952D01*
X136278700Y-89257842D01*
X136279925Y-89211083D01*
X136280139Y-89202913D01*
X136280139Y-89202908D01*
X136280215Y-89200000D01*
X136276901Y-89163928D01*
X136262123Y-89003109D01*
X136261708Y-88998591D01*
X136206807Y-88803926D01*
X136204437Y-88799119D01*
X136119359Y-88626599D01*
X136117351Y-88622527D01*
X136017705Y-88489085D01*
X135998037Y-88431147D01*
X136016181Y-88372714D01*
X136065206Y-88336105D01*
X136126387Y-88335304D01*
X136167033Y-88359847D01*
X136625658Y-88818472D01*
X136653435Y-88872989D01*
X136650201Y-88917833D01*
X136635746Y-88964388D01*
X136633937Y-88970213D01*
X136627117Y-89027831D01*
X136614236Y-89136669D01*
X136610164Y-89171069D01*
X136612171Y-89201685D01*
X136619857Y-89318952D01*
X136623392Y-89372894D01*
X136624508Y-89377287D01*
X136624508Y-89377289D01*
X136649791Y-89476841D01*
X136673178Y-89568928D01*
X136757856Y-89752607D01*
X136874588Y-89917780D01*
X137019466Y-90058913D01*
X137187637Y-90171282D01*
X137373470Y-90251122D01*
X137570740Y-90295760D01*
X137772842Y-90303700D01*
X137782651Y-90302278D01*
X137968519Y-90275329D01*
X137968522Y-90275328D01*
X137973007Y-90274678D01*
X138075963Y-90239729D01*
X138160234Y-90211123D01*
X138160237Y-90211121D01*
X138164531Y-90209664D01*
X138341001Y-90110837D01*
X138496505Y-89981505D01*
X138499725Y-89977634D01*
X138552584Y-89914078D01*
X138625837Y-89826001D01*
X138628999Y-89820356D01*
X138661898Y-89761609D01*
X138724664Y-89649531D01*
X138733314Y-89624051D01*
X138772120Y-89509731D01*
X138789678Y-89458007D01*
X138790954Y-89449210D01*
X138809840Y-89318952D01*
X138818700Y-89257842D01*
X138819925Y-89211083D01*
X138820139Y-89202913D01*
X138820139Y-89202908D01*
X138820215Y-89200000D01*
X138816901Y-89163928D01*
X138802123Y-89003109D01*
X138801708Y-88998591D01*
X138746807Y-88803926D01*
X138744437Y-88799119D01*
X138659359Y-88626599D01*
X138657351Y-88622527D01*
X138557705Y-88489085D01*
X138538037Y-88431147D01*
X138556181Y-88372714D01*
X138605206Y-88336105D01*
X138666387Y-88335304D01*
X138707033Y-88359847D01*
X139165658Y-88818472D01*
X139193435Y-88872989D01*
X139190201Y-88917833D01*
X139175746Y-88964388D01*
X139173937Y-88970213D01*
X139167117Y-89027831D01*
X139154236Y-89136669D01*
X139150164Y-89171069D01*
X139152171Y-89201685D01*
X139159857Y-89318952D01*
X139163392Y-89372894D01*
X139164508Y-89377287D01*
X139164508Y-89377289D01*
X139189791Y-89476841D01*
X139213178Y-89568928D01*
X139297856Y-89752607D01*
X139414588Y-89917780D01*
X139559466Y-90058913D01*
X139727637Y-90171282D01*
X139913470Y-90251122D01*
X140110740Y-90295760D01*
X140312842Y-90303700D01*
X140322651Y-90302278D01*
X140508519Y-90275329D01*
X140508522Y-90275328D01*
X140513007Y-90274678D01*
X140615963Y-90239729D01*
X140700234Y-90211123D01*
X140700237Y-90211121D01*
X140704531Y-90209664D01*
X140881001Y-90110837D01*
X141036505Y-89981505D01*
X141039725Y-89977634D01*
X141092584Y-89914078D01*
X141165837Y-89826001D01*
X141168999Y-89820356D01*
X141201898Y-89761609D01*
X141264664Y-89649531D01*
X141273314Y-89624051D01*
X141312120Y-89509731D01*
X141329678Y-89458007D01*
X141330954Y-89449210D01*
X141349840Y-89318952D01*
X141358700Y-89257842D01*
X141359925Y-89211083D01*
X141360139Y-89202913D01*
X141360139Y-89202908D01*
X141360215Y-89200000D01*
X141356901Y-89163928D01*
X141342123Y-89003109D01*
X141341708Y-88998591D01*
X141286807Y-88803926D01*
X141284437Y-88799119D01*
X141199359Y-88626599D01*
X141197351Y-88622527D01*
X141097705Y-88489085D01*
X141078037Y-88431147D01*
X141096181Y-88372714D01*
X141145206Y-88336105D01*
X141206387Y-88335304D01*
X141247033Y-88359847D01*
X141705658Y-88818472D01*
X141733435Y-88872989D01*
X141730201Y-88917833D01*
X141715746Y-88964388D01*
X141713937Y-88970213D01*
X141707117Y-89027831D01*
X141694236Y-89136669D01*
X141690164Y-89171069D01*
X141692171Y-89201685D01*
X141699857Y-89318952D01*
X141703392Y-89372894D01*
X141704508Y-89377287D01*
X141704508Y-89377289D01*
X141729791Y-89476841D01*
X141753178Y-89568928D01*
X141837856Y-89752607D01*
X141954588Y-89917780D01*
X142099466Y-90058913D01*
X142267637Y-90171282D01*
X142453470Y-90251122D01*
X142650740Y-90295760D01*
X142852842Y-90303700D01*
X142862651Y-90302278D01*
X143048519Y-90275329D01*
X143048522Y-90275328D01*
X143053007Y-90274678D01*
X143155963Y-90239729D01*
X143240234Y-90211123D01*
X143240237Y-90211121D01*
X143244531Y-90209664D01*
X143421001Y-90110837D01*
X143576505Y-89981505D01*
X143579725Y-89977634D01*
X143632584Y-89914078D01*
X143705837Y-89826001D01*
X143708999Y-89820356D01*
X143741898Y-89761609D01*
X143804664Y-89649531D01*
X143813314Y-89624051D01*
X143852120Y-89509731D01*
X143869678Y-89458007D01*
X143870954Y-89449210D01*
X143889840Y-89318952D01*
X143898700Y-89257842D01*
X143899925Y-89211083D01*
X143900139Y-89202913D01*
X143900139Y-89202908D01*
X143900215Y-89200000D01*
X143897557Y-89171069D01*
X144230164Y-89171069D01*
X144232171Y-89201685D01*
X144239857Y-89318952D01*
X144243392Y-89372894D01*
X144244508Y-89377287D01*
X144244508Y-89377289D01*
X144269791Y-89476841D01*
X144293178Y-89568928D01*
X144377856Y-89752607D01*
X144494588Y-89917780D01*
X144639466Y-90058913D01*
X144807637Y-90171282D01*
X144993470Y-90251122D01*
X145190740Y-90295760D01*
X145392842Y-90303700D01*
X145402651Y-90302278D01*
X145588519Y-90275329D01*
X145588522Y-90275328D01*
X145593007Y-90274678D01*
X145695963Y-90239729D01*
X145780234Y-90211123D01*
X145780237Y-90211121D01*
X145784531Y-90209664D01*
X145961001Y-90110837D01*
X146040587Y-90044646D01*
X146774500Y-90044646D01*
X146774847Y-90047558D01*
X146776613Y-90062397D01*
X146777618Y-90070846D01*
X146823061Y-90173153D01*
X146902287Y-90252241D01*
X146910645Y-90255936D01*
X146997864Y-90294496D01*
X146997866Y-90294496D01*
X147004673Y-90297506D01*
X147012067Y-90298368D01*
X147027378Y-90300153D01*
X147030354Y-90300500D01*
X148719646Y-90300500D01*
X148737561Y-90298368D01*
X148738469Y-90298260D01*
X148738470Y-90298260D01*
X148745846Y-90297382D01*
X148848153Y-90251939D01*
X148866256Y-90233805D01*
X148902394Y-90197603D01*
X148927241Y-90172713D01*
X148944620Y-90133404D01*
X148969496Y-90077136D01*
X148969496Y-90077134D01*
X148972506Y-90070327D01*
X148975500Y-90044646D01*
X148975500Y-88355354D01*
X148972382Y-88329154D01*
X148926939Y-88226847D01*
X148912828Y-88212760D01*
X148866294Y-88166308D01*
X148847713Y-88147759D01*
X148811337Y-88131677D01*
X148752136Y-88105504D01*
X148752134Y-88105504D01*
X148745327Y-88102494D01*
X148730625Y-88100780D01*
X148722494Y-88099832D01*
X148722493Y-88099832D01*
X148719646Y-88099500D01*
X147030354Y-88099500D01*
X147013951Y-88101452D01*
X147011531Y-88101740D01*
X147011530Y-88101740D01*
X147004154Y-88102618D01*
X146901847Y-88148061D01*
X146895390Y-88154529D01*
X146895389Y-88154530D01*
X146862042Y-88187935D01*
X146822759Y-88227287D01*
X146811958Y-88251719D01*
X146782254Y-88318907D01*
X146777494Y-88329673D01*
X146774500Y-88355354D01*
X146774500Y-90044646D01*
X146040587Y-90044646D01*
X146116505Y-89981505D01*
X146119725Y-89977634D01*
X146172584Y-89914078D01*
X146245837Y-89826001D01*
X146248999Y-89820356D01*
X146281898Y-89761609D01*
X146344664Y-89649531D01*
X146353314Y-89624051D01*
X146392120Y-89509731D01*
X146409678Y-89458007D01*
X146410954Y-89449210D01*
X146429840Y-89318952D01*
X146438700Y-89257842D01*
X146439925Y-89211083D01*
X146440139Y-89202913D01*
X146440139Y-89202908D01*
X146440215Y-89200000D01*
X146436901Y-89163928D01*
X146422123Y-89003109D01*
X146421708Y-88998591D01*
X146366807Y-88803926D01*
X146364437Y-88799119D01*
X146279359Y-88626599D01*
X146277351Y-88622527D01*
X146156335Y-88460467D01*
X146007812Y-88323174D01*
X146001050Y-88318907D01*
X145840594Y-88217667D01*
X145836757Y-88215246D01*
X145648898Y-88140298D01*
X145450526Y-88100839D01*
X145350930Y-88099535D01*
X145252826Y-88098251D01*
X145252821Y-88098251D01*
X145248286Y-88098192D01*
X145243813Y-88098961D01*
X145243808Y-88098961D01*
X145145245Y-88115898D01*
X145048949Y-88132444D01*
X144859193Y-88202449D01*
X144685371Y-88305862D01*
X144681956Y-88308857D01*
X144681953Y-88308859D01*
X144600211Y-88380545D01*
X144533305Y-88439220D01*
X144530497Y-88442782D01*
X144421986Y-88580429D01*
X144408089Y-88598057D01*
X144313914Y-88777053D01*
X144312569Y-88781384D01*
X144312568Y-88781387D01*
X144255746Y-88964388D01*
X144253937Y-88970213D01*
X144247117Y-89027831D01*
X144234236Y-89136669D01*
X144230164Y-89171069D01*
X143897557Y-89171069D01*
X143896901Y-89163928D01*
X143882123Y-89003109D01*
X143881708Y-88998591D01*
X143826807Y-88803926D01*
X143824437Y-88799119D01*
X143739359Y-88626599D01*
X143737351Y-88622527D01*
X143616335Y-88460467D01*
X143467812Y-88323174D01*
X143461050Y-88318907D01*
X143300594Y-88217667D01*
X143296757Y-88215246D01*
X143108898Y-88140298D01*
X142910526Y-88100839D01*
X142810930Y-88099535D01*
X142712826Y-88098251D01*
X142712821Y-88098251D01*
X142708286Y-88098192D01*
X142703813Y-88098961D01*
X142703808Y-88098961D01*
X142601624Y-88116520D01*
X142508949Y-88132444D01*
X142505973Y-88133542D01*
X142445272Y-88130357D01*
X142410753Y-88107939D01*
X139722318Y-85419504D01*
X139694541Y-85364987D01*
X139704112Y-85304555D01*
X139747377Y-85261290D01*
X139792322Y-85250500D01*
X144706593Y-85250500D01*
X144764784Y-85269407D01*
X144800748Y-85318907D01*
X144804995Y-85338636D01*
X144812999Y-85411135D01*
X144871266Y-85570356D01*
X144874591Y-85575305D01*
X144874592Y-85575306D01*
X144904992Y-85620546D01*
X144965830Y-85711083D01*
X145091233Y-85825191D01*
X145240235Y-85906092D01*
X145275189Y-85915262D01*
X145398464Y-85947603D01*
X145398468Y-85947604D01*
X145404233Y-85949116D01*
X145410194Y-85949210D01*
X145410197Y-85949210D01*
X145488996Y-85950447D01*
X145573760Y-85951779D01*
X145579575Y-85950447D01*
X145579577Y-85950447D01*
X145733206Y-85915262D01*
X145733209Y-85915261D01*
X145739029Y-85913928D01*
X145744583Y-85911135D01*
X145871128Y-85847489D01*
X145890498Y-85837747D01*
X145895035Y-85833872D01*
X145895038Y-85833870D01*
X146014888Y-85731508D01*
X146014891Y-85731505D01*
X146019423Y-85727634D01*
X146031316Y-85711083D01*
X146114877Y-85594796D01*
X146114878Y-85594794D01*
X146118361Y-85589947D01*
X146120588Y-85584408D01*
X146120590Y-85584404D01*
X146158309Y-85490577D01*
X146197556Y-85443639D01*
X146256898Y-85428733D01*
X146313668Y-85451555D01*
X146343134Y-85493482D01*
X146369215Y-85564753D01*
X146369217Y-85564756D01*
X146371266Y-85570356D01*
X146374591Y-85575305D01*
X146374592Y-85575306D01*
X146404992Y-85620546D01*
X146465830Y-85711083D01*
X146591233Y-85825191D01*
X146740235Y-85906092D01*
X146775189Y-85915262D01*
X146898464Y-85947603D01*
X146898468Y-85947604D01*
X146904233Y-85949116D01*
X146910194Y-85949210D01*
X146910197Y-85949210D01*
X146988996Y-85950447D01*
X147073760Y-85951779D01*
X147079575Y-85950447D01*
X147079577Y-85950447D01*
X147233206Y-85915262D01*
X147233209Y-85915261D01*
X147239029Y-85913928D01*
X147244583Y-85911135D01*
X147371128Y-85847489D01*
X147390498Y-85837747D01*
X147395035Y-85833872D01*
X147395038Y-85833870D01*
X147514888Y-85731508D01*
X147514891Y-85731505D01*
X147519423Y-85727634D01*
X147531316Y-85711083D01*
X147614877Y-85594796D01*
X147614878Y-85594794D01*
X147618361Y-85589947D01*
X147620590Y-85584404D01*
X147679377Y-85438167D01*
X147679378Y-85438165D01*
X147681601Y-85432634D01*
X147683863Y-85416739D01*
X147705034Y-85267985D01*
X147705034Y-85267979D01*
X147705490Y-85264778D01*
X147705645Y-85250000D01*
X147693731Y-85151545D01*
X147685993Y-85087602D01*
X147685992Y-85087599D01*
X147685276Y-85081680D01*
X147625345Y-84923077D01*
X147617138Y-84911135D01*
X147532692Y-84788267D01*
X147529312Y-84783349D01*
X147402721Y-84670560D01*
X147252881Y-84591224D01*
X147164214Y-84568952D01*
X147094231Y-84551373D01*
X147094228Y-84551373D01*
X147088441Y-84549919D01*
X147063710Y-84549789D01*
X147048011Y-84549707D01*
X146989920Y-84530494D01*
X146978526Y-84520712D01*
X146301875Y-83844061D01*
X146293901Y-83834081D01*
X146293884Y-83834096D01*
X146289314Y-83828726D01*
X146285550Y-83822760D01*
X146280265Y-83818092D01*
X146280262Y-83818089D01*
X146245272Y-83787188D01*
X146240802Y-83782988D01*
X146228974Y-83771160D01*
X146219927Y-83764380D01*
X146213781Y-83759376D01*
X146178092Y-83727857D01*
X146168809Y-83723498D01*
X146151514Y-83713107D01*
X146143304Y-83706954D01*
X146121527Y-83698790D01*
X146098734Y-83690245D01*
X146091414Y-83687160D01*
X146054706Y-83669926D01*
X146054702Y-83669925D01*
X146048317Y-83666927D01*
X146041349Y-83665842D01*
X146041345Y-83665841D01*
X146038188Y-83665350D01*
X146018660Y-83660227D01*
X146015660Y-83659102D01*
X146015658Y-83659102D01*
X146009060Y-83656628D01*
X145961572Y-83653099D01*
X145953687Y-83652193D01*
X145943252Y-83650568D01*
X145943244Y-83650567D01*
X145939471Y-83649980D01*
X145923271Y-83649980D01*
X145915935Y-83649708D01*
X145912645Y-83649464D01*
X145866088Y-83646004D01*
X145859193Y-83647476D01*
X145859191Y-83647476D01*
X145857679Y-83647799D01*
X145837012Y-83649980D01*
X123398802Y-83649980D01*
X123340611Y-83631073D01*
X123328798Y-83620984D01*
X122479518Y-82771704D01*
X122451239Y-82713593D01*
X122435993Y-82587602D01*
X122435992Y-82587599D01*
X122435276Y-82581680D01*
X122430467Y-82568952D01*
X122377454Y-82428659D01*
X122375345Y-82423077D01*
X122279312Y-82283349D01*
X122152721Y-82170560D01*
X122002881Y-82091224D01*
X121920661Y-82070572D01*
X121844231Y-82051373D01*
X121844228Y-82051373D01*
X121838441Y-82049919D01*
X121752841Y-82049471D01*
X121674861Y-82049062D01*
X121674859Y-82049062D01*
X121668895Y-82049031D01*
X121663099Y-82050423D01*
X121663095Y-82050423D01*
X121555703Y-82076207D01*
X121504032Y-82088612D01*
X121428700Y-82127494D01*
X121358675Y-82163636D01*
X121358673Y-82163638D01*
X121353369Y-82166375D01*
X121225604Y-82277831D01*
X121128113Y-82416547D01*
X121066524Y-82574513D01*
X121044394Y-82742611D01*
X121045049Y-82748544D01*
X121045049Y-82748548D01*
X121062344Y-82905204D01*
X121062999Y-82911135D01*
X121121266Y-83070356D01*
X121215830Y-83211083D01*
X121341233Y-83325191D01*
X121490235Y-83406092D01*
X121549680Y-83421687D01*
X121648464Y-83447603D01*
X121648468Y-83447604D01*
X121654233Y-83449116D01*
X121660195Y-83449210D01*
X121660197Y-83449210D01*
X121702598Y-83449876D01*
X121760484Y-83469696D01*
X121771046Y-83478860D01*
X122749081Y-84456894D01*
X122757057Y-84466877D01*
X122757074Y-84466863D01*
X122761648Y-84472237D01*
X122765410Y-84478200D01*
X122770694Y-84482867D01*
X122770696Y-84482869D01*
X122805697Y-84513780D01*
X122810167Y-84517980D01*
X122821987Y-84529800D01*
X122824802Y-84531909D01*
X122824807Y-84531914D01*
X122831020Y-84536570D01*
X122837183Y-84541587D01*
X122872868Y-84573103D01*
X122882151Y-84577461D01*
X122899447Y-84587853D01*
X122907656Y-84594006D01*
X122942842Y-84607197D01*
X122952226Y-84610715D01*
X122959546Y-84613800D01*
X122996254Y-84631034D01*
X122996258Y-84631035D01*
X123002643Y-84634033D01*
X123009611Y-84635118D01*
X123009615Y-84635119D01*
X123012772Y-84635610D01*
X123032300Y-84640733D01*
X123035300Y-84641858D01*
X123035302Y-84641858D01*
X123041900Y-84644332D01*
X123089388Y-84647861D01*
X123097273Y-84648767D01*
X123107708Y-84650392D01*
X123107716Y-84650393D01*
X123111489Y-84650980D01*
X123127689Y-84650980D01*
X123135025Y-84651252D01*
X123138315Y-84651496D01*
X123184872Y-84654956D01*
X123191767Y-84653484D01*
X123191769Y-84653484D01*
X123193281Y-84653161D01*
X123213948Y-84650980D01*
X124902198Y-84650980D01*
X124960389Y-84669887D01*
X124996353Y-84719387D01*
X124996353Y-84780573D01*
X124972202Y-84819984D01*
X121771979Y-88020207D01*
X121717462Y-88047984D01*
X121701460Y-88049202D01*
X121684652Y-88049114D01*
X121674860Y-88049062D01*
X121674858Y-88049062D01*
X121668895Y-88049031D01*
X121663099Y-88050423D01*
X121663095Y-88050423D01*
X121577406Y-88070996D01*
X121504032Y-88088612D01*
X121466587Y-88107939D01*
X121358675Y-88163636D01*
X121358673Y-88163638D01*
X121353369Y-88166375D01*
X121225604Y-88277831D01*
X121222173Y-88282713D01*
X121222172Y-88282714D01*
X121131544Y-88411665D01*
X121128113Y-88416547D01*
X121066524Y-88574513D01*
X121044394Y-88742611D01*
X100550000Y-88742611D01*
X100550000Y-77555338D01*
X101165324Y-77555338D01*
X101165781Y-77559286D01*
X101165781Y-77559291D01*
X101194099Y-77804039D01*
X101194556Y-77807986D01*
X101195636Y-77811804D01*
X101195637Y-77811807D01*
X101260928Y-78042539D01*
X101263806Y-78052710D01*
X101265484Y-78056309D01*
X101265485Y-78056311D01*
X101277193Y-78081418D01*
X101371292Y-78283215D01*
X101373527Y-78286504D01*
X101373530Y-78286509D01*
X101451686Y-78401511D01*
X101514249Y-78493569D01*
X101635741Y-78622044D01*
X101665815Y-78653846D01*
X101688998Y-78678362D01*
X101692152Y-78680773D01*
X101692156Y-78680777D01*
X101778778Y-78747004D01*
X101891045Y-78832838D01*
X101894549Y-78834717D01*
X101894554Y-78834720D01*
X102022050Y-78903082D01*
X102115190Y-78953023D01*
X102355667Y-79035826D01*
X102546939Y-79068864D01*
X102603214Y-79078585D01*
X102603216Y-79078585D01*
X102606289Y-79079116D01*
X102629698Y-79080179D01*
X102635662Y-79080450D01*
X102635668Y-79080450D01*
X102636766Y-79080500D01*
X102813910Y-79080500D01*
X102815884Y-79080341D01*
X102815888Y-79080341D01*
X102999554Y-79065564D01*
X102999559Y-79065563D01*
X103003514Y-79065245D01*
X103007374Y-79064297D01*
X103246640Y-79005528D01*
X103246645Y-79005526D01*
X103250506Y-79004578D01*
X103254167Y-79003024D01*
X103254170Y-79003023D01*
X103480959Y-78906757D01*
X103480961Y-78906756D01*
X103484622Y-78905202D01*
X103699837Y-78769673D01*
X103825271Y-78659088D01*
X103887632Y-78604109D01*
X103887633Y-78604108D01*
X103890615Y-78601479D01*
X103908376Y-78579856D01*
X104049526Y-78408019D01*
X104049528Y-78408016D01*
X104052049Y-78404947D01*
X104067973Y-78377588D01*
X104177980Y-78188576D01*
X104179984Y-78185133D01*
X104189280Y-78160917D01*
X104269702Y-77951411D01*
X104269704Y-77951404D01*
X104271129Y-77947692D01*
X104284082Y-77885690D01*
X104322325Y-77702632D01*
X104322326Y-77702628D01*
X104323139Y-77698734D01*
X104333537Y-77469754D01*
X127914967Y-77469754D01*
X127928796Y-77680749D01*
X127929912Y-77685142D01*
X127929912Y-77685144D01*
X127952486Y-77774028D01*
X127980845Y-77885690D01*
X127982747Y-77889815D01*
X127982747Y-77889816D01*
X128056080Y-78048887D01*
X128069369Y-78077714D01*
X128191405Y-78250391D01*
X128342865Y-78397937D01*
X128346638Y-78400458D01*
X128514899Y-78512887D01*
X128514902Y-78512889D01*
X128518677Y-78515411D01*
X128615472Y-78556997D01*
X128708774Y-78597083D01*
X128708778Y-78597084D01*
X128712953Y-78598878D01*
X128747320Y-78606655D01*
X128914760Y-78644543D01*
X128914765Y-78644544D01*
X128919186Y-78645544D01*
X129024828Y-78649695D01*
X129125937Y-78653668D01*
X129125938Y-78653668D01*
X129130470Y-78653846D01*
X129339730Y-78623504D01*
X129344029Y-78622045D01*
X129344032Y-78622044D01*
X129535654Y-78556997D01*
X129539955Y-78555537D01*
X129724442Y-78452219D01*
X129887012Y-78317012D01*
X130022219Y-78154442D01*
X130125537Y-77969955D01*
X130141805Y-77922030D01*
X130192044Y-77774032D01*
X130192045Y-77774028D01*
X130193504Y-77769730D01*
X130206406Y-77680749D01*
X130223426Y-77563369D01*
X130223426Y-77563363D01*
X130223846Y-77560470D01*
X130223981Y-77555338D01*
X130225353Y-77502914D01*
X130225353Y-77502909D01*
X130225429Y-77500000D01*
X130222650Y-77469754D01*
X130454967Y-77469754D01*
X130468796Y-77680749D01*
X130469912Y-77685142D01*
X130469912Y-77685144D01*
X130492486Y-77774028D01*
X130520845Y-77885690D01*
X130522747Y-77889815D01*
X130522747Y-77889816D01*
X130596080Y-78048887D01*
X130609369Y-78077714D01*
X130731405Y-78250391D01*
X130882865Y-78397937D01*
X130886638Y-78400458D01*
X131054899Y-78512887D01*
X131054902Y-78512889D01*
X131058677Y-78515411D01*
X131155472Y-78556997D01*
X131248774Y-78597083D01*
X131248778Y-78597084D01*
X131252953Y-78598878D01*
X131287320Y-78606655D01*
X131454760Y-78644543D01*
X131454765Y-78644544D01*
X131459186Y-78645544D01*
X131564828Y-78649695D01*
X131665937Y-78653668D01*
X131665938Y-78653668D01*
X131670470Y-78653846D01*
X131879730Y-78623504D01*
X131884029Y-78622045D01*
X131884032Y-78622044D01*
X132075654Y-78556997D01*
X132079955Y-78555537D01*
X132264442Y-78452219D01*
X132427012Y-78317012D01*
X132562219Y-78154442D01*
X132665537Y-77969955D01*
X132681805Y-77922030D01*
X132732044Y-77774032D01*
X132732045Y-77774028D01*
X132733504Y-77769730D01*
X132746406Y-77680749D01*
X132763426Y-77563369D01*
X132763426Y-77563363D01*
X132763846Y-77560470D01*
X132763981Y-77555338D01*
X132765353Y-77502914D01*
X132765353Y-77502909D01*
X132765429Y-77500000D01*
X132762650Y-77469754D01*
X132994967Y-77469754D01*
X133008796Y-77680749D01*
X133009912Y-77685142D01*
X133009912Y-77685144D01*
X133032486Y-77774028D01*
X133060845Y-77885690D01*
X133062747Y-77889815D01*
X133062747Y-77889816D01*
X133136080Y-78048887D01*
X133149369Y-78077714D01*
X133271405Y-78250391D01*
X133422865Y-78397937D01*
X133426638Y-78400458D01*
X133594899Y-78512887D01*
X133594902Y-78512889D01*
X133598677Y-78515411D01*
X133695472Y-78556997D01*
X133788774Y-78597083D01*
X133788778Y-78597084D01*
X133792953Y-78598878D01*
X133827320Y-78606655D01*
X133994760Y-78644543D01*
X133994765Y-78644544D01*
X133999186Y-78645544D01*
X134104828Y-78649695D01*
X134205937Y-78653668D01*
X134205938Y-78653668D01*
X134210470Y-78653846D01*
X134419730Y-78623504D01*
X134424029Y-78622045D01*
X134424032Y-78622044D01*
X134615654Y-78556997D01*
X134619955Y-78555537D01*
X134804442Y-78452219D01*
X134967012Y-78317012D01*
X135102219Y-78154442D01*
X135205537Y-77969955D01*
X135221805Y-77922030D01*
X135272044Y-77774032D01*
X135272045Y-77774028D01*
X135273504Y-77769730D01*
X135286406Y-77680749D01*
X135303426Y-77563369D01*
X135303426Y-77563363D01*
X135303846Y-77560470D01*
X135303981Y-77555338D01*
X135305353Y-77502914D01*
X135305353Y-77502909D01*
X135305429Y-77500000D01*
X135302650Y-77469754D01*
X135534967Y-77469754D01*
X135548796Y-77680749D01*
X135549912Y-77685142D01*
X135549912Y-77685144D01*
X135572486Y-77774028D01*
X135600845Y-77885690D01*
X135602747Y-77889815D01*
X135602747Y-77889816D01*
X135676080Y-78048887D01*
X135689369Y-78077714D01*
X135811405Y-78250391D01*
X135962865Y-78397937D01*
X135966638Y-78400458D01*
X136134899Y-78512887D01*
X136134902Y-78512889D01*
X136138677Y-78515411D01*
X136235472Y-78556997D01*
X136328774Y-78597083D01*
X136328778Y-78597084D01*
X136332953Y-78598878D01*
X136367320Y-78606655D01*
X136534760Y-78644543D01*
X136534765Y-78644544D01*
X136539186Y-78645544D01*
X136644828Y-78649695D01*
X136745937Y-78653668D01*
X136745938Y-78653668D01*
X136750470Y-78653846D01*
X136959730Y-78623504D01*
X136964029Y-78622045D01*
X136964032Y-78622044D01*
X137155654Y-78556997D01*
X137159955Y-78555537D01*
X137344442Y-78452219D01*
X137507012Y-78317012D01*
X137642219Y-78154442D01*
X137745537Y-77969955D01*
X137761805Y-77922030D01*
X137812044Y-77774032D01*
X137812045Y-77774028D01*
X137813504Y-77769730D01*
X137826406Y-77680749D01*
X137843426Y-77563369D01*
X137843426Y-77563363D01*
X137843846Y-77560470D01*
X137843981Y-77555338D01*
X137845353Y-77502914D01*
X137845353Y-77502909D01*
X137845429Y-77500000D01*
X137842650Y-77469754D01*
X138074967Y-77469754D01*
X138088796Y-77680749D01*
X138089912Y-77685142D01*
X138089912Y-77685144D01*
X138112486Y-77774028D01*
X138140845Y-77885690D01*
X138142747Y-77889815D01*
X138142747Y-77889816D01*
X138216080Y-78048887D01*
X138229369Y-78077714D01*
X138351405Y-78250391D01*
X138502865Y-78397937D01*
X138506638Y-78400458D01*
X138674899Y-78512887D01*
X138674902Y-78512889D01*
X138678677Y-78515411D01*
X138775472Y-78556997D01*
X138868774Y-78597083D01*
X138868778Y-78597084D01*
X138872953Y-78598878D01*
X138907320Y-78606655D01*
X139074760Y-78644543D01*
X139074765Y-78644544D01*
X139079186Y-78645544D01*
X139184828Y-78649695D01*
X139285937Y-78653668D01*
X139285938Y-78653668D01*
X139290470Y-78653846D01*
X139499730Y-78623504D01*
X139504029Y-78622045D01*
X139504032Y-78622044D01*
X139695654Y-78556997D01*
X139699955Y-78555537D01*
X139884442Y-78452219D01*
X140047012Y-78317012D01*
X140182219Y-78154442D01*
X140285537Y-77969955D01*
X140301805Y-77922030D01*
X140352044Y-77774032D01*
X140352045Y-77774028D01*
X140353504Y-77769730D01*
X140366406Y-77680749D01*
X140383426Y-77563369D01*
X140383426Y-77563363D01*
X140383846Y-77560470D01*
X140383981Y-77555338D01*
X140385353Y-77502914D01*
X140385353Y-77502909D01*
X140385429Y-77500000D01*
X140382650Y-77469754D01*
X140614967Y-77469754D01*
X140628796Y-77680749D01*
X140629912Y-77685142D01*
X140629912Y-77685144D01*
X140652486Y-77774028D01*
X140680845Y-77885690D01*
X140682747Y-77889815D01*
X140682747Y-77889816D01*
X140756080Y-78048887D01*
X140769369Y-78077714D01*
X140891405Y-78250391D01*
X141042865Y-78397937D01*
X141046638Y-78400458D01*
X141214899Y-78512887D01*
X141214902Y-78512889D01*
X141218677Y-78515411D01*
X141315472Y-78556997D01*
X141408774Y-78597083D01*
X141408778Y-78597084D01*
X141412953Y-78598878D01*
X141447320Y-78606655D01*
X141614760Y-78644543D01*
X141614765Y-78644544D01*
X141619186Y-78645544D01*
X141724828Y-78649695D01*
X141825937Y-78653668D01*
X141825938Y-78653668D01*
X141830470Y-78653846D01*
X142039730Y-78623504D01*
X142044029Y-78622045D01*
X142044032Y-78622044D01*
X142235654Y-78556997D01*
X142239955Y-78555537D01*
X142424442Y-78452219D01*
X142587012Y-78317012D01*
X142722219Y-78154442D01*
X142825537Y-77969955D01*
X142841805Y-77922030D01*
X142892044Y-77774032D01*
X142892045Y-77774028D01*
X142893504Y-77769730D01*
X142906406Y-77680749D01*
X142923426Y-77563369D01*
X142923426Y-77563363D01*
X142923846Y-77560470D01*
X142923981Y-77555338D01*
X142925353Y-77502914D01*
X142925353Y-77502909D01*
X142925429Y-77500000D01*
X142922650Y-77469754D01*
X143154967Y-77469754D01*
X143168796Y-77680749D01*
X143169912Y-77685142D01*
X143169912Y-77685144D01*
X143192486Y-77774028D01*
X143220845Y-77885690D01*
X143222747Y-77889815D01*
X143222747Y-77889816D01*
X143296080Y-78048887D01*
X143309369Y-78077714D01*
X143431405Y-78250391D01*
X143582865Y-78397937D01*
X143586638Y-78400458D01*
X143754899Y-78512887D01*
X143754902Y-78512889D01*
X143758677Y-78515411D01*
X143855472Y-78556997D01*
X143948774Y-78597083D01*
X143948778Y-78597084D01*
X143952953Y-78598878D01*
X143987320Y-78606655D01*
X144154760Y-78644543D01*
X144154765Y-78644544D01*
X144159186Y-78645544D01*
X144264828Y-78649695D01*
X144365937Y-78653668D01*
X144365938Y-78653668D01*
X144370470Y-78653846D01*
X144579730Y-78623504D01*
X144584029Y-78622045D01*
X144584032Y-78622044D01*
X144775654Y-78556997D01*
X144779955Y-78555537D01*
X144964442Y-78452219D01*
X145127012Y-78317012D01*
X145262219Y-78154442D01*
X145365537Y-77969955D01*
X145381805Y-77922030D01*
X145432044Y-77774032D01*
X145432045Y-77774028D01*
X145433504Y-77769730D01*
X145446406Y-77680749D01*
X145463426Y-77563369D01*
X145463426Y-77563363D01*
X145463846Y-77560470D01*
X145463981Y-77555338D01*
X145465353Y-77502914D01*
X145465353Y-77502909D01*
X145465429Y-77500000D01*
X145462650Y-77469754D01*
X145694967Y-77469754D01*
X145708796Y-77680749D01*
X145709912Y-77685142D01*
X145709912Y-77685144D01*
X145732486Y-77774028D01*
X145760845Y-77885690D01*
X145762747Y-77889815D01*
X145762747Y-77889816D01*
X145836080Y-78048887D01*
X145849369Y-78077714D01*
X145971405Y-78250391D01*
X146122865Y-78397937D01*
X146126638Y-78400458D01*
X146294899Y-78512887D01*
X146294902Y-78512889D01*
X146298677Y-78515411D01*
X146395472Y-78556997D01*
X146488774Y-78597083D01*
X146488778Y-78597084D01*
X146492953Y-78598878D01*
X146527320Y-78606655D01*
X146694760Y-78644543D01*
X146694765Y-78644544D01*
X146699186Y-78645544D01*
X146804828Y-78649695D01*
X146905937Y-78653668D01*
X146905938Y-78653668D01*
X146910470Y-78653846D01*
X147119730Y-78623504D01*
X147124029Y-78622045D01*
X147124032Y-78622044D01*
X147315654Y-78556997D01*
X147319955Y-78555537D01*
X147504442Y-78452219D01*
X147667012Y-78317012D01*
X147802219Y-78154442D01*
X147905537Y-77969955D01*
X147921805Y-77922030D01*
X147972044Y-77774032D01*
X147972045Y-77774028D01*
X147973504Y-77769730D01*
X147986406Y-77680749D01*
X148003426Y-77563369D01*
X148003426Y-77563363D01*
X148003846Y-77560470D01*
X148003981Y-77555338D01*
X148005353Y-77502914D01*
X148005353Y-77502909D01*
X148005429Y-77500000D01*
X148002650Y-77469754D01*
X148234967Y-77469754D01*
X148248796Y-77680749D01*
X148249912Y-77685142D01*
X148249912Y-77685144D01*
X148272486Y-77774028D01*
X148300845Y-77885690D01*
X148302747Y-77889815D01*
X148302747Y-77889816D01*
X148376080Y-78048887D01*
X148389369Y-78077714D01*
X148511405Y-78250391D01*
X148662865Y-78397937D01*
X148666638Y-78400458D01*
X148834899Y-78512887D01*
X148834902Y-78512889D01*
X148838677Y-78515411D01*
X148935472Y-78556997D01*
X149028774Y-78597083D01*
X149028778Y-78597084D01*
X149032953Y-78598878D01*
X149067320Y-78606655D01*
X149234760Y-78644543D01*
X149234765Y-78644544D01*
X149239186Y-78645544D01*
X149344828Y-78649695D01*
X149445937Y-78653668D01*
X149445938Y-78653668D01*
X149450470Y-78653846D01*
X149659730Y-78623504D01*
X149664029Y-78622045D01*
X149664032Y-78622044D01*
X149855654Y-78556997D01*
X149859955Y-78555537D01*
X150044442Y-78452219D01*
X150207012Y-78317012D01*
X150342219Y-78154442D01*
X150445537Y-77969955D01*
X150461805Y-77922030D01*
X150512044Y-77774032D01*
X150512045Y-77774028D01*
X150513504Y-77769730D01*
X150526406Y-77680749D01*
X150543426Y-77563369D01*
X150543426Y-77563363D01*
X150543846Y-77560470D01*
X150543981Y-77555338D01*
X150545353Y-77502914D01*
X150545353Y-77502909D01*
X150545429Y-77500000D01*
X150542650Y-77469754D01*
X150774967Y-77469754D01*
X150788796Y-77680749D01*
X150789912Y-77685142D01*
X150789912Y-77685144D01*
X150812486Y-77774028D01*
X150840845Y-77885690D01*
X150842747Y-77889815D01*
X150842747Y-77889816D01*
X150916080Y-78048887D01*
X150929369Y-78077714D01*
X151051405Y-78250391D01*
X151202865Y-78397937D01*
X151206638Y-78400458D01*
X151374899Y-78512887D01*
X151374902Y-78512889D01*
X151378677Y-78515411D01*
X151475472Y-78556997D01*
X151568774Y-78597083D01*
X151568778Y-78597084D01*
X151572953Y-78598878D01*
X151607320Y-78606655D01*
X151774760Y-78644543D01*
X151774765Y-78644544D01*
X151779186Y-78645544D01*
X151884828Y-78649695D01*
X151985937Y-78653668D01*
X151985938Y-78653668D01*
X151990470Y-78653846D01*
X152199730Y-78623504D01*
X152204029Y-78622045D01*
X152204032Y-78622044D01*
X152395654Y-78556997D01*
X152399955Y-78555537D01*
X152584442Y-78452219D01*
X152747012Y-78317012D01*
X152882219Y-78154442D01*
X152985537Y-77969955D01*
X153001805Y-77922030D01*
X153052044Y-77774032D01*
X153052045Y-77774028D01*
X153053504Y-77769730D01*
X153066406Y-77680749D01*
X153083426Y-77563369D01*
X153083426Y-77563363D01*
X153083846Y-77560470D01*
X153083981Y-77555338D01*
X153085353Y-77502914D01*
X153085353Y-77502909D01*
X153085429Y-77500000D01*
X153082650Y-77469754D01*
X153314967Y-77469754D01*
X153328796Y-77680749D01*
X153329912Y-77685142D01*
X153329912Y-77685144D01*
X153352486Y-77774028D01*
X153380845Y-77885690D01*
X153382747Y-77889815D01*
X153382747Y-77889816D01*
X153456080Y-78048887D01*
X153469369Y-78077714D01*
X153591405Y-78250391D01*
X153742865Y-78397937D01*
X153746638Y-78400458D01*
X153914899Y-78512887D01*
X153914902Y-78512889D01*
X153918677Y-78515411D01*
X154015472Y-78556997D01*
X154108774Y-78597083D01*
X154108778Y-78597084D01*
X154112953Y-78598878D01*
X154147320Y-78606655D01*
X154314760Y-78644543D01*
X154314765Y-78644544D01*
X154319186Y-78645544D01*
X154424828Y-78649695D01*
X154525937Y-78653668D01*
X154525938Y-78653668D01*
X154530470Y-78653846D01*
X154739730Y-78623504D01*
X154744029Y-78622045D01*
X154744032Y-78622044D01*
X154935654Y-78556997D01*
X154939955Y-78555537D01*
X155124442Y-78452219D01*
X155287012Y-78317012D01*
X155422219Y-78154442D01*
X155525537Y-77969955D01*
X155541805Y-77922030D01*
X155592044Y-77774032D01*
X155592045Y-77774028D01*
X155593504Y-77769730D01*
X155606406Y-77680749D01*
X155623426Y-77563369D01*
X155623426Y-77563363D01*
X155623846Y-77560470D01*
X155623981Y-77555338D01*
X155625353Y-77502914D01*
X155625353Y-77502909D01*
X155625429Y-77500000D01*
X155622650Y-77469754D01*
X155854967Y-77469754D01*
X155868796Y-77680749D01*
X155869912Y-77685142D01*
X155869912Y-77685144D01*
X155892486Y-77774028D01*
X155920845Y-77885690D01*
X155922747Y-77889815D01*
X155922747Y-77889816D01*
X155996080Y-78048887D01*
X156009369Y-78077714D01*
X156131405Y-78250391D01*
X156282865Y-78397937D01*
X156286638Y-78400458D01*
X156454899Y-78512887D01*
X156454902Y-78512889D01*
X156458677Y-78515411D01*
X156555472Y-78556997D01*
X156648774Y-78597083D01*
X156648778Y-78597084D01*
X156652953Y-78598878D01*
X156687320Y-78606655D01*
X156854760Y-78644543D01*
X156854765Y-78644544D01*
X156859186Y-78645544D01*
X156964828Y-78649695D01*
X157065937Y-78653668D01*
X157065938Y-78653668D01*
X157070470Y-78653846D01*
X157279730Y-78623504D01*
X157284029Y-78622045D01*
X157284032Y-78622044D01*
X157475654Y-78556997D01*
X157479955Y-78555537D01*
X157664442Y-78452219D01*
X157827012Y-78317012D01*
X157962219Y-78154442D01*
X158065537Y-77969955D01*
X158081805Y-77922030D01*
X158132044Y-77774032D01*
X158132045Y-77774028D01*
X158133504Y-77769730D01*
X158146406Y-77680749D01*
X158163426Y-77563369D01*
X158163426Y-77563363D01*
X158163846Y-77560470D01*
X158163981Y-77555338D01*
X158165353Y-77502914D01*
X158165353Y-77502909D01*
X158165429Y-77500000D01*
X158160710Y-77448638D01*
X158147533Y-77305245D01*
X158146081Y-77289440D01*
X158088686Y-77085931D01*
X157995165Y-76896290D01*
X157868651Y-76726867D01*
X157713381Y-76583337D01*
X157632891Y-76532551D01*
X157538391Y-76472926D01*
X157534554Y-76470505D01*
X157338160Y-76392152D01*
X157130775Y-76350901D01*
X157026599Y-76349537D01*
X156923886Y-76348192D01*
X156923881Y-76348192D01*
X156919346Y-76348133D01*
X156914873Y-76348902D01*
X156914868Y-76348902D01*
X156811601Y-76366647D01*
X156710953Y-76383941D01*
X156512575Y-76457127D01*
X156508676Y-76459446D01*
X156508671Y-76459449D01*
X156385798Y-76532551D01*
X156330856Y-76565238D01*
X156327441Y-76568233D01*
X156327438Y-76568235D01*
X156312977Y-76580917D01*
X156171881Y-76704655D01*
X156169073Y-76708217D01*
X156087712Y-76811424D01*
X156040976Y-76870708D01*
X155942523Y-77057836D01*
X155941179Y-77062165D01*
X155883929Y-77246541D01*
X155879820Y-77259773D01*
X155879286Y-77264283D01*
X155879286Y-77264284D01*
X155874899Y-77301354D01*
X155854967Y-77469754D01*
X155622650Y-77469754D01*
X155620710Y-77448638D01*
X155607533Y-77305245D01*
X155606081Y-77289440D01*
X155548686Y-77085931D01*
X155455165Y-76896290D01*
X155328651Y-76726867D01*
X155173381Y-76583337D01*
X155092891Y-76532551D01*
X154998391Y-76472926D01*
X154994554Y-76470505D01*
X154798160Y-76392152D01*
X154590775Y-76350901D01*
X154486599Y-76349537D01*
X154383886Y-76348192D01*
X154383881Y-76348192D01*
X154379346Y-76348133D01*
X154374873Y-76348902D01*
X154374868Y-76348902D01*
X154271601Y-76366647D01*
X154170953Y-76383941D01*
X153972575Y-76457127D01*
X153968676Y-76459446D01*
X153968671Y-76459449D01*
X153845798Y-76532551D01*
X153790856Y-76565238D01*
X153787441Y-76568233D01*
X153787438Y-76568235D01*
X153772977Y-76580917D01*
X153631881Y-76704655D01*
X153629073Y-76708217D01*
X153547712Y-76811424D01*
X153500976Y-76870708D01*
X153402523Y-77057836D01*
X153401179Y-77062165D01*
X153343929Y-77246541D01*
X153339820Y-77259773D01*
X153339286Y-77264283D01*
X153339286Y-77264284D01*
X153334899Y-77301354D01*
X153314967Y-77469754D01*
X153082650Y-77469754D01*
X153080710Y-77448638D01*
X153067533Y-77305245D01*
X153066081Y-77289440D01*
X153008686Y-77085931D01*
X152915165Y-76896290D01*
X152788651Y-76726867D01*
X152633381Y-76583337D01*
X152552891Y-76532551D01*
X152458391Y-76472926D01*
X152454554Y-76470505D01*
X152258160Y-76392152D01*
X152050775Y-76350901D01*
X151946599Y-76349537D01*
X151843886Y-76348192D01*
X151843881Y-76348192D01*
X151839346Y-76348133D01*
X151834873Y-76348902D01*
X151834868Y-76348902D01*
X151731601Y-76366647D01*
X151630953Y-76383941D01*
X151432575Y-76457127D01*
X151428676Y-76459446D01*
X151428671Y-76459449D01*
X151305798Y-76532551D01*
X151250856Y-76565238D01*
X151247441Y-76568233D01*
X151247438Y-76568235D01*
X151232977Y-76580917D01*
X151091881Y-76704655D01*
X151089073Y-76708217D01*
X151007712Y-76811424D01*
X150960976Y-76870708D01*
X150862523Y-77057836D01*
X150861179Y-77062165D01*
X150803929Y-77246541D01*
X150799820Y-77259773D01*
X150799286Y-77264283D01*
X150799286Y-77264284D01*
X150794899Y-77301354D01*
X150774967Y-77469754D01*
X150542650Y-77469754D01*
X150540710Y-77448638D01*
X150527533Y-77305245D01*
X150526081Y-77289440D01*
X150468686Y-77085931D01*
X150375165Y-76896290D01*
X150248651Y-76726867D01*
X150093381Y-76583337D01*
X150012891Y-76532551D01*
X149918391Y-76472926D01*
X149914554Y-76470505D01*
X149718160Y-76392152D01*
X149510775Y-76350901D01*
X149406599Y-76349537D01*
X149303886Y-76348192D01*
X149303881Y-76348192D01*
X149299346Y-76348133D01*
X149294873Y-76348902D01*
X149294868Y-76348902D01*
X149191601Y-76366647D01*
X149090953Y-76383941D01*
X148892575Y-76457127D01*
X148888676Y-76459446D01*
X148888671Y-76459449D01*
X148765798Y-76532551D01*
X148710856Y-76565238D01*
X148707441Y-76568233D01*
X148707438Y-76568235D01*
X148692977Y-76580917D01*
X148551881Y-76704655D01*
X148549073Y-76708217D01*
X148467712Y-76811424D01*
X148420976Y-76870708D01*
X148322523Y-77057836D01*
X148321179Y-77062165D01*
X148263929Y-77246541D01*
X148259820Y-77259773D01*
X148259286Y-77264283D01*
X148259286Y-77264284D01*
X148254899Y-77301354D01*
X148234967Y-77469754D01*
X148002650Y-77469754D01*
X148000710Y-77448638D01*
X147987533Y-77305245D01*
X147986081Y-77289440D01*
X147928686Y-77085931D01*
X147835165Y-76896290D01*
X147708651Y-76726867D01*
X147553381Y-76583337D01*
X147472891Y-76532551D01*
X147378391Y-76472926D01*
X147374554Y-76470505D01*
X147178160Y-76392152D01*
X146970775Y-76350901D01*
X146866599Y-76349537D01*
X146763886Y-76348192D01*
X146763881Y-76348192D01*
X146759346Y-76348133D01*
X146754873Y-76348902D01*
X146754868Y-76348902D01*
X146651601Y-76366647D01*
X146550953Y-76383941D01*
X146352575Y-76457127D01*
X146348676Y-76459446D01*
X146348671Y-76459449D01*
X146225798Y-76532551D01*
X146170856Y-76565238D01*
X146167441Y-76568233D01*
X146167438Y-76568235D01*
X146152977Y-76580917D01*
X146011881Y-76704655D01*
X146009073Y-76708217D01*
X145927712Y-76811424D01*
X145880976Y-76870708D01*
X145782523Y-77057836D01*
X145781179Y-77062165D01*
X145723929Y-77246541D01*
X145719820Y-77259773D01*
X145719286Y-77264283D01*
X145719286Y-77264284D01*
X145714899Y-77301354D01*
X145694967Y-77469754D01*
X145462650Y-77469754D01*
X145460710Y-77448638D01*
X145447533Y-77305245D01*
X145446081Y-77289440D01*
X145388686Y-77085931D01*
X145295165Y-76896290D01*
X145168651Y-76726867D01*
X145013381Y-76583337D01*
X144932891Y-76532551D01*
X144838391Y-76472926D01*
X144834554Y-76470505D01*
X144638160Y-76392152D01*
X144430775Y-76350901D01*
X144326599Y-76349537D01*
X144223886Y-76348192D01*
X144223881Y-76348192D01*
X144219346Y-76348133D01*
X144214873Y-76348902D01*
X144214868Y-76348902D01*
X144111601Y-76366647D01*
X144010953Y-76383941D01*
X143812575Y-76457127D01*
X143808676Y-76459446D01*
X143808671Y-76459449D01*
X143685798Y-76532551D01*
X143630856Y-76565238D01*
X143627441Y-76568233D01*
X143627438Y-76568235D01*
X143612977Y-76580917D01*
X143471881Y-76704655D01*
X143469073Y-76708217D01*
X143387712Y-76811424D01*
X143340976Y-76870708D01*
X143242523Y-77057836D01*
X143241179Y-77062165D01*
X143183929Y-77246541D01*
X143179820Y-77259773D01*
X143179286Y-77264283D01*
X143179286Y-77264284D01*
X143174899Y-77301354D01*
X143154967Y-77469754D01*
X142922650Y-77469754D01*
X142920710Y-77448638D01*
X142907533Y-77305245D01*
X142906081Y-77289440D01*
X142848686Y-77085931D01*
X142755165Y-76896290D01*
X142628651Y-76726867D01*
X142473381Y-76583337D01*
X142392891Y-76532551D01*
X142298391Y-76472926D01*
X142294554Y-76470505D01*
X142098160Y-76392152D01*
X141890775Y-76350901D01*
X141786599Y-76349537D01*
X141683886Y-76348192D01*
X141683881Y-76348192D01*
X141679346Y-76348133D01*
X141674873Y-76348902D01*
X141674868Y-76348902D01*
X141571601Y-76366647D01*
X141470953Y-76383941D01*
X141272575Y-76457127D01*
X141268676Y-76459446D01*
X141268671Y-76459449D01*
X141145798Y-76532551D01*
X141090856Y-76565238D01*
X141087441Y-76568233D01*
X141087438Y-76568235D01*
X141072977Y-76580917D01*
X140931881Y-76704655D01*
X140929073Y-76708217D01*
X140847712Y-76811424D01*
X140800976Y-76870708D01*
X140702523Y-77057836D01*
X140701179Y-77062165D01*
X140643929Y-77246541D01*
X140639820Y-77259773D01*
X140639286Y-77264283D01*
X140639286Y-77264284D01*
X140634899Y-77301354D01*
X140614967Y-77469754D01*
X140382650Y-77469754D01*
X140380710Y-77448638D01*
X140367533Y-77305245D01*
X140366081Y-77289440D01*
X140308686Y-77085931D01*
X140215165Y-76896290D01*
X140088651Y-76726867D01*
X139933381Y-76583337D01*
X139852891Y-76532551D01*
X139758391Y-76472926D01*
X139754554Y-76470505D01*
X139558160Y-76392152D01*
X139350775Y-76350901D01*
X139246599Y-76349537D01*
X139143886Y-76348192D01*
X139143881Y-76348192D01*
X139139346Y-76348133D01*
X139134873Y-76348902D01*
X139134868Y-76348902D01*
X139031601Y-76366647D01*
X138930953Y-76383941D01*
X138732575Y-76457127D01*
X138728676Y-76459446D01*
X138728671Y-76459449D01*
X138605798Y-76532551D01*
X138550856Y-76565238D01*
X138547441Y-76568233D01*
X138547438Y-76568235D01*
X138532977Y-76580917D01*
X138391881Y-76704655D01*
X138389073Y-76708217D01*
X138307712Y-76811424D01*
X138260976Y-76870708D01*
X138162523Y-77057836D01*
X138161179Y-77062165D01*
X138103929Y-77246541D01*
X138099820Y-77259773D01*
X138099286Y-77264283D01*
X138099286Y-77264284D01*
X138094899Y-77301354D01*
X138074967Y-77469754D01*
X137842650Y-77469754D01*
X137840710Y-77448638D01*
X137827533Y-77305245D01*
X137826081Y-77289440D01*
X137768686Y-77085931D01*
X137675165Y-76896290D01*
X137548651Y-76726867D01*
X137393381Y-76583337D01*
X137312891Y-76532551D01*
X137218391Y-76472926D01*
X137214554Y-76470505D01*
X137018160Y-76392152D01*
X136810775Y-76350901D01*
X136706599Y-76349537D01*
X136603886Y-76348192D01*
X136603881Y-76348192D01*
X136599346Y-76348133D01*
X136594873Y-76348902D01*
X136594868Y-76348902D01*
X136491601Y-76366647D01*
X136390953Y-76383941D01*
X136192575Y-76457127D01*
X136188676Y-76459446D01*
X136188671Y-76459449D01*
X136065798Y-76532551D01*
X136010856Y-76565238D01*
X136007441Y-76568233D01*
X136007438Y-76568235D01*
X135992977Y-76580917D01*
X135851881Y-76704655D01*
X135849073Y-76708217D01*
X135767712Y-76811424D01*
X135720976Y-76870708D01*
X135622523Y-77057836D01*
X135621179Y-77062165D01*
X135563929Y-77246541D01*
X135559820Y-77259773D01*
X135559286Y-77264283D01*
X135559286Y-77264284D01*
X135554899Y-77301354D01*
X135534967Y-77469754D01*
X135302650Y-77469754D01*
X135300710Y-77448638D01*
X135287533Y-77305245D01*
X135286081Y-77289440D01*
X135228686Y-77085931D01*
X135135165Y-76896290D01*
X135008651Y-76726867D01*
X134853381Y-76583337D01*
X134772891Y-76532551D01*
X134678391Y-76472926D01*
X134674554Y-76470505D01*
X134478160Y-76392152D01*
X134270775Y-76350901D01*
X134166599Y-76349537D01*
X134063886Y-76348192D01*
X134063881Y-76348192D01*
X134059346Y-76348133D01*
X134054873Y-76348902D01*
X134054868Y-76348902D01*
X133951601Y-76366647D01*
X133850953Y-76383941D01*
X133652575Y-76457127D01*
X133648676Y-76459446D01*
X133648671Y-76459449D01*
X133525798Y-76532551D01*
X133470856Y-76565238D01*
X133467441Y-76568233D01*
X133467438Y-76568235D01*
X133452977Y-76580917D01*
X133311881Y-76704655D01*
X133309073Y-76708217D01*
X133227712Y-76811424D01*
X133180976Y-76870708D01*
X133082523Y-77057836D01*
X133081179Y-77062165D01*
X133023929Y-77246541D01*
X133019820Y-77259773D01*
X133019286Y-77264283D01*
X133019286Y-77264284D01*
X133014899Y-77301354D01*
X132994967Y-77469754D01*
X132762650Y-77469754D01*
X132760710Y-77448638D01*
X132747533Y-77305245D01*
X132746081Y-77289440D01*
X132688686Y-77085931D01*
X132595165Y-76896290D01*
X132468651Y-76726867D01*
X132313381Y-76583337D01*
X132232891Y-76532551D01*
X132138391Y-76472926D01*
X132134554Y-76470505D01*
X131938160Y-76392152D01*
X131730775Y-76350901D01*
X131626599Y-76349537D01*
X131523886Y-76348192D01*
X131523881Y-76348192D01*
X131519346Y-76348133D01*
X131514873Y-76348902D01*
X131514868Y-76348902D01*
X131411601Y-76366647D01*
X131310953Y-76383941D01*
X131112575Y-76457127D01*
X131108676Y-76459446D01*
X131108671Y-76459449D01*
X130985798Y-76532551D01*
X130930856Y-76565238D01*
X130927441Y-76568233D01*
X130927438Y-76568235D01*
X130912977Y-76580917D01*
X130771881Y-76704655D01*
X130769073Y-76708217D01*
X130687712Y-76811424D01*
X130640976Y-76870708D01*
X130542523Y-77057836D01*
X130541179Y-77062165D01*
X130483929Y-77246541D01*
X130479820Y-77259773D01*
X130479286Y-77264283D01*
X130479286Y-77264284D01*
X130474899Y-77301354D01*
X130454967Y-77469754D01*
X130222650Y-77469754D01*
X130220710Y-77448638D01*
X130207533Y-77305245D01*
X130206081Y-77289440D01*
X130148686Y-77085931D01*
X130055165Y-76896290D01*
X129928651Y-76726867D01*
X129773381Y-76583337D01*
X129692891Y-76532551D01*
X129598391Y-76472926D01*
X129594554Y-76470505D01*
X129398160Y-76392152D01*
X129190775Y-76350901D01*
X129086599Y-76349537D01*
X128983886Y-76348192D01*
X128983881Y-76348192D01*
X128979346Y-76348133D01*
X128974873Y-76348902D01*
X128974868Y-76348902D01*
X128871601Y-76366647D01*
X128770953Y-76383941D01*
X128572575Y-76457127D01*
X128568676Y-76459446D01*
X128568671Y-76459449D01*
X128445798Y-76532551D01*
X128390856Y-76565238D01*
X128387441Y-76568233D01*
X128387438Y-76568235D01*
X128372977Y-76580917D01*
X128231881Y-76704655D01*
X128229073Y-76708217D01*
X128147712Y-76811424D01*
X128100976Y-76870708D01*
X128002523Y-77057836D01*
X128001179Y-77062165D01*
X127943929Y-77246541D01*
X127939820Y-77259773D01*
X127939286Y-77264283D01*
X127939286Y-77264284D01*
X127934899Y-77301354D01*
X127914967Y-77469754D01*
X104333537Y-77469754D01*
X104334676Y-77444662D01*
X104319928Y-77317190D01*
X104305901Y-77195961D01*
X104305900Y-77195957D01*
X104305444Y-77192014D01*
X104301377Y-77177639D01*
X104237276Y-76951113D01*
X104237275Y-76951111D01*
X104236194Y-76947290D01*
X104212413Y-76896290D01*
X104130390Y-76720392D01*
X104128708Y-76716785D01*
X104126473Y-76713496D01*
X104126470Y-76713491D01*
X104003499Y-76532547D01*
X103985751Y-76506431D01*
X103811002Y-76321638D01*
X103807848Y-76319227D01*
X103807844Y-76319223D01*
X103688799Y-76228207D01*
X103608955Y-76167162D01*
X103605451Y-76165283D01*
X103605446Y-76165280D01*
X103388316Y-76048857D01*
X103388317Y-76048857D01*
X103384810Y-76046977D01*
X103144333Y-75964174D01*
X102953061Y-75931136D01*
X102896786Y-75921415D01*
X102896784Y-75921415D01*
X102893711Y-75920884D01*
X102870302Y-75919821D01*
X102864338Y-75919550D01*
X102864332Y-75919550D01*
X102863234Y-75919500D01*
X102686090Y-75919500D01*
X102684116Y-75919659D01*
X102684112Y-75919659D01*
X102500446Y-75934436D01*
X102500441Y-75934437D01*
X102496486Y-75934755D01*
X102492627Y-75935703D01*
X102492626Y-75935703D01*
X102253360Y-75994472D01*
X102253355Y-75994474D01*
X102249494Y-75995422D01*
X102245833Y-75996976D01*
X102245830Y-75996977D01*
X102019041Y-76093243D01*
X102015378Y-76094798D01*
X101800163Y-76230327D01*
X101732881Y-76289644D01*
X101665667Y-76348902D01*
X101609385Y-76398521D01*
X101606860Y-76401595D01*
X101455046Y-76586416D01*
X101447951Y-76595053D01*
X101445952Y-76598487D01*
X101445951Y-76598489D01*
X101432026Y-76622415D01*
X101320016Y-76814867D01*
X101318588Y-76818586D01*
X101318587Y-76818589D01*
X101230298Y-77048589D01*
X101230296Y-77048596D01*
X101228871Y-77052308D01*
X101228058Y-77056200D01*
X101228057Y-77056203D01*
X101178052Y-77295566D01*
X101176861Y-77301266D01*
X101165324Y-77555338D01*
X100550000Y-77555338D01*
X100550000Y-75399000D01*
X100568907Y-75340809D01*
X100618407Y-75304845D01*
X100649000Y-75300000D01*
X179851000Y-75300000D01*
X179909191Y-75318907D01*
G37*
%TD.AperFunction*%
%TD*%
M02*
