%TF.GenerationSoftware,KiCad,Pcbnew,6.0.2+dfsg-1*%
%TF.CreationDate,2026-02-14T00:21:06+01:00*%
%TF.ProjectId,1602_display_usb_controller,31363032-5f64-4697-9370-6c61795f7573,rev?*%
%TF.SameCoordinates,Original*%
%TF.FileFunction,Paste,Top*%
%TF.FilePolarity,Positive*%
%FSLAX46Y46*%
G04 Gerber Fmt 4.6, Leading zero omitted, Abs format (unit mm)*
G04 Created by KiCad (PCBNEW 6.0.2+dfsg-1) date 2026-02-14 00:21:06*
%MOMM*%
%LPD*%
G01*
G04 APERTURE LIST*
G04 Aperture macros list*
%AMRoundRect*
0 Rectangle with rounded corners*
0 $1 Rounding radius*
0 $2 $3 $4 $5 $6 $7 $8 $9 X,Y pos of 4 corners*
0 Add a 4 corners polygon primitive as box body*
4,1,4,$2,$3,$4,$5,$6,$7,$8,$9,$2,$3,0*
0 Add four circle primitives for the rounded corners*
1,1,$1+$1,$2,$3*
1,1,$1+$1,$4,$5*
1,1,$1+$1,$6,$7*
1,1,$1+$1,$8,$9*
0 Add four rect primitives between the rounded corners*
20,1,$1+$1,$2,$3,$4,$5,0*
20,1,$1+$1,$4,$5,$6,$7,0*
20,1,$1+$1,$6,$7,$8,$9,0*
20,1,$1+$1,$8,$9,$2,$3,0*%
G04 Aperture macros list end*
%ADD10RoundRect,0.250000X0.475000X-0.250000X0.475000X0.250000X-0.475000X0.250000X-0.475000X-0.250000X0*%
%ADD11RoundRect,0.250000X0.450000X-0.262500X0.450000X0.262500X-0.450000X0.262500X-0.450000X-0.262500X0*%
%ADD12RoundRect,0.250000X-0.450000X0.262500X-0.450000X-0.262500X0.450000X-0.262500X0.450000X0.262500X0*%
%ADD13RoundRect,0.250000X0.262500X0.450000X-0.262500X0.450000X-0.262500X-0.450000X0.262500X-0.450000X0*%
%ADD14R,1.450000X0.600000*%
%ADD15R,1.450000X0.300000*%
%ADD16RoundRect,0.250000X-0.475000X0.250000X-0.475000X-0.250000X0.475000X-0.250000X0.475000X0.250000X0*%
%ADD17RoundRect,0.150000X0.587500X0.150000X-0.587500X0.150000X-0.587500X-0.150000X0.587500X-0.150000X0*%
%ADD18RoundRect,0.150000X-0.150000X0.825000X-0.150000X-0.825000X0.150000X-0.825000X0.150000X0.825000X0*%
%ADD19RoundRect,0.250000X-0.262500X-0.450000X0.262500X-0.450000X0.262500X0.450000X-0.262500X0.450000X0*%
%ADD20RoundRect,0.250000X-0.250000X-0.475000X0.250000X-0.475000X0.250000X0.475000X-0.250000X0.475000X0*%
%ADD21RoundRect,0.150000X0.150000X-0.512500X0.150000X0.512500X-0.150000X0.512500X-0.150000X-0.512500X0*%
%ADD22RoundRect,0.150000X-0.150000X0.725000X-0.150000X-0.725000X0.150000X-0.725000X0.150000X0.725000X0*%
%ADD23RoundRect,0.250000X0.250000X0.475000X-0.250000X0.475000X-0.250000X-0.475000X0.250000X-0.475000X0*%
%ADD24R,1.050000X0.650000*%
%ADD25RoundRect,0.243750X-0.243750X-0.456250X0.243750X-0.456250X0.243750X0.456250X-0.243750X0.456250X0*%
G04 APERTURE END LIST*
D10*
%TO.C,C6*%
X150500000Y-96700000D03*
X150500000Y-94800000D03*
%TD*%
D11*
%TO.C,R14*%
X114250000Y-94162500D03*
X114250000Y-92337500D03*
%TD*%
D12*
%TO.C,R8*%
X120250000Y-82675000D03*
X120250000Y-84500000D03*
%TD*%
D13*
%TO.C,R6*%
X119162500Y-108500000D03*
X117337500Y-108500000D03*
%TD*%
D14*
%TO.C,J1*%
X172205000Y-96250000D03*
X172205000Y-95450000D03*
D15*
X172205000Y-94250000D03*
X172205000Y-93250000D03*
X172205000Y-92750000D03*
X172205000Y-91750000D03*
D14*
X172205000Y-90550000D03*
X172205000Y-89750000D03*
X172205000Y-89750000D03*
X172205000Y-90550000D03*
D15*
X172205000Y-91250000D03*
X172205000Y-92250000D03*
X172205000Y-93750000D03*
X172205000Y-94750000D03*
D14*
X172205000Y-95450000D03*
X172205000Y-96250000D03*
%TD*%
D16*
%TO.C,C1*%
X175750000Y-100300000D03*
X175750000Y-102200000D03*
%TD*%
%TO.C,C3*%
X165000000Y-97550000D03*
X165000000Y-99450000D03*
%TD*%
D12*
%TO.C,R5*%
X177000000Y-83337500D03*
X177000000Y-85162500D03*
%TD*%
D17*
%TO.C,Q1*%
X118187500Y-84537500D03*
X118187500Y-82637500D03*
X116312500Y-83587500D03*
%TD*%
D12*
%TO.C,R1*%
X168250000Y-99337500D03*
X168250000Y-101162500D03*
%TD*%
D18*
%TO.C,U4*%
X144060000Y-86775000D03*
X142790000Y-86775000D03*
X141520000Y-86775000D03*
X140250000Y-86775000D03*
X138980000Y-86775000D03*
X137710000Y-86775000D03*
X136440000Y-86775000D03*
X136440000Y-91725000D03*
X137710000Y-91725000D03*
X138980000Y-91725000D03*
X140250000Y-91725000D03*
X141520000Y-91725000D03*
X142790000Y-91725000D03*
X144060000Y-91725000D03*
%TD*%
D19*
%TO.C,R17*%
X123837500Y-81000000D03*
X125662500Y-81000000D03*
%TD*%
D17*
%TO.C,Q3*%
X118187500Y-94200000D03*
X118187500Y-92300000D03*
X116312500Y-93250000D03*
%TD*%
%TO.C,Q5*%
X118187500Y-103950000D03*
X118187500Y-102050000D03*
X116312500Y-103000000D03*
%TD*%
D20*
%TO.C,C7*%
X170050000Y-80500000D03*
X171950000Y-80500000D03*
%TD*%
D11*
%TO.C,R2*%
X168250000Y-86662500D03*
X168250000Y-84837500D03*
%TD*%
D21*
%TO.C,U2*%
X172050000Y-102387500D03*
X173000000Y-102387500D03*
X173950000Y-102387500D03*
X173950000Y-100112500D03*
X172050000Y-100112500D03*
%TD*%
D13*
%TO.C,R3*%
X174412500Y-104250000D03*
X172587500Y-104250000D03*
%TD*%
D22*
%TO.C,U1*%
X165195000Y-90425000D03*
X163925000Y-90425000D03*
X162655000Y-90425000D03*
X161385000Y-90425000D03*
X160115000Y-90425000D03*
X158845000Y-90425000D03*
X157575000Y-90425000D03*
X156305000Y-90425000D03*
X156305000Y-95575000D03*
X157575000Y-95575000D03*
X158845000Y-95575000D03*
X160115000Y-95575000D03*
X161385000Y-95575000D03*
X162655000Y-95575000D03*
X163925000Y-95575000D03*
X165195000Y-95575000D03*
%TD*%
D17*
%TO.C,Q4*%
X118187500Y-100450000D03*
X118187500Y-98550000D03*
X116312500Y-99500000D03*
%TD*%
D12*
%TO.C,R12*%
X120250000Y-102087500D03*
X120250000Y-103912500D03*
%TD*%
D11*
%TO.C,R7*%
X166250000Y-82162500D03*
X166250000Y-80337500D03*
%TD*%
D23*
%TO.C,C9*%
X139700000Y-105500000D03*
X137800000Y-105500000D03*
%TD*%
D12*
%TO.C,R15*%
X114250000Y-98587500D03*
X114250000Y-100412500D03*
%TD*%
D23*
%TO.C,C2*%
X163200000Y-98000000D03*
X161300000Y-98000000D03*
%TD*%
D24*
%TO.C,SW1*%
X170925000Y-85325000D03*
X175075000Y-85325000D03*
X170925000Y-83175000D03*
X175075000Y-83175000D03*
%TD*%
D12*
%TO.C,R9*%
X120250000Y-88837500D03*
X120250000Y-90662500D03*
%TD*%
D25*
%TO.C,D1*%
X122812500Y-108500000D03*
X124687500Y-108500000D03*
%TD*%
D16*
%TO.C,C5*%
X168250000Y-80300000D03*
X168250000Y-82200000D03*
%TD*%
D20*
%TO.C,C8*%
X132800000Y-105500000D03*
X134700000Y-105500000D03*
%TD*%
D17*
%TO.C,Q2*%
X118187500Y-90700000D03*
X118187500Y-88800000D03*
X116312500Y-89750000D03*
%TD*%
D12*
%TO.C,R10*%
X120250000Y-92337500D03*
X120250000Y-94162500D03*
%TD*%
D10*
%TO.C,C4*%
X170250000Y-102950000D03*
X170250000Y-101050000D03*
%TD*%
D12*
%TO.C,R13*%
X114250000Y-88837500D03*
X114250000Y-90662500D03*
%TD*%
D11*
%TO.C,R16*%
X114250000Y-103912500D03*
X114250000Y-102087500D03*
%TD*%
D12*
%TO.C,R4*%
X168250000Y-92587500D03*
X168250000Y-94412500D03*
%TD*%
%TO.C,R11*%
X120250000Y-98587500D03*
X120250000Y-100412500D03*
%TD*%
M02*
