%TF.GenerationSoftware,KiCad,Pcbnew,6.0.2+dfsg-1*%
%TF.CreationDate,2026-02-14T00:21:06+01:00*%
%TF.ProjectId,1602_display_usb_controller,31363032-5f64-4697-9370-6c61795f7573,rev?*%
%TF.SameCoordinates,Original*%
%TF.FileFunction,Legend,Bot*%
%TF.FilePolarity,Positive*%
%FSLAX46Y46*%
G04 Gerber Fmt 4.6, Leading zero omitted, Abs format (unit mm)*
G04 Created by KiCad (PCBNEW 6.0.2+dfsg-1) date 2026-02-14 00:21:06*
%MOMM*%
%LPD*%
G01*
G04 APERTURE LIST*
%ADD10C,0.150000*%
%ADD11C,0.120000*%
%ADD12C,2.500000*%
%ADD13R,1.600000X1.600000*%
%ADD14O,1.600000X1.600000*%
%ADD15C,0.650000*%
%ADD16O,1.600000X1.000000*%
%ADD17O,2.100000X1.000000*%
%ADD18R,1.000000X1.000000*%
%ADD19O,1.000000X1.000000*%
%ADD20R,1.700000X1.700000*%
%ADD21O,1.700000X1.700000*%
G04 APERTURE END LIST*
D10*
%TO.C,J4*%
X130083333Y-105202380D02*
X130083333Y-105916666D01*
X130130952Y-106059523D01*
X130226190Y-106154761D01*
X130369047Y-106202380D01*
X130464285Y-106202380D01*
X129178571Y-105535714D02*
X129178571Y-106202380D01*
X129416666Y-105154761D02*
X129654761Y-105869047D01*
X129035714Y-105869047D01*
%TO.C,J3*%
X175083333Y-79202380D02*
X175083333Y-79916666D01*
X175130952Y-80059523D01*
X175226190Y-80154761D01*
X175369047Y-80202380D01*
X175464285Y-80202380D01*
X174702380Y-79202380D02*
X174083333Y-79202380D01*
X174416666Y-79583333D01*
X174273809Y-79583333D01*
X174178571Y-79630952D01*
X174130952Y-79678571D01*
X174083333Y-79773809D01*
X174083333Y-80011904D01*
X174130952Y-80107142D01*
X174178571Y-80154761D01*
X174273809Y-80202380D01*
X174559523Y-80202380D01*
X174654761Y-80154761D01*
X174702380Y-80107142D01*
D11*
%TO.C,J4*%
X132440000Y-107170000D02*
X132440000Y-109830000D01*
X132440000Y-107170000D02*
X170600000Y-107170000D01*
X170600000Y-107170000D02*
X170600000Y-109830000D01*
X129840000Y-109830000D02*
X131170000Y-109830000D01*
X129840000Y-108500000D02*
X129840000Y-109830000D01*
X132440000Y-109830000D02*
X170600000Y-109830000D01*
%TO.C,J3*%
X173580000Y-77500000D02*
X173580000Y-76170000D01*
X173580000Y-76170000D02*
X172250000Y-76170000D01*
X170980000Y-78830000D02*
X127740000Y-78830000D01*
X170980000Y-76170000D02*
X127740000Y-76170000D01*
X127740000Y-78830000D02*
X127740000Y-76170000D01*
X170980000Y-78830000D02*
X170980000Y-76170000D01*
%TD*%
%LPC*%
D12*
%TO.C,H4*%
X177750000Y-108500000D03*
%TD*%
D13*
%TO.C,U3*%
X147875000Y-89200000D03*
D14*
X145335000Y-89200000D03*
X142795000Y-89200000D03*
X140255000Y-89200000D03*
X137715000Y-89200000D03*
X135175000Y-89200000D03*
X132635000Y-89200000D03*
X132635000Y-96820000D03*
X135175000Y-96820000D03*
X137715000Y-96820000D03*
X140255000Y-96820000D03*
X142795000Y-96820000D03*
X145335000Y-96820000D03*
X147875000Y-96820000D03*
%TD*%
D15*
%TO.C,J1*%
X173650000Y-90110000D03*
X173650000Y-95890000D03*
D16*
X177300000Y-97320000D03*
X177300000Y-88680000D03*
D17*
X173120000Y-97320000D03*
X173120000Y-88680000D03*
%TD*%
D18*
%TO.C,J2*%
X168650000Y-96750000D03*
D19*
X167380000Y-96750000D03*
%TD*%
D12*
%TO.C,H1*%
X102750000Y-77500000D03*
%TD*%
%TO.C,H2*%
X177750000Y-77500000D03*
%TD*%
%TO.C,H3*%
X102750000Y-108500000D03*
%TD*%
D20*
%TO.C,J4*%
X131170000Y-108500000D03*
D21*
X133710000Y-108500000D03*
X136250000Y-108500000D03*
X138790000Y-108500000D03*
X141330000Y-108500000D03*
X143870000Y-108500000D03*
X146410000Y-108500000D03*
X148950000Y-108500000D03*
X151490000Y-108500000D03*
X154030000Y-108500000D03*
X156570000Y-108500000D03*
X159110000Y-108500000D03*
X161650000Y-108500000D03*
X164190000Y-108500000D03*
X166730000Y-108500000D03*
X169270000Y-108500000D03*
%TD*%
D20*
%TO.C,J3*%
X172250000Y-77500000D03*
D21*
X169710000Y-77500000D03*
X167170000Y-77500000D03*
X164630000Y-77500000D03*
X162090000Y-77500000D03*
X159550000Y-77500000D03*
X157010000Y-77500000D03*
X154470000Y-77500000D03*
X151930000Y-77500000D03*
X149390000Y-77500000D03*
X146850000Y-77500000D03*
X144310000Y-77500000D03*
X141770000Y-77500000D03*
X139230000Y-77500000D03*
X136690000Y-77500000D03*
X134150000Y-77500000D03*
X131610000Y-77500000D03*
X129070000Y-77500000D03*
%TD*%
M02*
